<?xml version="1.0" encoding="utf-8"?>
<!-- Generator: Adobe Illustrator 26.0.1, SVG Export Plug-In . SVG Version: 6.00 Build 0)  -->
<svg version="1.1" xmlns="http://www.w3.org/2000/svg" xmlns:xlink="http://www.w3.org/1999/xlink" x="0px" y="0px"
	 viewBox="0 0 750 500" style="enable-background:new 0 0 750 500;" xml:space="preserve">
<style type="text/css">
	.st0{fill:url(#SVGID_1_);}
	.st1{clip-path:url(#SVGID_00000098205400843856053600000014157157684228994743_);}
	.st2{fill:#B75725;}
	.st3{fill:#E3A11D;}
	.st4{fill:#5F8B8E;}
	.st5{fill:#0C2C4C;}
	.st6{fill:#8E8044;}
	.st7{fill:#2F5690;}
	.st8{filter:url(#Adobe_OpacityMaskFilter);}
	.st9{opacity:0.7;mask:url(#SVGID_00000145017596240663525400000016312376356207179670_);}
	.st10{fill:#A5A5A5;}
	.st11{filter:url(#Adobe_OpacityMaskFilter_00000031192854951795493010000016303846612401231265_);}
	.st12{opacity:0.7;mask:url(#SVGID_00000176025815508580076790000009594376224080623026_);}
	.st13{filter:url(#Adobe_OpacityMaskFilter_00000050645093273254224260000011496562517301061794_);}
	.st14{opacity:0.7;mask:url(#SVGID_00000029043000811114262250000007429078603210846647_);}
	.st15{filter:url(#Adobe_OpacityMaskFilter_00000162346652997226556310000000511531793883359117_);}
	.st16{opacity:0.7;mask:url(#SVGID_00000030480982477408364970000001438253836454982844_);}
	.st17{filter:url(#Adobe_OpacityMaskFilter_00000135656149214932672290000003226164107203680951_);}
	.st18{opacity:0.7;mask:url(#SVGID_00000030468798429277513810000001329811232012764858_);}
	.st19{filter:url(#Adobe_OpacityMaskFilter_00000144312430411220809260000010732767818838195601_);}
	.st20{opacity:0.7;mask:url(#SVGID_00000005957921547958220610000001315232867727405501_);}
	.st21{filter:url(#Adobe_OpacityMaskFilter_00000148647483848326251040000009689515595298124472_);}
	.st22{opacity:0.7;mask:url(#SVGID_00000167383315093256796160000005921858225696389519_);}
	.st23{filter:url(#Adobe_OpacityMaskFilter_00000046328010557208119980000012744572545029345714_);}
	.st24{opacity:0.7;mask:url(#SVGID_00000129206919352230359910000011275764916018277812_);}
	.st25{filter:url(#Adobe_OpacityMaskFilter_00000060726204827349209010000008999981789482607261_);}
	.st26{opacity:0.7;mask:url(#SVGID_00000032628190143158180320000017614727607435168385_);}
	.st27{filter:url(#Adobe_OpacityMaskFilter_00000011748060456450699150000008122217928875774895_);}
	.st28{opacity:0.7;mask:url(#SVGID_00000173150824596214094330000010936729503469392266_);}
	.st29{filter:url(#Adobe_OpacityMaskFilter_00000135653199931121837900000007950756873483142030_);}
	.st30{opacity:0.7;mask:url(#SVGID_00000105407762922978682470000008740187887747740323_);}
	.st31{filter:url(#Adobe_OpacityMaskFilter_00000115505698504070169590000008902809976773351321_);}
	.st32{opacity:0.7;mask:url(#SVGID_00000163061574152466676750000014337861377477773979_);}
	.st33{filter:url(#Adobe_OpacityMaskFilter_00000020364858850210271320000017058139229321423793_);}
	.st34{opacity:0.7;mask:url(#SVGID_00000047058065622189611710000011317814728514897321_);}
	.st35{opacity:0.5;fill:#EEEEEE;}
	.st36{opacity:0.5;}
	.st37{fill:#EEEEEE;}
</style>
<g id="BACKGROUND">
	<linearGradient id="SVGID_1_" gradientUnits="userSpaceOnUse" x1="62.5" y1="-62.5" x2="687.5" y2="562.5">
		<stop  offset="0.2899" style="stop-color:#FFFFFF"/>
		<stop  offset="0.609" style="stop-color:#F8F8F8"/>
		<stop  offset="1" style="stop-color:#E8E8E8"/>
	</linearGradient>
	<rect class="st0" width="750" height="500"/>
</g>
<g id="zellig">
	<g>
		<defs>
			<rect id="SVGID_00000107574527442441024220000002176062258717320850_" width="750" height="500"/>
		</defs>
		<clipPath id="SVGID_00000019676962382652618090000010202556200869118341_">
			<use xlink:href="#SVGID_00000107574527442441024220000002176062258717320850_"  style="overflow:visible;"/>
		</clipPath>
		<g style="clip-path:url(#SVGID_00000019676962382652618090000010202556200869118341_);">
			<g>
				<polygon class="st2" points="765.3,464.7 760.3,463.3 760.3,466.1 				"/>
				<polygon class="st3" points="752.2,424.3 747.3,426.2 748.9,428.4 				"/>
				<polygon class="st3" points="752.2,505.1 748.9,501 747.3,503.3 				"/>
				<polygon class="st4" points="729.5,408.4 721.9,398 721.5,405.9 				"/>
				<polygon class="st5" points="752.2,420 739.9,416 744.8,422.8 				"/>
				<polygon class="st5" points="715.3,395.9 703.1,399.9 711,402.4 				"/>
				<polygon class="st2" points="717.8,399.4 714.9,403.7 717.6,404.6 				"/>
				<polygon class="st4" points="760.3,478.6 767.8,468.2 760.3,470.2 				"/>
				<polygon class="st2" points="720.2,493.1 743.4,501.8 746.3,497.8 730.9,478.4 719.9,481.6 				"/>
				<polygon class="st4" points="756.3,438.5 756.3,425.6 751.4,431.8 				"/>
				<polygon class="st5" points="756.3,503.8 756.3,490.9 751.4,497.7 				"/>
				<polygon class="st5" points="767.8,461.3 760.3,450.8 760.3,459.2 				"/>
				<polygon class="st4" points="716.1,491.6 715.8,478.7 724.8,476 724.6,475.9 728.2,474.9 720.4,464.7 728.2,454.5 724.6,453.5 
					724.8,453.4 715.8,450.7 716.1,441.3 715.9,441.5 716.1,437.8 703.9,442.1 696.6,431.5 694.6,434.6 694.6,434.3 689.2,442.1 
					677.1,437.8 677.3,441.5 677.1,441.3 677.4,450.7 665,454.4 667.3,457.3 667.1,457.2 672.8,464.7 665,474.9 668.5,475.9 
					668.3,476 677.4,478.7 677.1,488.1 677.3,487.9 677.1,491.6 689.2,487.3 694.6,495.1 694.6,494.8 696.6,497.9 703.9,487.3 
					712.8,490.4 712.7,490.3 				"/>
				<polygon class="st3" points="732.4,473.8 756.3,467.2 756.3,462.2 732.3,455.6 725.4,464.7 				"/>
				<polygon class="st5" points="625.3,468.2 632.9,478.6 632.9,470.2 				"/>
				<polygon class="st4" points="632.9,450.8 625.3,461.3 632.9,459.2 				"/>
				<polygon class="st4" points="636.9,490.9 636.9,503.8 641.8,497.7 				"/>
				<polygon class="st5" points="636.9,425.6 636.9,438.5 641.8,431.8 				"/>
				<polygon class="st5" points="677.8,533.5 690.1,529.6 682.2,527 				"/>
				<polygon class="st3" points="675.4,530.1 678.2,525.7 675.6,524.8 				"/>
				<polygon class="st4" points="663.7,521 671.3,531.4 671.6,523.6 				"/>
				<polygon class="st4" points="715.3,533.5 703.1,529.6 711,527 				"/>
				<polygon class="st2" points="717.8,530.1 714.9,525.7 717.6,524.8 				"/>
				<polygon class="st5" points="729.5,521 721.9,531.4 721.5,523.6 				"/>
				<polygon class="st4" points="690.1,399.9 677.8,395.9 682.2,402.4 				"/>
				<polygon class="st5" points="641,509.4 653.2,513.4 648.3,506.6 				"/>
				<polygon class="st2" points="641,424.3 644.3,428.4 645.9,426.2 				"/>
				<polygon class="st3" points="675.4,399.4 675.6,404.6 678.2,403.7 				"/>
				<polygon class="st3" points="627.9,464.7 632.9,466.1 632.9,463.3 				"/>
				<polygon class="st5" points="671.3,398 663.7,408.4 671.6,405.9 				"/>
				<polygon class="st4" points="653.2,416 641,420 648.3,422.8 				"/>
				<polygon class="st2" points="641,505.1 645.9,503.3 644.3,501 				"/>
				<polygon class="st6" points="698.6,526.8 708.7,523.5 698.6,508.2 				"/>
				<polygon class="st7" points="756.3,458.1 756.3,447.4 738.5,453.2 				"/>
				<polygon class="st6" points="755,443.6 748.8,435 737.3,449.4 				"/>
				<polygon class="st6" points="636.9,447.4 636.9,458.1 654.6,453.2 				"/>
				<polygon class="st7" points="644.4,435 638.1,443.6 655.9,449.4 				"/>
				<polygon class="st7" points="748.8,494.4 755,485.8 737.3,480 				"/>
				<polygon class="st7" points="636.9,471.3 636.9,482 654.6,476.2 				"/>
				<polygon class="st6" points="756.3,482 756.3,471.3 738.5,476.2 				"/>
				<polygon class="st6" points="694.6,402.6 684.5,405.9 694.6,421.2 				"/>
				<polygon class="st6" points="638.1,485.8 644.4,494.4 655.9,480 				"/>
				<polygon class="st6" points="658.5,415.6 652.2,424.3 669.4,430.7 				"/>
				<polygon class="st6" points="731.5,413.3 721.3,410 720.5,428.4 				"/>
				<polygon class="st7" points="708.7,405.9 698.6,402.6 698.6,421.2 				"/>
				<polygon class="st7" points="671.8,410 661.7,413.3 672.7,428.4 				"/>
				<polygon class="st7" points="741,424.3 734.7,415.6 723.7,430.7 				"/>
				<polygon class="st6" points="661.7,516.1 671.8,519.4 672.7,501 				"/>
				<polygon class="st7" points="684.5,523.5 694.6,526.8 694.6,508.2 				"/>
				<polygon class="st3" points="673,436.3 649.8,427.6 646.8,431.6 662.3,451 673.3,447.8 				"/>
				<polygon class="st2" points="694.2,427.9 680.5,407.2 675.8,408.7 676.9,433.5 687.7,437.3 				"/>
				<polygon class="st3" points="716.3,433.5 717.4,408.7 712.7,407.2 699,427.9 705.5,437.3 				"/>
				<polygon class="st4" points="739.9,513.4 752.2,509.4 744.8,506.6 				"/>
				<polygon class="st7" points="652.2,505.2 658.5,513.8 669.4,498.7 				"/>
				<polygon class="st2" points="676.9,495.9 675.8,520.7 680.5,522.2 694.2,501.5 687.7,492.1 				"/>
				<polygon class="st7" points="731.5,516.1 721.3,519.4 720.5,501 				"/>
				<polygon class="st6" points="708.7,523.5 698.6,526.8 698.6,508.2 				"/>
				<polygon class="st3" points="716.3,495.9 717.4,520.7 712.7,522.2 699,501.5 705.5,492.1 				"/>
				<polygon class="st2" points="660.8,455.6 636.9,462.2 636.9,467.2 660.8,473.8 667.8,464.7 				"/>
				<polygon class="st6" points="734.7,513.8 741,505.2 723.7,498.7 				"/>
				<polygon class="st3" points="662.3,478.4 646.8,497.8 649.8,501.8 673,493.1 673.3,481.6 				"/>
				<polygon class="st2" points="730.9,451 746.3,431.6 743.4,427.6 720.2,436.3 719.9,447.8 				"/>
				<polygon class="st4" points="636.3,533 635.9,548.2 650.3,543.1 650.7,527.9 				"/>
				<polygon class="st3" points="760.3,506.8 776,502.1 764.2,486.7 782.9,481.1 772.9,468.1 760.3,485.4 				"/>
				<polygon class="st7" points="785.5,444.9 794.7,432.8 780.2,428.5 770.9,440.6 				"/>
				<polygon class="st4" points="613,428.5 598.4,432.8 607.7,444.9 622.3,440.6 				"/>
				<polygon class="st4" points="742.9,543.1 757.2,548.2 756.9,533 742.5,527.9 				"/>
				<polygon class="st2" points="772.9,461.4 782.9,448.3 764.2,442.7 776,427.3 760.3,422.6 760.3,444 				"/>
				<polygon class="st3" points="620.3,468.1 610.3,481.1 629,486.7 617.1,502.1 632.9,506.8 632.9,485.4 				"/>
				<polygon class="st2" points="636.8,512.2 636.4,528.7 654.8,522.2 654.3,541.7 669.8,536.2 657.2,518.9 				"/>
				<polygon class="st3" points="669.8,393.2 654.3,387.7 654.8,407.2 636.4,400.7 636.8,417.2 657.2,410.5 				"/>
				<polygon class="st7" points="780.2,500.9 794.7,496.6 785.5,484.5 770.9,488.9 				"/>
				<polygon class="st2" points="723.3,536.2 738.9,541.7 738.4,522.2 756.7,528.7 756.3,512.2 735.9,518.9 				"/>
				<polygon class="st7" points="650.3,386.3 635.9,381.2 636.3,396.4 650.7,401.5 				"/>
				<polygon class="st7" points="688,555.4 696.6,567.9 705.2,555.4 696.6,542.8 				"/>
				<polygon class="st4" points="756.9,396.4 757.2,381.2 742.9,386.3 742.5,401.5 				"/>
				<polygon class="st3" points="696.6,531.7 676.2,538.3 685.5,551.8 696.6,535.8 707.6,551.8 717,538.3 				"/>
				<polygon class="st7" points="705.2,374 696.6,361.5 688,374 696.6,386.6 				"/>
				<polygon class="st2" points="632.9,422.6 617.1,427.3 629,442.7 610.3,448.3 620.3,461.4 632.9,444 				"/>
				<polygon class="st2" points="717,391.1 707.6,377.6 696.6,393.6 685.5,377.6 676.2,391.1 696.6,397.8 				"/>
				<polygon class="st3" points="756.3,417.2 756.7,400.7 738.4,407.2 738.9,387.7 723.3,393.2 735.9,410.5 				"/>
				<polygon class="st7" points="607.7,484.5 598.4,496.6 613,500.9 622.3,488.9 				"/>
			</g>
		</g>
		<g style="clip-path:url(#SVGID_00000019676962382652618090000010202556200869118341_);">
			<g>
				<polygon class="st2" points="624.8,193.7 619.8,192.3 619.8,195.1 				"/>
				<polygon class="st3" points="611.7,153.3 606.8,155.1 608.4,157.4 				"/>
				<polygon class="st3" points="611.7,234.1 608.4,230 606.8,232.2 				"/>
				<polygon class="st4" points="589,137.4 581.4,127 581,134.8 				"/>
				<polygon class="st5" points="611.7,149 599.4,145 604.3,151.8 				"/>
				<polygon class="st5" points="574.8,124.8 562.6,128.8 570.5,131.4 				"/>
				<polygon class="st2" points="577.3,128.3 574.4,132.7 577.1,133.6 				"/>
				<polygon class="st4" points="619.8,207.6 627.3,197.1 619.8,199.2 				"/>
				<polygon class="st2" points="579.7,222.1 602.9,230.8 605.8,226.7 590.4,207.4 579.4,210.6 				"/>
				<polygon class="st4" points="615.8,167.5 615.8,154.6 610.9,160.7 				"/>
				<polygon class="st5" points="615.8,232.8 615.8,219.9 610.9,226.6 				"/>
				<polygon class="st5" points="627.3,190.2 619.8,179.8 619.8,188.1 				"/>
				<polygon class="st4" points="575.6,220.5 575.3,207.7 584.3,205 584.1,204.9 587.7,203.9 579.9,193.7 587.7,183.5 584.1,182.5 
					584.3,182.4 575.3,179.7 575.6,170.3 575.4,170.5 575.6,166.8 563.4,171.1 556.1,160.5 554.1,163.5 554.1,163.3 548.7,171.1 
					536.6,166.8 536.8,170.5 536.6,170.3 536.9,179.7 524.5,183.4 526.8,186.3 526.6,186.2 532.3,193.7 524.5,203.9 528,204.9 
					527.8,205 536.9,207.7 536.6,217.1 536.8,216.9 536.6,220.6 548.7,216.3 554.1,224 554.1,223.8 556.1,226.9 563.4,216.3 
					572.3,219.4 572.2,219.2 				"/>
				<polygon class="st3" points="591.9,202.8 615.8,196.2 615.8,191.2 591.9,184.6 584.9,193.7 				"/>
				<polygon class="st5" points="484.8,197.1 492.4,207.6 492.4,199.2 				"/>
				<polygon class="st4" points="492.4,179.8 484.8,190.2 492.4,188.1 				"/>
				<polygon class="st4" points="496.4,219.9 496.4,232.8 501.3,226.6 				"/>
				<polygon class="st5" points="496.4,154.6 496.4,167.5 501.3,160.7 				"/>
				<polygon class="st5" points="537.3,262.5 549.6,258.5 541.7,256 				"/>
				<polygon class="st3" points="534.9,259 537.7,254.7 535.1,253.8 				"/>
				<polygon class="st4" points="523.2,249.9 530.8,260.4 531.1,252.5 				"/>
				<polygon class="st4" points="574.8,262.5 562.6,258.5 570.5,256 				"/>
				<polygon class="st2" points="577.3,259 574.4,254.7 577.1,253.8 				"/>
				<polygon class="st5" points="589,250 581.4,260.4 581,252.5 				"/>
				<polygon class="st4" points="549.6,128.8 537.3,124.8 541.7,131.4 				"/>
				<polygon class="st5" points="500.5,238.4 512.7,242.3 507.8,235.6 				"/>
				<polygon class="st2" points="500.5,153.3 503.8,157.4 505.4,155.1 				"/>
				<polygon class="st3" points="534.9,128.3 535.1,133.6 537.7,132.7 				"/>
				<polygon class="st3" points="487.4,193.7 492.4,195.1 492.4,192.3 				"/>
				<polygon class="st5" points="530.8,127 523.2,137.4 531.1,134.8 				"/>
				<polygon class="st4" points="512.7,145 500.5,149 507.8,151.8 				"/>
				<polygon class="st2" points="500.5,234.1 505.4,232.2 503.8,230 				"/>
				<polygon class="st6" points="558.1,255.8 568.2,252.5 558.1,237.1 				"/>
				<polygon class="st7" points="615.8,187 615.8,176.4 598,182.2 				"/>
				<polygon class="st6" points="614.5,172.6 608.3,164 596.8,178.4 				"/>
				<polygon class="st6" points="496.4,176.4 496.4,187 514.1,182.2 				"/>
				<polygon class="st7" points="503.9,164 497.7,172.6 515.4,178.4 				"/>
				<polygon class="st7" points="608.3,223.4 614.5,214.8 596.8,209 				"/>
				<polygon class="st7" points="496.4,200.3 496.4,211 514.1,205.2 				"/>
				<polygon class="st6" points="615.8,211 615.8,200.3 598,205.2 				"/>
				<polygon class="st6" points="554.1,131.6 544,134.9 554.1,150.2 				"/>
				<polygon class="st6" points="497.7,214.8 503.9,223.4 515.4,209 				"/>
				<polygon class="st6" points="518,144.6 511.7,153.2 528.9,159.7 				"/>
				<polygon class="st6" points="591,142.3 580.8,139 580,157.3 				"/>
				<polygon class="st7" points="568.2,134.9 558.1,131.6 558.1,150.2 				"/>
				<polygon class="st7" points="531.3,139 521.2,142.3 532.2,157.3 				"/>
				<polygon class="st7" points="600.5,153.2 594.2,144.6 583.3,159.7 				"/>
				<polygon class="st6" points="521.2,245.1 531.3,248.4 532.2,230 				"/>
				<polygon class="st7" points="544,252.5 554.1,255.8 554.1,237.1 				"/>
				<polygon class="st3" points="532.5,165.3 509.3,156.6 506.3,160.6 521.8,180 532.8,176.8 				"/>
				<polygon class="st2" points="553.7,156.9 540,136.2 535.3,137.7 536.4,162.5 547.2,166.3 				"/>
				<polygon class="st3" points="575.8,162.5 576.9,137.7 572.2,136.2 558.5,156.9 565,166.3 				"/>
				<polygon class="st4" points="599.4,242.3 611.7,238.4 604.3,235.6 				"/>
				<polygon class="st7" points="511.7,234.1 518,242.7 528.9,227.7 				"/>
				<polygon class="st2" points="536.4,224.9 535.3,249.7 540,251.2 553.7,230.5 547.2,221.1 				"/>
				<polygon class="st7" points="591,245.1 580.8,248.4 580,230 				"/>
				<polygon class="st6" points="568.2,252.5 558.1,255.8 558.1,237.1 				"/>
				<polygon class="st3" points="575.8,224.9 576.9,249.7 572.2,251.2 558.5,230.5 565,221.1 				"/>
				<polygon class="st2" points="520.3,184.6 496.4,191.2 496.4,196.2 520.3,202.8 527.3,193.7 				"/>
				<polygon class="st6" points="594.2,242.7 600.5,234.1 583.3,227.7 				"/>
				<polygon class="st3" points="521.8,207.4 506.3,226.7 509.3,230.8 532.5,222.1 532.8,210.6 				"/>
				<polygon class="st2" points="590.4,180 605.8,160.6 602.9,156.6 579.7,165.3 579.4,176.8 				"/>
				<polygon class="st4" points="495.8,262 495.4,277.2 509.8,272.1 510.2,256.9 				"/>
				<polygon class="st3" points="619.8,235.8 635.5,231.1 623.7,215.6 642.4,210.1 632.4,197 619.8,214.4 				"/>
				<polygon class="st7" points="645,173.9 654.2,161.8 639.7,157.5 630.4,169.5 				"/>
				<polygon class="st4" points="472.5,157.5 457.9,161.8 467.2,173.9 481.8,169.5 				"/>
				<polygon class="st4" points="602.4,272.1 616.7,277.2 616.4,262 602,256.9 				"/>
				<polygon class="st2" points="632.4,190.3 642.4,177.3 623.7,171.7 635.5,156.2 619.8,151.6 619.8,173 				"/>
				<polygon class="st3" points="479.8,197 469.8,210.1 488.5,215.6 476.6,231.1 492.4,235.8 492.4,214.4 				"/>
				<polygon class="st2" points="496.3,241.2 495.9,257.7 514.3,251.2 513.8,270.7 529.3,265.2 516.7,247.8 				"/>
				<polygon class="st3" points="529.3,122.2 513.8,116.7 514.3,136.2 495.9,129.7 496.3,146.1 516.7,139.5 				"/>
				<polygon class="st7" points="639.7,229.9 654.2,225.6 645,213.5 630.4,217.8 				"/>
				<polygon class="st2" points="582.8,265.2 598.4,270.7 597.9,251.2 616.3,257.7 615.8,241.2 595.4,247.8 				"/>
				<polygon class="st7" points="509.8,115.3 495.4,110.2 495.8,125.4 510.2,130.5 				"/>
				<polygon class="st7" points="547.5,284.4 556.1,296.9 564.7,284.4 556.1,271.8 				"/>
				<polygon class="st4" points="616.4,125.4 616.7,110.2 602.4,115.3 602,130.5 				"/>
				<polygon class="st3" points="556.1,260.6 535.7,267.3 545,280.8 556.1,264.8 567.1,280.8 576.5,267.3 				"/>
				<polygon class="st7" points="564.7,103 556.1,90.5 547.5,103 556.1,115.5 				"/>
				<polygon class="st2" points="492.4,151.6 476.6,156.2 488.5,171.7 469.8,177.3 479.8,190.3 492.4,173 				"/>
				<polygon class="st2" points="576.5,120.1 567.1,106.5 556.1,122.6 545,106.5 535.7,120.1 556.1,126.7 				"/>
				<polygon class="st3" points="615.8,146.1 616.3,129.7 597.9,136.2 598.4,116.7 582.8,122.2 595.4,139.5 				"/>
				<polygon class="st7" points="467.2,213.5 457.9,225.6 472.5,229.9 481.8,217.8 				"/>
			</g>
		</g>
		<g style="clip-path:url(#SVGID_00000019676962382652618090000010202556200869118341_);">
			<g>
				<polygon class="st5" points="532.4,351.7 529.8,351.7 527.9,349.8 526,351.7 523.4,351.7 523.4,354.4 521.5,356.2 523.4,358.1 
					523.4,360.7 526,360.7 527.9,362.6 529.8,360.7 532.4,360.7 532.4,358.1 534.3,356.2 532.4,354.4 				"/>
				<polygon class="st2" points="514.9,329.9 515.7,340.2 519.1,340.2 				"/>
				<polygon class="st2" points="537.3,328.4 530.6,336.2 533,338.6 				"/>
				<path class="st4" d="M533.7,344.2h-0.8l-0.6-0.6c0,0,0,0,0,0l-4.4-4.4l-4.4,4.4c0,0,0,0,0,0l-0.6,0.6h-7.1v6.2c0,0,0,0,0,0v0.8
					l-0.6,0.6c0,0,0,0,0,0l-4.4,4.4l5,5v0.8c0,0,0,0,0,0v6.2h6.2c0,0,0,0,0,0h0.8l0.6,0.6c0,0,0,0,0,0l4.4,4.4l4.4-4.4c0,0,0,0,0,0
					l0.6-0.6h0.8c0,0,0,0,0,0h6.2v-6.2c0,0,0,0,0,0v-0.8l0.6-0.6c0,0,0,0,0,0l4.4-4.4l-4.4-4.4c0,0,0,0,0,0l-0.6-0.6v-0.8
					c0,0,0,0,0,0v-6.2H533.7C533.7,344.2,533.7,344.2,533.7,344.2C533.7,344.2,533.7,344.2,533.7,344.2z M540,356.2l-3.5,3.5v5h-5
					l-3.5,3.5l-3.5-3.5h-5v-5l-3.5-3.5l3.5-3.5v-5h5l3.5-3.5l3.5,3.5h5v5L540,356.2z"/>
				<polygon class="st3" points="518.6,328.4 522.8,338.6 525.2,336.2 				"/>
				<polygon class="st2" points="489.1,342.8 475.7,356.2 489.1,369.6 505,356.2 				"/>
				<polygon class="st7" points="498.6,319.3 491,319.3 491,326.9 499.3,327.6 				"/>
				<polygon class="st4" points="510,319.3 502.6,319.3 503.6,331.9 491,330.9 491,338.3 511.7,340 				"/>
				<polygon class="st7" points="564.8,326.9 564.8,319.3 557.3,319.3 556.6,327.6 				"/>
				<polygon class="st3" points="541.3,317.4 527.9,304 514.5,317.4 527.9,333.3 				"/>
				<polygon class="st2" points="544,347.4 554.2,343.2 544,344 				"/>
				<polygon class="st3" points="541,329.9 536.7,340.2 540.1,340.2 				"/>
				<polygon class="st3" points="554.2,369.3 544,365 544,368.4 				"/>
				<polygon class="st3" points="537.3,384.1 533,373.8 530.6,376.2 				"/>
				<polygon class="st2" points="541,382.5 540.1,372.3 536.7,372.3 				"/>
				<polygon class="st2" points="555.7,365.6 547.9,358.9 545.5,361.3 				"/>
				<polygon class="st3" points="501.6,343.2 511.9,347.4 511.9,344 				"/>
				<polygon class="st3" points="555.7,346.9 545.5,351.1 547.9,353.5 				"/>
				<polygon class="st2" points="500.1,346.9 507.9,353.5 510.3,351.1 				"/>
				<polygon class="st3" points="500.1,365.6 510.3,361.3 507.9,358.9 				"/>
				<polygon class="st3" points="514.9,382.5 519.1,372.3 515.7,372.3 				"/>
				<polygon class="st2" points="518.6,384.1 525.2,376.2 522.8,373.8 				"/>
				<polygon class="st2" points="501.6,369.3 511.9,368.4 511.9,365 				"/>
				<polygon class="st4" points="564.8,338.3 564.8,330.9 552.2,331.9 553.3,319.3 545.9,319.3 544.2,340 				"/>
				<polygon class="st4" points="491,374.2 491,381.6 503.6,380.5 502.6,393.1 510,393.1 511.7,372.5 				"/>
				<polygon class="st3" points="514.5,395 527.9,408.4 541.3,395 527.9,379.2 				"/>
				<polygon class="st7" points="491,385.6 491,393.1 498.6,393.1 499.3,384.9 				"/>
				<polygon class="st2" points="566.7,342.8 550.9,356.2 566.7,369.6 580.1,356.2 				"/>
				<polygon class="st4" points="545.9,393.1 553.3,393.1 552.2,380.5 564.8,381.6 564.8,374.2 544.2,372.5 				"/>
				<polygon class="st7" points="557.3,393.1 564.8,393.1 564.8,385.6 556.6,384.9 				"/>
			</g>
		</g>
		<g style="clip-path:url(#SVGID_00000019676962382652618090000010202556200869118341_);">
			<g>
				<polygon class="st5" points="732.8,285.3 730.2,285.3 728.3,283.4 726.4,285.3 723.8,285.3 723.8,288 721.9,289.8 723.8,291.7 
					723.8,294.3 726.4,294.3 728.3,296.2 730.2,294.3 732.8,294.3 732.8,291.7 734.7,289.8 732.8,288 				"/>
				<polygon class="st2" points="715.2,263.5 716.1,273.8 719.5,273.8 				"/>
				<polygon class="st2" points="737.7,262 731,269.9 733.4,272.2 				"/>
				<path class="st4" d="M734.1,277.8h-0.8l-0.6-0.6c0,0,0,0,0,0l-4.4-4.4l-4.4,4.4c0,0,0,0,0,0l-0.6,0.6h-7.1v6.2c0,0,0,0,0,0v0.8
					l-0.6,0.6c0,0,0,0,0,0l-4.4,4.4l5,5v0.8c0,0,0,0,0,0v6.2h6.2c0,0,0,0,0,0h0.8l0.6,0.6c0,0,0,0,0,0l4.4,4.4l4.4-4.4c0,0,0,0,0,0
					l0.6-0.6h0.8c0,0,0,0,0,0h6.2v-6.2c0,0,0,0,0,0v-0.8l0.6-0.6c0,0,0,0,0,0l4.4-4.4l-4.4-4.4c0,0,0,0,0,0l-0.6-0.6V284
					c0,0,0,0,0,0v-6.2H734.1C734.1,277.8,734.1,277.8,734.1,277.8C734.1,277.8,734.1,277.8,734.1,277.8z M740.3,289.8l-3.5,3.5v5h-5
					l-3.5,3.5l-3.5-3.5h-5v-5l-3.5-3.5l3.5-3.5v-5h5l3.5-3.5l3.5,3.5h5v5L740.3,289.8z"/>
				<polygon class="st3" points="718.9,262 723.2,272.2 725.6,269.8 				"/>
				<polygon class="st2" points="689.5,276.4 676.1,289.8 689.5,303.2 705.3,289.8 				"/>
				<polygon class="st7" points="699,252.9 691.4,252.9 691.4,260.5 699.6,261.2 				"/>
				<polygon class="st4" points="710.3,252.9 703,252.9 704,265.5 691.4,264.5 691.4,271.9 712.1,273.6 				"/>
				<polygon class="st7" points="765.2,260.5 765.2,252.9 757.6,252.9 757,261.2 				"/>
				<polygon class="st3" points="741.7,251 728.3,237.6 714.9,251 728.3,266.9 				"/>
				<polygon class="st2" points="744.3,281 754.6,276.8 744.3,277.6 				"/>
				<polygon class="st3" points="741.4,263.5 737.1,273.8 740.5,273.8 				"/>
				<polygon class="st3" points="754.6,302.9 744.3,298.6 744.3,302 				"/>
				<polygon class="st3" points="737.7,317.7 733.4,307.4 731,309.8 				"/>
				<polygon class="st2" points="741.4,316.1 740.5,305.9 737.1,305.9 				"/>
				<polygon class="st2" points="756.1,299.2 748.3,292.5 745.9,294.9 				"/>
				<polygon class="st3" points="702,276.8 712.3,281 712.3,277.6 				"/>
				<polygon class="st3" points="756.1,280.5 745.9,284.7 748.3,287.1 				"/>
				<polygon class="st2" points="700.5,280.5 708.3,287.1 710.7,284.7 				"/>
				<polygon class="st3" points="700.5,299.2 710.7,294.9 708.3,292.5 				"/>
				<polygon class="st3" points="715.2,316.1 719.5,305.9 716.1,305.9 				"/>
				<polygon class="st2" points="718.9,317.7 725.6,309.8 723.2,307.4 				"/>
				<polygon class="st2" points="702,302.9 712.3,302 712.3,298.6 				"/>
				<polygon class="st4" points="765.2,271.9 765.2,264.5 752.6,265.5 753.6,252.9 746.3,252.9 744.5,273.6 				"/>
				<polygon class="st4" points="691.4,307.8 691.4,315.2 704,314.1 703,326.7 710.3,326.7 712.1,306.1 				"/>
				<polygon class="st3" points="714.9,328.6 728.3,342 741.7,328.6 728.3,312.8 				"/>
				<polygon class="st7" points="691.4,319.2 691.4,326.7 699,326.7 699.6,318.5 				"/>
				<polygon class="st2" points="767.1,276.4 751.3,289.8 767.1,303.2 780.5,289.8 				"/>
				<polygon class="st4" points="746.3,326.7 753.6,326.7 752.6,314.1 765.2,315.2 765.2,307.8 744.5,306.1 				"/>
				<polygon class="st7" points="757.6,326.7 765.2,326.7 765.2,319.2 757,318.5 				"/>
			</g>
		</g>
		<g style="clip-path:url(#SVGID_00000019676962382652618090000010202556200869118341_);">
			<g>
				<polygon class="st5" points="151.7,-30.4 149.1,-30.4 147.2,-32.2 145.3,-30.4 142.7,-30.4 142.7,-27.7 140.8,-25.9 142.7,-24 
					142.7,-21.3 145.3,-21.3 147.2,-19.5 149.1,-21.3 151.7,-21.3 151.7,-24 153.6,-25.9 151.7,-27.7 				"/>
				<polygon class="st2" points="134.1,-52.2 135,-41.9 138.4,-41.9 				"/>
				<polygon class="st2" points="156.5,-53.7 149.9,-45.8 152.3,-43.4 				"/>
				<path class="st4" d="M153-37.9h-0.8l-0.6-0.6c0,0,0,0,0,0l-4.4-4.4l-4.4,4.4c0,0,0,0,0,0l-0.6,0.6h-7.1v6.2c0,0,0,0,0,0v0.8
					l-0.6,0.6c0,0,0,0,0,0l-4.4,4.4l5,5v0.8c0,0,0,0,0,0v6.2h6.2c0,0,0,0,0,0h0.8l0.6,0.6c0,0,0,0,0,0l4.4,4.4l4.4-4.4c0,0,0,0,0,0
					l0.6-0.6h0.8c0,0,0,0,0,0h6.2V-20c0,0,0,0,0,0v-0.8l0.6-0.6c0,0,0,0,0,0l4.4-4.4l-4.4-4.4c0,0,0,0,0,0l-0.6-0.6v-0.8
					c0,0,0,0,0,0v-6.2H153C153-37.9,153-37.9,153-37.9C153-37.9,153-37.9,153-37.9z M159.2-25.9l-3.5,3.5v5h-5l-3.5,3.5l-3.5-3.5h-5
					v-5l-3.5-3.5l3.5-3.5v-5h5l3.5-3.5l3.5,3.5h5v5L159.2-25.9z"/>
				<polygon class="st3" points="137.8,-53.7 142.1,-43.4 144.5,-45.8 				"/>
				<polygon class="st2" points="108.4,-39.3 95,-25.9 108.4,-12.5 124.2,-25.9 				"/>
				<polygon class="st7" points="117.8,-62.8 110.3,-62.8 110.3,-55.2 118.5,-54.5 				"/>
				<polygon class="st4" points="129.2,-62.8 121.9,-62.8 122.9,-50.1 110.3,-51.2 110.3,-43.8 130.9,-42.1 				"/>
				<polygon class="st7" points="184.1,-55.2 184.1,-62.8 176.5,-62.8 175.8,-54.5 				"/>
				<polygon class="st3" points="160.6,-64.6 147.2,-78 133.8,-64.6 147.2,-48.8 				"/>
				<polygon class="st2" points="163.2,-34.7 173.5,-38.9 163.2,-38.1 				"/>
				<polygon class="st3" points="160.2,-52.2 156,-41.9 159.4,-41.9 				"/>
				<polygon class="st3" points="173.5,-12.8 163.2,-17 163.2,-13.7 				"/>
				<polygon class="st3" points="156.5,2 152.3,-8.3 149.9,-5.9 				"/>
				<polygon class="st2" points="160.2,0.4 159.4,-9.8 156,-9.8 				"/>
				<polygon class="st2" points="175,-16.5 167.2,-23.1 164.8,-20.7 				"/>
				<polygon class="st3" points="120.9,-38.9 131.1,-34.7 131.1,-38.1 				"/>
				<polygon class="st3" points="175,-35.2 164.8,-31 167.2,-28.6 				"/>
				<polygon class="st2" points="119.4,-35.2 127.2,-28.6 129.6,-31 				"/>
				<polygon class="st3" points="119.4,-16.5 129.6,-20.7 127.2,-23.1 				"/>
				<polygon class="st3" points="134.1,0.4 138.4,-9.8 135,-9.8 				"/>
				<polygon class="st2" points="137.8,2 144.5,-5.9 142.1,-8.3 				"/>
				<polygon class="st2" points="120.9,-12.8 131.1,-13.7 131.1,-17 				"/>
				<polygon class="st4" points="184.1,-43.8 184.1,-51.2 171.5,-50.1 172.5,-62.8 165.1,-62.8 163.4,-42.1 				"/>
				<polygon class="st4" points="110.3,-7.9 110.3,-0.5 122.9,-1.6 121.9,11 129.2,11 130.9,-9.6 				"/>
				<polygon class="st3" points="133.8,12.9 147.2,26.3 160.6,12.9 147.2,-2.9 				"/>
				<polygon class="st7" points="110.3,3.5 110.3,11 117.8,11 118.5,2.8 				"/>
				<polygon class="st2" points="186,-39.3 170.1,-25.9 186,-12.5 199.4,-25.9 				"/>
				<polygon class="st4" points="165.1,11 172.5,11 171.5,-1.6 184.1,-0.5 184.1,-7.9 163.4,-9.6 				"/>
				<polygon class="st7" points="176.5,11 184.1,11 184.1,3.5 175.8,2.8 				"/>
			</g>
		</g>
		<g style="clip-path:url(#SVGID_00000019676962382652618090000010202556200869118341_);">
			<g>
				<polygon class="st2" points="373.7,57.6 368.7,56.2 368.7,59 				"/>
				<polygon class="st3" points="360.6,17.2 355.7,19.1 357.4,21.3 				"/>
				<polygon class="st3" points="360.6,98 357.4,93.9 355.7,96.2 				"/>
				<polygon class="st4" points="337.9,1.4 330.3,-9.1 330,-1.2 				"/>
				<polygon class="st5" points="360.6,13 348.4,9 353.3,15.7 				"/>
				<polygon class="st5" points="323.8,-11.2 311.5,-7.2 319.4,-4.6 				"/>
				<polygon class="st2" points="326.3,-7.7 323.4,-3.4 326,-2.5 				"/>
				<polygon class="st4" points="368.7,71.5 376.3,61.1 368.7,63.2 				"/>
				<polygon class="st2" points="328.6,86 351.8,94.7 354.8,90.7 339.3,71.3 328.3,74.6 				"/>
				<polygon class="st4" points="364.7,31.4 364.7,18.5 359.8,24.7 				"/>
				<polygon class="st5" points="364.7,96.7 364.7,83.8 359.8,90.6 				"/>
				<polygon class="st5" points="376.3,54.2 368.7,43.7 368.7,52.1 				"/>
				<polygon class="st4" points="324.6,84.5 324.3,71.6 333.3,68.9 333.1,68.8 336.6,67.9 328.8,57.6 336.6,47.4 333.1,46.4 
					333.3,46.3 324.3,43.7 324.5,34.2 324.4,34.4 324.5,30.7 312.4,35 305.1,24.4 303,27.5 303,27.3 297.7,35 285.5,30.7 
					285.7,34.4 285.6,34.2 285.8,43.7 273.4,47.3 275.7,50.2 275.5,50.2 281.3,57.6 273.4,67.9 277,68.8 276.8,68.9 285.8,71.6 
					285.6,81 285.7,80.8 285.5,84.5 297.7,80.2 303,88 303,87.8 305.1,90.8 312.4,80.2 321.3,83.4 321.1,83.2 				"/>
				<polygon class="st3" points="340.8,66.7 364.7,60.1 364.7,55.1 340.8,48.5 333.8,57.6 				"/>
				<polygon class="st5" points="233.8,61.1 241.4,71.5 241.4,63.2 				"/>
				<polygon class="st4" points="241.4,43.7 233.8,54.2 241.4,52.1 				"/>
				<polygon class="st4" points="245.4,83.8 245.4,96.7 250.3,90.6 				"/>
				<polygon class="st5" points="245.4,18.5 245.4,31.4 250.3,24.7 				"/>
				<polygon class="st5" points="286.3,126.5 298.6,122.5 290.6,119.9 				"/>
				<polygon class="st3" points="283.8,123 286.7,118.6 284,117.8 				"/>
				<polygon class="st4" points="272.1,113.9 279.7,124.3 280.1,116.5 				"/>
				<polygon class="st4" points="323.8,126.5 311.5,122.5 319.4,119.9 				"/>
				<polygon class="st2" points="326.3,123 323.4,118.6 326,117.8 				"/>
				<polygon class="st5" points="337.9,113.9 330.3,124.3 330,116.5 				"/>
				<polygon class="st4" points="298.6,-7.2 286.3,-11.2 290.6,-4.6 				"/>
				<polygon class="st5" points="249.4,102.3 261.7,106.3 256.8,99.5 				"/>
				<polygon class="st2" points="249.4,17.2 252.7,21.3 254.3,19.1 				"/>
				<polygon class="st3" points="283.8,-7.7 284,-2.5 286.7,-3.4 				"/>
				<polygon class="st3" points="236.3,57.6 241.4,59 241.4,56.2 				"/>
				<polygon class="st5" points="279.7,-9.1 272.1,1.4 280.1,-1.2 				"/>
				<polygon class="st4" points="261.7,9 249.4,13 256.8,15.7 				"/>
				<polygon class="st2" points="249.4,98 254.3,96.2 252.7,93.9 				"/>
				<polygon class="st6" points="307,119.7 317.2,116.4 307,101.1 				"/>
				<polygon class="st7" points="364.7,51 364.7,40.3 347,46.1 				"/>
				<polygon class="st6" points="363.5,36.5 357.2,27.9 345.7,42.3 				"/>
				<polygon class="st6" points="245.4,40.3 245.4,51 263.1,46.1 				"/>
				<polygon class="st7" points="252.8,27.9 246.6,36.5 264.3,42.3 				"/>
				<polygon class="st7" points="357.2,87.3 363.5,78.7 345.7,73 				"/>
				<polygon class="st7" points="245.4,64.3 245.4,74.9 263.1,69.2 				"/>
				<polygon class="st6" points="364.7,74.9 364.7,64.3 347,69.2 				"/>
				<polygon class="st6" points="303,-4.5 292.9,-1.2 303,14.2 				"/>
				<polygon class="st6" points="246.6,78.7 252.8,87.3 264.3,73 				"/>
				<polygon class="st6" points="266.9,8.6 260.7,17.2 277.9,23.6 				"/>
				<polygon class="st6" points="339.9,6.2 329.8,2.9 329,21.3 				"/>
				<polygon class="st7" points="317.2,-1.2 307,-4.5 307,14.2 				"/>
				<polygon class="st7" points="280.3,2.9 270.1,6.2 281.1,21.3 				"/>
				<polygon class="st7" points="349.4,17.2 343.1,8.6 332.2,23.6 				"/>
				<polygon class="st6" points="270.1,109 280.3,112.3 281.1,94 				"/>
				<polygon class="st7" points="292.9,116.4 303,119.7 303,101.1 				"/>
				<polygon class="st3" points="281.4,29.3 258.2,20.5 255.3,24.6 270.8,44 281.7,40.7 				"/>
				<polygon class="st2" points="302.6,20.8 289,0.1 284.2,1.6 285.3,26.4 296.1,30.2 				"/>
				<polygon class="st3" points="324.7,26.4 325.8,1.6 321.1,0.1 307.4,20.8 313.9,30.2 				"/>
				<polygon class="st4" points="348.4,106.3 360.6,102.3 353.3,99.5 				"/>
				<polygon class="st7" points="260.7,98.1 266.9,106.7 277.9,91.6 				"/>
				<polygon class="st2" points="285.3,88.8 284.2,113.6 289,115.2 302.6,94.5 296.1,85 				"/>
				<polygon class="st7" points="339.9,109 329.8,112.3 329,94 				"/>
				<polygon class="st6" points="317.2,116.4 307,119.7 307,101.1 				"/>
				<polygon class="st3" points="324.7,88.8 325.8,113.6 321.1,115.2 307.4,94.5 313.9,85 				"/>
				<polygon class="st2" points="269.3,48.5 245.4,55.1 245.4,60.1 269.3,66.7 276.2,57.6 				"/>
				<polygon class="st6" points="343.1,106.7 349.4,98.1 332.2,91.6 				"/>
				<polygon class="st3" points="270.8,71.3 255.3,90.7 258.2,94.7 281.4,86 281.7,74.6 				"/>
				<polygon class="st2" points="339.3,44 354.8,24.6 351.8,20.5 328.6,29.3 328.3,40.7 				"/>
				<polygon class="st4" points="244.8,125.9 244.4,141.1 258.7,136.1 259.1,120.8 				"/>
				<polygon class="st3" points="368.7,99.8 384.5,95.1 372.6,79.6 391.3,74 381.3,61 368.7,78.3 				"/>
				<polygon class="st7" points="393.9,37.8 403.2,25.7 388.6,21.4 379.3,33.5 				"/>
				<polygon class="st4" points="221.5,21.4 206.9,25.7 216.1,37.8 230.7,33.5 				"/>
				<polygon class="st4" points="351.3,136.1 365.7,141.1 365.3,125.9 351,120.8 				"/>
				<polygon class="st2" points="381.3,54.3 391.3,41.2 372.6,35.7 384.5,20.2 368.7,15.5 368.7,36.9 				"/>
				<polygon class="st3" points="228.8,61 218.7,74 237.4,79.6 225.6,95.1 241.4,99.8 241.4,78.3 				"/>
				<polygon class="st2" points="245.3,105.2 244.9,121.6 263.2,115.1 262.7,134.6 278.3,129.1 265.7,111.8 				"/>
				<polygon class="st3" points="278.3,-13.9 262.7,-19.4 263.2,0.1 244.9,-6.4 245.3,10.1 265.7,3.5 				"/>
				<polygon class="st7" points="388.6,93.9 403.2,89.5 393.9,77.4 379.3,81.8 				"/>
				<polygon class="st2" points="331.8,129.1 347.3,134.6 346.8,115.1 365.2,121.6 364.8,105.2 344.4,111.8 				"/>
				<polygon class="st7" points="258.7,-20.8 244.4,-25.9 244.8,-10.7 259.1,-5.6 				"/>
				<polygon class="st7" points="296.4,148.3 305,160.8 313.7,148.3 305,135.8 				"/>
				<polygon class="st4" points="365.3,-10.7 365.7,-25.9 351.3,-20.8 351,-5.6 				"/>
				<polygon class="st3" points="305,124.6 284.6,131.2 294,144.8 305,128.7 316.1,144.8 325.4,131.2 				"/>
				<polygon class="st7" points="313.7,-33 305,-45.6 296.4,-33 305,-20.5 				"/>
				<polygon class="st2" points="241.4,15.5 225.6,20.2 237.4,35.7 218.7,41.2 228.8,54.3 241.4,36.9 				"/>
				<polygon class="st2" points="325.4,-15.9 316.1,-29.5 305,-13.5 294,-29.5 284.6,-15.9 305,-9.3 				"/>
				<polygon class="st3" points="364.8,10.1 365.2,-6.4 346.8,0.1 347.3,-19.4 331.8,-13.9 344.4,3.5 				"/>
				<polygon class="st7" points="216.1,77.4 206.9,89.5 221.5,93.9 230.7,81.8 				"/>
			</g>
		</g>
		<g style="clip-path:url(#SVGID_00000019676962382652618090000010202556200869118341_);">
			<g>
				<polygon class="st5" points="482.3,35.8 479.6,35.8 477.8,34 475.9,35.8 473.3,35.8 473.3,38.5 471.4,40.3 473.3,42.2 
					473.3,44.9 475.9,44.9 477.8,46.7 479.6,44.9 482.3,44.9 482.3,42.2 484.2,40.3 482.3,38.5 				"/>
				<polygon class="st2" points="464.7,14 465.6,24.3 469,24.3 				"/>
				<polygon class="st2" points="487.1,12.5 480.5,20.4 482.9,22.8 				"/>
				<path class="st4" d="M483.6,28.3h-0.8l-0.6-0.6c0,0,0,0,0,0l-4.4-4.4l-4.4,4.4c0,0,0,0,0,0l-0.6,0.6h-7.1v6.2c0,0,0,0,0,0v0.8
					l-0.6,0.6c0,0,0,0,0,0l-4.4,4.4l5,5v0.8c0,0,0,0,0,0v6.2h6.2c0,0,0,0,0,0h0.8l0.6,0.6c0,0,0,0,0,0l4.4,4.4l4.4-4.4c0,0,0,0,0,0
					l0.6-0.6h0.8c0,0,0,0,0,0h6.2v-6.2c0,0,0,0,0,0v-0.8l0.6-0.6c0,0,0,0,0,0l4.4-4.4l-4.4-4.4c0,0,0,0,0,0l-0.6-0.6v-0.8
					c0,0,0,0,0,0v-6.2H483.6C483.6,28.3,483.6,28.3,483.6,28.3C483.6,28.3,483.6,28.3,483.6,28.3z M489.8,40.3l-3.5,3.5v5h-5
					l-3.5,3.5l-3.5-3.5h-5v-5l-3.5-3.5l3.5-3.5v-5h5l3.5-3.5l3.5,3.5h5v5L489.8,40.3z"/>
				<polygon class="st3" points="468.4,12.5 472.7,22.8 475.1,20.4 				"/>
				<polygon class="st2" points="439,26.9 425.6,40.3 439,53.7 454.8,40.3 				"/>
				<polygon class="st7" points="448.4,3.4 440.9,3.4 440.9,11 449.1,11.7 				"/>
				<polygon class="st4" points="459.8,3.4 452.4,3.4 453.5,16.1 440.9,15 440.9,22.4 461.5,24.1 				"/>
				<polygon class="st7" points="514.7,11 514.7,3.4 507.1,3.4 506.4,11.7 				"/>
				<polygon class="st3" points="491.2,1.6 477.8,-11.8 464.4,1.6 477.8,17.4 				"/>
				<polygon class="st2" points="493.8,31.5 504.1,27.3 493.8,28.1 				"/>
				<polygon class="st3" points="490.8,14 486.6,24.3 490,24.3 				"/>
				<polygon class="st3" points="504.1,53.4 493.8,49.2 493.8,52.6 				"/>
				<polygon class="st3" points="487.1,68.2 482.9,57.9 480.5,60.3 				"/>
				<polygon class="st2" points="490.8,66.6 490,56.4 486.6,56.4 				"/>
				<polygon class="st2" points="505.6,49.7 497.8,43.1 495.4,45.5 				"/>
				<polygon class="st3" points="451.5,27.3 461.7,31.5 461.7,28.1 				"/>
				<polygon class="st3" points="505.6,31 495.4,35.2 497.8,37.6 				"/>
				<polygon class="st2" points="449.9,31 457.8,37.6 460.2,35.2 				"/>
				<polygon class="st3" points="449.9,49.7 460.2,45.5 457.8,43.1 				"/>
				<polygon class="st3" points="464.7,66.6 469,56.4 465.6,56.4 				"/>
				<polygon class="st2" points="468.4,68.2 475.1,60.3 472.7,57.9 				"/>
				<polygon class="st2" points="451.5,53.4 461.7,52.6 461.7,49.2 				"/>
				<polygon class="st4" points="514.7,22.4 514.7,15 502.1,16.1 503.1,3.4 495.7,3.4 494,24.1 				"/>
				<polygon class="st4" points="440.9,58.3 440.9,65.7 453.5,64.6 452.4,77.2 459.8,77.2 461.5,56.6 				"/>
				<polygon class="st3" points="464.4,79.1 477.8,92.5 491.2,79.1 477.8,63.3 				"/>
				<polygon class="st7" points="440.9,69.7 440.9,77.2 448.4,77.2 449.1,69 				"/>
				<polygon class="st2" points="516.6,26.9 500.7,40.3 516.6,53.7 530,40.3 				"/>
				<polygon class="st4" points="495.7,77.2 503.1,77.2 502.1,64.6 514.7,65.7 514.7,58.3 494,56.6 				"/>
				<polygon class="st7" points="507.1,77.2 514.7,77.2 514.7,69.7 506.4,69 				"/>
			</g>
		</g>
		<g style="clip-path:url(#SVGID_00000019676962382652618090000010202556200869118341_);">
			<g>
				<polygon class="st5" points="390.3,210.5 387.7,210.5 385.8,208.6 384,210.5 381.3,210.5 381.3,213.1 379.5,215 381.3,216.8 
					381.3,219.5 384,219.5 385.8,221.3 387.7,219.5 390.3,219.5 390.3,216.8 392.2,215 390.3,213.1 				"/>
				<polygon class="st2" points="372.8,188.7 373.6,198.9 377,198.9 				"/>
				<polygon class="st2" points="395.2,187.1 388.5,195 390.9,197.4 				"/>
				<path class="st4" d="M391.6,202.9h-0.8l-0.6-0.6c0,0,0,0,0,0l-4.4-4.4l-4.4,4.4c0,0,0,0,0,0l-0.6,0.6h-7.1v6.2c0,0,0,0,0,0v0.8
					l-0.6,0.6c0,0,0,0,0,0l-4.4,4.4l5,5v0.8c0,0,0,0,0,0v6.2h6.2c0,0,0,0,0,0h0.8l0.6,0.6c0,0,0,0,0,0l4.4,4.4l4.4-4.4c0,0,0,0,0,0
					l0.6-0.6h0.8c0,0,0,0,0,0h6.2v-6.2c0,0,0,0,0,0V220l0.6-0.6c0,0,0,0,0,0l4.4-4.4l-4.4-4.4c0,0,0,0,0,0l-0.6-0.6v-0.8
					c0,0,0,0,0,0v-6.2H391.6C391.7,202.9,391.6,202.9,391.6,202.9C391.6,202.9,391.6,202.9,391.6,202.9z M397.9,215l-3.5,3.5v5h-5
					l-3.5,3.5l-3.5-3.5h-5v-5l-3.5-3.5l3.5-3.5v-5h5l3.5-3.5l3.5,3.5h5v5L397.9,215z"/>
				<polygon class="st3" points="376.5,187.1 380.7,197.4 383.1,195 				"/>
				<polygon class="st2" points="347,201.6 333.6,215 347,228.4 362.9,215 				"/>
				<polygon class="st7" points="356.5,178.1 348.9,178.1 348.9,185.6 357.2,186.3 				"/>
				<polygon class="st4" points="367.9,178.1 360.5,178.1 361.5,190.7 348.9,189.6 348.9,197 369.6,198.7 				"/>
				<polygon class="st7" points="422.7,185.6 422.7,178.1 415.2,178.1 414.5,186.3 				"/>
				<polygon class="st3" points="399.2,176.2 385.8,162.8 372.4,176.2 385.8,192 				"/>
				<polygon class="st2" points="401.9,206.2 412.1,201.9 401.9,202.8 				"/>
				<polygon class="st3" points="398.9,188.7 394.6,198.9 398,198.9 				"/>
				<polygon class="st3" points="412.1,228 401.9,223.8 401.9,227.2 				"/>
				<polygon class="st3" points="395.2,242.8 390.9,232.5 388.5,234.9 				"/>
				<polygon class="st2" points="398.9,241.3 398,231 394.6,231 				"/>
				<polygon class="st2" points="413.7,224.3 405.8,217.7 403.4,220.1 				"/>
				<polygon class="st3" points="359.5,201.9 369.8,206.2 369.8,202.8 				"/>
				<polygon class="st3" points="413.7,205.6 403.4,209.9 405.8,212.3 				"/>
				<polygon class="st2" points="358,205.6 365.9,212.3 368.3,209.9 				"/>
				<polygon class="st3" points="358,224.3 368.3,220.1 365.9,217.7 				"/>
				<polygon class="st3" points="372.8,241.3 377,231 373.6,231 				"/>
				<polygon class="st2" points="376.5,242.8 383.1,234.9 380.7,232.5 				"/>
				<polygon class="st2" points="359.5,228 369.8,227.2 369.8,223.8 				"/>
				<polygon class="st4" points="422.7,197 422.7,189.6 410.1,190.7 411.2,178.1 403.8,178.1 402.1,198.7 				"/>
				<polygon class="st4" points="348.9,232.9 348.9,240.3 361.5,239.3 360.5,251.9 367.9,251.9 369.6,231.2 				"/>
				<polygon class="st3" points="372.4,253.8 385.8,267.2 399.2,253.8 385.8,237.9 				"/>
				<polygon class="st7" points="348.9,244.3 348.9,251.9 356.5,251.9 357.2,243.6 				"/>
				<polygon class="st2" points="424.6,201.6 408.8,215 424.6,228.4 438,215 				"/>
				<polygon class="st4" points="403.8,251.9 411.2,251.9 410.1,239.3 422.7,240.3 422.7,232.9 402.1,231.2 				"/>
				<polygon class="st7" points="415.2,251.9 422.7,251.9 422.7,244.3 414.5,243.6 				"/>
			</g>
		</g>
		<g style="clip-path:url(#SVGID_00000019676962382652618090000010202556200869118341_);">
			<g>
				<g>
					<g>
						<path class="st7" d="M630.7,346.4l-7.5-7.5h-10.7v-10.7l-7.5-7.5l7.5-7.5v-10.7h10.7l7.5-7.5l7.5,7.5h10.7v10.7l7.5,7.5
							l-7.5,7.5v10.7h-10.7L630.7,346.4z M615.8,335.6h8.8l6.2,6.2l6.2-6.2h8.8v-8.8l6.2-6.2l-6.2-6.2v-8.8h-8.8l-6.2-6.2l-6.2,6.2
							h-8.8v8.8l-6.2,6.2l6.2,6.2V335.6z"/>
						<polygon class="st3" points="642.6,326.1 647.5,321.2 642.6,316.3 642.6,309.4 635.6,309.4 630.7,304.4 625.8,309.4 
							618.8,309.4 618.8,316.3 613.9,321.2 618.8,326.1 618.8,333.1 625.8,333.1 630.7,338 635.6,333.1 642.6,333.1 						"/>
						<polygon class="st4" points="628.6,326.4 625.5,326.4 625.5,323.4 623.4,321.2 625.5,319.1 625.5,316 628.6,316 630.7,313.9 
							632.8,316 635.9,316 635.9,319.1 638,321.2 635.9,323.4 635.9,326.4 632.8,326.4 630.7,328.5 						"/>
					</g>
				</g>
				<defs>
					<filter id="Adobe_OpacityMaskFilter" filterUnits="userSpaceOnUse" x="604.9" y="294.9" width="51.5" height="51.5">
						
							<feColorMatrix  type="matrix" values="-1 0 0 0 1  0 -1 0 0 1  0 0 -1 0 1  0 0 0 1 0" color-interpolation-filters="sRGB" result="source"/>
					</filter>
				</defs>
				
					<mask maskUnits="userSpaceOnUse" x="604.9" y="294.9" width="51.5" height="51.5" id="SVGID_00000080901725843682685710000007207782628179779502_">
					<g class="st8">
						<image style="overflow:visible;" width="57" height="57" xlink:href="D565B13E.jpg"  transform="matrix(1 0 0 1 602 291.94)">
						</image>
					</g>
				</mask>
				<g style="opacity:0.7;mask:url(#SVGID_00000080901725843682685710000007207782628179779502_);">
					<g>
						<path class="st10" d="M630.7,346.4l-7.5-7.5h-10.7v-10.7l-7.5-7.5l7.5-7.5v-10.7h10.7l7.5-7.5l7.5,7.5h10.7v10.7l7.5,7.5
							l-7.5,7.5v10.7h-10.7L630.7,346.4z M615.8,335.6h8.8l6.2,6.2l6.2-6.2h8.8v-8.8l6.2-6.2l-6.2-6.2v-8.8h-8.8l-6.2-6.2l-6.2,6.2
							h-8.8v8.8l-6.2,6.2l6.2,6.2V335.6z"/>
						<polygon class="st10" points="642.6,326.1 647.5,321.2 642.6,316.3 642.6,309.4 635.6,309.4 630.7,304.4 625.8,309.4 
							618.8,309.4 618.8,316.3 613.9,321.2 618.8,326.1 618.8,333.1 625.8,333.1 630.7,338 635.6,333.1 642.6,333.1 						"/>
						<polygon class="st10" points="628.6,326.4 625.5,326.4 625.5,323.4 623.4,321.2 625.5,319.1 625.5,316 628.6,316 630.7,313.9 
							632.8,316 635.9,316 635.9,319.1 638,321.2 635.9,323.4 635.9,326.4 632.8,326.4 630.7,328.5 						"/>
					</g>
				</g>
			</g>
		</g>
		<g style="clip-path:url(#SVGID_00000019676962382652618090000010202556200869118341_);">
			<g>
				<path class="st7" d="M441.7,333.2l-7.5-7.5h-10.7v-10.7l-7.5-7.5l7.5-7.5v-10.7h10.7l7.5-7.5l7.5,7.5h10.7v10.7l7.5,7.5
					l-7.5,7.5v10.7h-10.7L441.7,333.2z M426.8,322.3h8.8l6.2,6.2l6.2-6.2h8.8v-8.8l6.2-6.2l-6.2-6.2v-8.8h-8.8l-6.2-6.2l-6.2,6.2
					h-8.8v8.8l-6.2,6.2l6.2,6.2V322.3z"/>
				<polygon class="st3" points="453.6,312.9 458.5,307.9 453.6,303 453.6,296.1 446.6,296.1 441.7,291.2 436.8,296.1 429.9,296.1 
					429.9,303 425,307.9 429.9,312.9 429.9,319.8 436.8,319.8 441.7,324.7 446.6,319.8 453.6,319.8 				"/>
				<polygon class="st4" points="439.6,313.1 436.6,313.1 436.6,310.1 434.4,307.9 436.6,305.8 436.6,302.8 439.6,302.8 
					441.7,300.6 443.9,302.8 446.9,302.8 446.9,305.8 449.1,307.9 446.9,310.1 446.9,313.1 443.9,313.1 441.7,315.3 				"/>
			</g>
		</g>
		<g style="clip-path:url(#SVGID_00000019676962382652618090000010202556200869118341_);">
			<g>
				<g>
					<g>
						<path class="st7" d="M425.6,153.9l-7.5-7.5h-10.7v-10.7l-7.5-7.5l7.5-7.5v-10.7H418l7.5-7.5l7.5,7.5h10.7v10.7l7.5,7.5
							l-7.5,7.5v10.7h-10.7L425.6,153.9z M410.6,143.1h8.8l6.2,6.2l6.2-6.2h8.8v-8.8l6.2-6.2l-6.2-6.2v-8.8h-8.8l-6.2-6.2l-6.2,6.2
							h-8.8v8.8l-6.2,6.2l6.2,6.2V143.1z"/>
						<polygon class="st3" points="437.4,133.6 442.4,128.7 437.4,123.8 437.4,116.8 430.5,116.8 425.6,111.9 420.7,116.8 
							413.7,116.8 413.7,123.8 408.8,128.7 413.7,133.6 413.7,140.5 420.7,140.5 425.6,145.4 430.5,140.5 437.4,140.5 						"/>
						<polygon class="st4" points="423.4,133.9 420.4,133.9 420.4,130.8 418.3,128.7 420.4,126.5 420.4,123.5 423.4,123.5 
							425.6,121.4 427.7,123.5 430.8,123.5 430.8,126.5 432.9,128.7 430.8,130.8 430.8,133.9 427.7,133.9 425.6,136 						"/>
					</g>
				</g>
				<defs>
					
						<filter id="Adobe_OpacityMaskFilter_00000087388408275290990580000009721780597903843261_" filterUnits="userSpaceOnUse" x="399.8" y="102.4" width="51.5" height="51.5">
						
							<feColorMatrix  type="matrix" values="-1 0 0 0 1  0 -1 0 0 1  0 0 -1 0 1  0 0 0 1 0" color-interpolation-filters="sRGB" result="source"/>
					</filter>
				</defs>
				
					<mask maskUnits="userSpaceOnUse" x="399.8" y="102.4" width="51.5" height="51.5" id="SVGID_00000108283846104955963660000014283740988871905158_">
					<g style="filter:url(#Adobe_OpacityMaskFilter_00000087388408275290990580000009721780597903843261_);">
						<image style="overflow:visible;" width="57" height="56" xlink:href="D565B142.jpg"  transform="matrix(1 0 0 1 397 99.94)">
						</image>
					</g>
				</mask>
				<g style="opacity:0.7;mask:url(#SVGID_00000108283846104955963660000014283740988871905158_);">
					<g>
						<path class="st10" d="M425.6,153.9l-7.5-7.5h-10.7v-10.7l-7.5-7.5l7.5-7.5v-10.7H418l7.5-7.5l7.5,7.5h10.7v10.7l7.5,7.5
							l-7.5,7.5v10.7h-10.7L425.6,153.9z M410.6,143.1h8.8l6.2,6.2l6.2-6.2h8.8v-8.8l6.2-6.2l-6.2-6.2v-8.8h-8.8l-6.2-6.2l-6.2,6.2
							h-8.8v8.8l-6.2,6.2l6.2,6.2V143.1z"/>
						<polygon class="st10" points="437.4,133.6 442.4,128.7 437.4,123.8 437.4,116.8 430.5,116.8 425.6,111.9 420.7,116.8 
							413.7,116.8 413.7,123.8 408.8,128.7 413.7,133.6 413.7,140.5 420.7,140.5 425.6,145.4 430.5,140.5 437.4,140.5 						"/>
						<polygon class="st10" points="423.4,133.9 420.4,133.9 420.4,130.8 418.3,128.7 420.4,126.5 420.4,123.5 423.4,123.5 
							425.6,121.4 427.7,123.5 430.8,123.5 430.8,126.5 432.9,128.7 430.8,130.8 430.8,133.9 427.7,133.9 425.6,136 						"/>
					</g>
				</g>
			</g>
		</g>
		<g style="clip-path:url(#SVGID_00000019676962382652618090000010202556200869118341_);">
			<g>
				<g>
					<path class="st4" d="M693.4,229.2l-6-6h-8.5v-8.5l-6-6l6-6V194h8.5l6-6l6,6h8.5v8.5l6,6l-6,6v8.5h-8.5L693.4,229.2z
						 M681.5,220.5h7l5,5l5-5h7v-7l5-5l-5-5v-7h-7l-5-5l-5,5h-7v7l-5,5l5,5V220.5z"/>
				</g>
				<defs>
					
						<filter id="Adobe_OpacityMaskFilter_00000085939091555097720410000012979317818777652358_" filterUnits="userSpaceOnUse" x="672.8" y="187.9" width="41.3" height="41.3">
						
							<feColorMatrix  type="matrix" values="-1 0 0 0 1  0 -1 0 0 1  0 0 -1 0 1  0 0 0 1 0" color-interpolation-filters="sRGB" result="source"/>
					</filter>
				</defs>
				
					<mask maskUnits="userSpaceOnUse" x="672.8" y="187.9" width="41.3" height="41.3" id="SVGID_00000054984147970783167980000000605366226796727441_">
					<g style="filter:url(#Adobe_OpacityMaskFilter_00000085939091555097720410000012979317818777652358_);">
						<image style="overflow:visible;" width="47" height="47" xlink:href="D565B145.jpg"  transform="matrix(1 0 0 1 670 184.94)">
						</image>
					</g>
				</mask>
				<g style="opacity:0.7;mask:url(#SVGID_00000054984147970783167980000000605366226796727441_);">
					<path class="st10" d="M693.4,229.2l-6-6h-8.5v-8.5l-6-6l6-6V194h8.5l6-6l6,6h8.5v8.5l6,6l-6,6v8.5h-8.5L693.4,229.2z
						 M681.5,220.5h7l5,5l5-5h7v-7l5-5l-5-5v-7h-7l-5-5l-5,5h-7v7l-5,5l5,5V220.5z"/>
				</g>
			</g>
			<g>
				<g>
					<polygon class="st7" points="702.9,212.9 706.9,209 702.9,205.1 702.9,199.5 697.4,199.5 693.4,195.6 689.5,199.5 683.9,199.5 
						683.9,205.1 680,209 683.9,212.9 683.9,218.5 689.5,218.5 693.4,222.4 697.4,218.5 702.9,218.5 					"/>
				</g>
				<defs>
					
						<filter id="Adobe_OpacityMaskFilter_00000129201235523235319920000005587788505032754868_" filterUnits="userSpaceOnUse" x="680" y="195.6" width="26.9" height="26.9">
						
							<feColorMatrix  type="matrix" values="-1 0 0 0 1  0 -1 0 0 1  0 0 -1 0 1  0 0 0 1 0" color-interpolation-filters="sRGB" result="source"/>
					</filter>
				</defs>
				
					<mask maskUnits="userSpaceOnUse" x="680" y="195.6" width="26.9" height="26.9" id="SVGID_00000148655038781050213370000013524678768017312957_">
					<g style="filter:url(#Adobe_OpacityMaskFilter_00000129201235523235319920000005587788505032754868_);">
						<image style="overflow:visible;" width="32" height="32" xlink:href="D565B146.jpg"  transform="matrix(1 0 0 1 677 192.94)">
						</image>
					</g>
				</mask>
				<g style="opacity:0.7;mask:url(#SVGID_00000148655038781050213370000013524678768017312957_);">
					<polygon class="st10" points="702.9,212.9 706.9,209 702.9,205.1 702.9,199.5 697.4,199.5 693.4,195.6 689.5,199.5 
						683.9,199.5 683.9,205.1 680,209 683.9,212.9 683.9,218.5 689.5,218.5 693.4,222.4 697.4,218.5 702.9,218.5 					"/>
				</g>
			</g>
			<polygon class="st3" points="691.7,213.2 689.3,213.2 689.3,210.7 687.6,209 689.3,207.3 689.3,204.9 691.7,204.9 693.4,203.1 
				695.1,204.9 697.6,204.9 697.6,207.3 699.3,209 697.6,210.7 697.6,213.2 695.1,213.2 693.4,214.9 			"/>
		</g>
		<g style="clip-path:url(#SVGID_00000019676962382652618090000010202556200869118341_);">
			<g>
				<g>
					<path class="st4" d="M180,74.4l-6-6h-8.5v-8.5l-6-6l6-6v-8.5h8.5l6-6l6,6h8.5v8.5l6,6l-6,6v8.5H186L180,74.4z M168,65.7h7l5,5
						l5-5h7v-7l5-5l-5-5v-7h-7l-5-5l-5,5h-7v7l-5,5l5,5V65.7z"/>
				</g>
				<defs>
					
						<filter id="Adobe_OpacityMaskFilter_00000027604014128124138570000000863090761650513552_" filterUnits="userSpaceOnUse" x="159.3" y="33.1" width="41.3" height="41.3">
						
							<feColorMatrix  type="matrix" values="-1 0 0 0 1  0 -1 0 0 1  0 0 -1 0 1  0 0 0 1 0" color-interpolation-filters="sRGB" result="source"/>
					</filter>
				</defs>
				
					<mask maskUnits="userSpaceOnUse" x="159.3" y="33.1" width="41.3" height="41.3" id="SVGID_00000168097026577416547410000007977060253253413283_">
					<g style="filter:url(#Adobe_OpacityMaskFilter_00000027604014128124138570000000863090761650513552_);">
						<image style="overflow:visible;" width="46" height="46" xlink:href="D565B144.jpg"  transform="matrix(1 0 0 1 157 30.94)">
						</image>
					</g>
				</mask>
				<g style="opacity:0.7;mask:url(#SVGID_00000168097026577416547410000007977060253253413283_);">
					<path class="st10" d="M180,74.4l-6-6h-8.5v-8.5l-6-6l6-6v-8.5h8.5l6-6l6,6h8.5v8.5l6,6l-6,6v8.5H186L180,74.4z M168,65.7h7l5,5
						l5-5h7v-7l5-5l-5-5v-7h-7l-5-5l-5,5h-7v7l-5,5l5,5V65.7z"/>
				</g>
			</g>
			<g>
				<g>
					<polygon class="st7" points="189.5,58.1 193.4,54.2 189.5,50.2 189.5,44.7 183.9,44.7 180,40.7 176,44.7 170.5,44.7 
						170.5,50.2 166.5,54.2 170.5,58.1 170.5,63.7 176,63.7 180,67.6 183.9,63.7 189.5,63.7 					"/>
				</g>
				<defs>
					
						<filter id="Adobe_OpacityMaskFilter_00000134941463390622220650000009596920433902729394_" filterUnits="userSpaceOnUse" x="166.5" y="40.7" width="26.9" height="26.9">
						
							<feColorMatrix  type="matrix" values="-1 0 0 0 1  0 -1 0 0 1  0 0 -1 0 1  0 0 0 1 0" color-interpolation-filters="sRGB" result="source"/>
					</filter>
				</defs>
				
					<mask maskUnits="userSpaceOnUse" x="166.5" y="40.7" width="26.9" height="26.9" id="SVGID_00000181071269556435241640000001895851737613785745_">
					<g style="filter:url(#Adobe_OpacityMaskFilter_00000134941463390622220650000009596920433902729394_);">
						<image style="overflow:visible;" width="32" height="32" xlink:href="D565B143.jpg"  transform="matrix(1 0 0 1 164 37.94)">
						</image>
					</g>
				</mask>
				<g style="opacity:0.7;mask:url(#SVGID_00000181071269556435241640000001895851737613785745_);">
					<polygon class="st10" points="189.5,58.1 193.4,54.2 189.5,50.2 189.5,44.7 183.9,44.7 180,40.7 176,44.7 170.5,44.7 
						170.5,50.2 166.5,54.2 170.5,58.1 170.5,63.7 176,63.7 180,67.6 183.9,63.7 189.5,63.7 					"/>
				</g>
			</g>
			<polygon class="st3" points="178.2,58.3 175.8,58.3 175.8,55.9 174.1,54.2 175.8,52.5 175.8,50 178.2,50 180,48.3 181.7,50 
				184.1,50 184.1,52.5 185.8,54.2 184.1,55.9 184.1,58.3 181.7,58.3 180,60 			"/>
		</g>
		<g style="clip-path:url(#SVGID_00000019676962382652618090000010202556200869118341_);">
			<g>
				<g>
					<path class="st4" d="M557.7,454.3l-6-6h-8.5v-8.5l-6-6l6-6V419h8.5l6-6l6,6h8.5v8.5l6,6l-6,6v8.5h-8.5L557.7,454.3z
						 M545.8,445.6h7l5,5l5-5h7v-7l5-5l-5-5v-7h-7l-5-5l-5,5h-7v7l-5,5l5,5V445.6z"/>
				</g>
				<defs>
					
						<filter id="Adobe_OpacityMaskFilter_00000020397025333766517130000014093285864834466192_" filterUnits="userSpaceOnUse" x="537.1" y="413" width="41.3" height="41.3">
						
							<feColorMatrix  type="matrix" values="-1 0 0 0 1  0 -1 0 0 1  0 0 -1 0 1  0 0 0 1 0" color-interpolation-filters="sRGB" result="source"/>
					</filter>
				</defs>
				
					<mask maskUnits="userSpaceOnUse" x="537.1" y="413" width="41.3" height="41.3" id="SVGID_00000139276086520117396530000013366675509465434000_">
					<g style="filter:url(#Adobe_OpacityMaskFilter_00000020397025333766517130000014093285864834466192_);">
						<image style="overflow:visible;" width="46" height="46" xlink:href="D565B14D.jpg"  transform="matrix(1 0 0 1 535 410.94)">
						</image>
					</g>
				</mask>
				<g style="opacity:0.7;mask:url(#SVGID_00000139276086520117396530000013366675509465434000_);">
					<path class="st10" d="M557.7,454.3l-6-6h-8.5v-8.5l-6-6l6-6V419h8.5l6-6l6,6h8.5v8.5l6,6l-6,6v8.5h-8.5L557.7,454.3z
						 M545.8,445.6h7l5,5l5-5h7v-7l5-5l-5-5v-7h-7l-5-5l-5,5h-7v7l-5,5l5,5V445.6z"/>
				</g>
			</g>
			<g>
				<g>
					<polygon class="st7" points="567.2,438 571.2,434.1 567.2,430.1 567.2,424.6 561.7,424.6 557.7,420.6 553.8,424.6 548.2,424.6 
						548.2,430.1 544.3,434.1 548.2,438 548.2,443.6 553.8,443.6 557.7,447.5 561.7,443.6 567.2,443.6 					"/>
				</g>
				<defs>
					
						<filter id="Adobe_OpacityMaskFilter_00000109021062581021270330000016487755768459624617_" filterUnits="userSpaceOnUse" x="544.3" y="420.6" width="26.9" height="26.9">
						
							<feColorMatrix  type="matrix" values="-1 0 0 0 1  0 -1 0 0 1  0 0 -1 0 1  0 0 0 1 0" color-interpolation-filters="sRGB" result="source"/>
					</filter>
				</defs>
				
					<mask maskUnits="userSpaceOnUse" x="544.3" y="420.6" width="26.9" height="26.9" id="SVGID_00000000212198365371667980000005802542690964186248_">
					<g style="filter:url(#Adobe_OpacityMaskFilter_00000109021062581021270330000016487755768459624617_);">
						<image style="overflow:visible;" width="32" height="32" xlink:href="D565B14E.jpg"  transform="matrix(1 0 0 1 542 417.94)">
						</image>
					</g>
				</mask>
				<g style="opacity:0.7;mask:url(#SVGID_00000000212198365371667980000005802542690964186248_);">
					<polygon class="st10" points="567.2,438 571.2,434.1 567.2,430.1 567.2,424.6 561.7,424.6 557.7,420.6 553.8,424.6 
						548.2,424.6 548.2,430.1 544.3,434.1 548.2,438 548.2,443.6 553.8,443.6 557.7,447.5 561.7,443.6 567.2,443.6 					"/>
				</g>
			</g>
			<polygon class="st3" points="556,438.2 553.6,438.2 553.6,435.8 551.9,434.1 553.6,432.3 553.6,429.9 556,429.9 557.7,428.2 
				559.5,429.9 561.9,429.9 561.9,432.3 563.6,434.1 561.9,435.8 561.9,438.2 559.5,438.2 557.7,439.9 			"/>
		</g>
		<g style="clip-path:url(#SVGID_00000019676962382652618090000010202556200869118341_);">
			<g>
				<path class="st7" d="M649.8,274.1l-4-4h-5.7v-5.7l-4-4l4-4v-5.7h5.7l4-4l4,4h5.7v5.7l4,4l-4,4v5.7h-5.7L649.8,274.1z"/>
			</g>
			<defs>
				
					<filter id="Adobe_OpacityMaskFilter_00000033327610901253341680000003801956569060746890_" filterUnits="userSpaceOnUse" x="636.1" y="246.7" width="27.3" height="27.3">
					
						<feColorMatrix  type="matrix" values="-1 0 0 0 1  0 -1 0 0 1  0 0 -1 0 1  0 0 0 1 0" color-interpolation-filters="sRGB" result="source"/>
				</filter>
			</defs>
			
				<mask maskUnits="userSpaceOnUse" x="636.1" y="246.7" width="27.3" height="27.3" id="SVGID_00000029004379880704337070000000410340446277148092_">
				<g style="filter:url(#Adobe_OpacityMaskFilter_00000033327610901253341680000003801956569060746890_);">
					<image style="overflow:visible;" width="32" height="33" xlink:href="D565B14C.jpg"  transform="matrix(1 0 0 1 634 243.94)">
					</image>
				</g>
			</mask>
			<g style="opacity:0.7;mask:url(#SVGID_00000029004379880704337070000000410340446277148092_);">
				<path class="st10" d="M649.8,274.1l-4-4h-5.7v-5.7l-4-4l4-4v-5.7h5.7l4-4l4,4h5.7v5.7l4,4l-4,4v5.7h-5.7L649.8,274.1z"/>
			</g>
		</g>
		<g style="clip-path:url(#SVGID_00000019676962382652618090000010202556200869118341_);">
			<g>
				<path class="st4" d="M559.5,69.9l-4-4h-5.7v-5.7l-4-4l4-4v-5.7h5.7l4-4l4,4h5.7v5.7l4,4l-4,4v5.7h-5.7L559.5,69.9z"/>
			</g>
			<defs>
				
					<filter id="Adobe_OpacityMaskFilter_00000154400410031995040690000011586676591512840102_" filterUnits="userSpaceOnUse" x="545.8" y="42.6" width="27.3" height="27.3">
					
						<feColorMatrix  type="matrix" values="-1 0 0 0 1  0 -1 0 0 1  0 0 -1 0 1  0 0 0 1 0" color-interpolation-filters="sRGB" result="source"/>
				</filter>
			</defs>
			
				<mask maskUnits="userSpaceOnUse" x="545.8" y="42.6" width="27.3" height="27.3" id="SVGID_00000035496238313461583480000017880907718802976918_">
				<g style="filter:url(#Adobe_OpacityMaskFilter_00000154400410031995040690000011586676591512840102_);">
					<image style="overflow:visible;" width="33" height="32" xlink:href="D7B29E46.jpg"  transform="matrix(1 0 0 1 543 39.94)">
					</image>
				</g>
			</mask>
			<g style="opacity:0.7;mask:url(#SVGID_00000035496238313461583480000017880907718802976918_);">
				<path class="st10" d="M559.5,69.9l-4-4h-5.7v-5.7l-4-4l4-4v-5.7h5.7l4-4l4,4h5.7v5.7l4,4l-4,4v5.7h-5.7L559.5,69.9z"/>
			</g>
		</g>
		<g style="clip-path:url(#SVGID_00000019676962382652618090000010202556200869118341_);">
			<g>
				<path class="st2" d="M456.6,269.6l-4-4h-5.7V260l-4-4l4-4v-5.7h5.7l4-4l4,4h5.7v5.7l4,4l-4,4v5.7h-5.7L456.6,269.6z"/>
			</g>
			<defs>
				
					<filter id="Adobe_OpacityMaskFilter_00000173851393868246691610000008307078829816965521_" filterUnits="userSpaceOnUse" x="442.9" y="242.3" width="27.3" height="27.3">
					
						<feColorMatrix  type="matrix" values="-1 0 0 0 1  0 -1 0 0 1  0 0 -1 0 1  0 0 0 1 0" color-interpolation-filters="sRGB" result="source"/>
				</filter>
			</defs>
			
				<mask maskUnits="userSpaceOnUse" x="442.9" y="242.3" width="27.3" height="27.3" id="SVGID_00000082336583394506364770000008872128429506757299_">
				<g style="filter:url(#Adobe_OpacityMaskFilter_00000173851393868246691610000008307078829816965521_);">
					<image style="overflow:visible;" width="33" height="32" xlink:href="D7B29E5C.jpg"  transform="matrix(1 0 0 1 440 239.94)">
					</image>
				</g>
			</mask>
			<g style="opacity:0.7;mask:url(#SVGID_00000082336583394506364770000008872128429506757299_);">
				<path class="st10" d="M456.6,269.6l-4-4h-5.7V260l-4-4l4-4v-5.7h5.7l4-4l4,4h5.7v5.7l4,4l-4,4v5.7h-5.7L456.6,269.6z"/>
			</g>
		</g>
		<g style="clip-path:url(#SVGID_00000019676962382652618090000010202556200869118341_);">
			<g>
				<path class="st3" d="M299.7,206l-4-4H290v-5.7l-4-4l4-4v-5.7h5.7l4-4l4,4h5.7v5.7l4,4l-4,4v5.7h-5.7L299.7,206z"/>
			</g>
			<defs>
				
					<filter id="Adobe_OpacityMaskFilter_00000087390592046875023740000015743322612319087797_" filterUnits="userSpaceOnUse" x="286" y="178.6" width="27.3" height="27.3">
					
						<feColorMatrix  type="matrix" values="-1 0 0 0 1  0 -1 0 0 1  0 0 -1 0 1  0 0 0 1 0" color-interpolation-filters="sRGB" result="source"/>
				</filter>
			</defs>
			
				<mask maskUnits="userSpaceOnUse" x="286" y="178.6" width="27.3" height="27.3" id="SVGID_00000067945837322978459170000001661113237439340734_">
				<g style="filter:url(#Adobe_OpacityMaskFilter_00000087390592046875023740000015743322612319087797_);">
					<image style="overflow:visible;" width="32" height="33" xlink:href="D7B29E5D.jpg"  transform="matrix(1 0 0 1 284 175.94)">
					</image>
				</g>
			</mask>
			<g style="opacity:0.7;mask:url(#SVGID_00000067945837322978459170000001661113237439340734_);">
				<path class="st10" d="M299.7,206l-4-4H290v-5.7l-4-4l4-4v-5.7h5.7l4-4l4,4h5.7v5.7l4,4l-4,4v5.7h-5.7L299.7,206z"/>
			</g>
		</g>
		<g style="clip-path:url(#SVGID_00000019676962382652618090000010202556200869118341_);">
			<g>
				<path class="st4" d="M602,395.8l-4-4h-5.7v-5.7l-4-4l4-4v-5.7h5.7l4-4l4,4h5.7v5.7l4,4l-4,4v5.7H606L602,395.8z"/>
			</g>
			<defs>
				
					<filter id="Adobe_OpacityMaskFilter_00000149357826286911681070000010521845913066562218_" filterUnits="userSpaceOnUse" x="588.3" y="368.5" width="27.3" height="27.3">
					
						<feColorMatrix  type="matrix" values="-1 0 0 0 1  0 -1 0 0 1  0 0 -1 0 1  0 0 0 1 0" color-interpolation-filters="sRGB" result="source"/>
				</filter>
			</defs>
			
				<mask maskUnits="userSpaceOnUse" x="588.3" y="368.5" width="27.3" height="27.3" id="SVGID_00000026849098067234719440000005210820752825361794_">
				<g style="filter:url(#Adobe_OpacityMaskFilter_00000149357826286911681070000010521845913066562218_);">
					<image style="overflow:visible;" width="32" height="32" xlink:href="D7B29E5E.jpg"  transform="matrix(1 0 0 1 586 365.94)">
					</image>
				</g>
			</mask>
			<g style="opacity:0.7;mask:url(#SVGID_00000026849098067234719440000005210820752825361794_);">
				<path class="st10" d="M602,395.8l-4-4h-5.7v-5.7l-4-4l4-4v-5.7h5.7l4-4l4,4h5.7v5.7l4,4l-4,4v5.7H606L602,395.8z"/>
			</g>
		</g>
		<g style="clip-path:url(#SVGID_00000019676962382652618090000010202556200869118341_);">
			<polygon class="st35" points="663.6,133.6 669.3,133.6 673.3,137.6 677.3,133.6 683,133.6 683,127.9 687,123.9 683,119.9 
				683,114.2 677.3,114.2 673.3,110.2 669.3,114.2 663.6,114.2 663.6,119.9 659.6,123.9 663.6,127.9 			"/>
			<polygon class="st35" points="496.8,472.3 502.5,472.3 506.5,476.3 510.5,472.3 516.2,472.3 516.2,466.7 520.2,462.7 
				516.2,458.6 516.2,453 510.5,453 506.5,449 502.5,453 496.8,453 496.8,458.6 492.8,462.7 496.8,466.7 			"/>
			<polygon class="st35" points="111.2,64 116.9,64 120.9,68 124.9,64 130.6,64 130.6,58.3 134.6,54.3 130.6,50.3 130.6,44.6 
				124.9,44.6 120.9,40.6 116.9,44.6 111.2,44.6 111.2,50.3 107.2,54.3 111.2,58.3 			"/>
			<path class="st35" d="M172,176.4l28.6-35.5l-44-11.9l2.3-45.5l-42.6,16.3L91.5,61.6L66.6,99.8L24,83.6l2.3,45.5l-44,11.9
				L11,176.4l-28.6,35.5l44,11.9L24,269.2L66.6,253l24.9,38.2l24.9-38.2l42.6,16.3l-2.3-45.5l44-11.9L172,176.4z M189.6,144.5
				l-9.3,12.1l-14.6-4.3l9.3-12.1L189.6,144.5z M155.2,134.3L171,139l-11.9,15.5l18.7,5.5l-10,13.1l-12.6-17.3V134.3z M155.2,162.5
				l7.6,10.4l-7.6-2.1V162.5z M155.2,175l5,1.4l-5,1.4V175z M155.2,181.9l7.6-2.1l-7.6,10.4V181.9z M137.8,98l14.3-5.1l-0.4,15.2
				l-14.3,5.1L137.8,98z M133.8,99.4l-0.5,19.5l18.4-6.5l-0.4,16.5l-20.4-6.6l-12.6-17.3L133.8,99.4z M139.8,218.3l7.4,2.8l-12.3,4
				L139.8,218.3z M129.6,225.5l-11-15.1l17.2,6.5L129.6,225.5z M119.8,187.7l-9,2.7l0.3,12.9l-3.5-1.3l0.1,0.2l-8.9-3.1l-7.3,10.6
				l-2-3.1l0,0.2l-5.3-7.8L72,203.3l0.2-3.7l-0.1,0.2l0.2-9.4l-9-2.7l0.2-0.1l-3.6-1l7.8-10.2l-5.7-7.5l0.2,0.1l-2.3-2.9l12.4-3.7
				L72,153l0.1,0.2l-0.2-3.7l12.2,4.3l5.3-7.8l0,0.2l2-3.1l7.3,10.6l12.2-4.3l-0.2,3.7l0.1-0.2l-0.2,9.4l9,2.7l-0.2,0.1l3.6,1
				l-7.8,10.2l7.8,10.2l-3.6,1L119.8,187.7z M93.5,238.5v-18.6v0l10.1,15.3L93.5,238.5L93.5,238.5L93.5,238.5z M105.9,238.7l4.3,6.6
				l-12.3-4L105.9,238.7z M93.9,213.2l6.5-9.4l10.8,3.8l1.1,24.8l-4.7,1.5L93.9,213.2z M77.1,238.7l7.9,2.6l-12.3,4L77.1,238.7z
				 M75.4,233.9l-4.7-1.5l1.1-24.8l10.8-3.8l6.5,9.4L75.4,233.9z M79.4,235.2l10.1-15.3v18.6L79.4,235.2z M48.1,225.1l-12.3-4
				l7.4-2.8L48.1,225.1z M47.1,216.8l17.2-6.5l-11,15.1L47.1,216.8z M35.9,216.8l3.3-4.1l1.6,2.2L35.9,216.8z M31.8,215.5v-12.9
				l4.9,6.8L31.8,215.5z M39.3,206.1l-6.3-8.6l17.7-5.8L39.3,206.1z M31.8,193.7V183l17.7,4.9L31.8,193.7z M31.8,178.9l0-5l23.9-6.6
				l7,9.1l-7,9.1L31.8,178.9z M43.2,134.5l-7.4-2.8l12.3-4L43.2,134.5z M53.4,127.3l11,15.1l-17.2-6.5L53.4,127.3z M39.2,140.1
				l-3.3-4.1l4.9,1.8L39.2,140.1z M50.8,161.1l-17.7-5.8l6.3-8.6L50.8,161.1z M36.7,143.5l-4.9,6.8v-12.9L36.7,143.5z M49.6,164.9
				l-17.7,4.9v-10.6L49.6,164.9z M77.1,114.1l-4.3-6.6l12.3,4L77.1,114.1z M89.5,114.3v18.6l-10.1-15.3L89.5,114.3z M89.1,139.6
				l-6.5,9.4l-10.8-3.8l-1.1-24.8l4.7-1.5L89.1,139.6z M105.9,114.1l-7.9-2.6l12.3-4L105.9,114.1z M107.6,118.9l4.7,1.5l-1.1,24.8
				l-10.8,3.8l-6.5-9.4L107.6,118.9z M103.6,117.6l-10.1,15.3l0-18.6L103.6,117.6z M120.3,176.4l7-9.1l23.9,6.6v5l-23.9,6.6
				L120.3,176.4z M134.9,127.7l12.3,4l-7.4,2.8L134.9,127.7z M135.9,135.9l-17.2,6.5l11-15.1L135.9,135.9z M151.2,150.2l-4.9-6.8
				l4.9-6.1V150.2z M151.2,159.1v10.6l-17.7-4.9L151.2,159.1z M147.1,136l-3.3,4.1l-1.6-2.2L147.1,136z M143.7,146.7l6.3,8.6
				l-17.7,5.8L143.7,146.7z M151.2,183v10.6l-17.7-5.8L151.2,183z M149.9,197.5l-6.3,8.6l-11.5-14.4L149.9,197.5z M143.8,212.7
				l3.3,4.1l-4.9-1.8L143.8,212.7z M146.3,209.3l4.9-6.8v12.9L146.3,209.3z M116.8,109.7l7.6,10.4l-7.9-2.6L116.8,109.7z
				 M116.3,121.7l10.1,3.3l-11,15.1L116.3,121.7z M115.1,148l23.2-8.7l2.9,4l-15.5,19.4l-11-3.3L115.1,148z M112.5,116.3l-2.6-0.9
				l2.9-4.4L112.5,116.3z M91.5,73.2l8.6,12.5l-8.6,12.5l-8.6-12.5L91.5,73.2z M80.4,89.3l11.1,16.1l11.1-16.1l9.3,13.6l-20.4,6.6
				l-20.4-6.6L80.4,89.3z M73.1,115.4l-2.6,0.9l-0.2-5.2L73.1,115.4z M68.2,159.5l-11,3.3l-15.5-19.4l2.9-4l23.2,8.7L68.2,159.5z
				 M66.7,121.7l0.8,18.4l-11-15.1L66.7,121.7z M66.6,117.6l-7.9,2.6l7.6-10.4L66.6,117.6z M64.8,104.9l-12.6,17.3l-20.4,6.6
				l-0.4-16.5l18.4,6.5l-0.5-19.5L64.8,104.9z M-6.6,144.5l14.6-4.3l9.3,12.1l-14.6,4.3L-6.6,144.5z M-6.6,208.3l9.3-12.1l14.6,4.3
				l-9.3,12.1L-6.6,208.3z M27.8,218.5L12,213.8l11.9-15.5l-18.7-5.5l10-13.1l12.6,17.3V218.5z M27.8,190.3l-7.6-10.4l7.6,2.1V190.3
				z M27.8,177.8l-5-1.4l5-1.4V177.8z M27.8,170.9l-7.6,2.1l7.6-10.4V170.9z M27.8,155.7l-12.6,17.3L5.2,160l18.7-5.6L12,139
				l15.8-4.7V155.7z M45.2,98l0.4,15.2l-14.3-5.1l-0.4-15.2L45.2,98z M45.2,254.8l-14.3,5.1l0.4-15.2l14.3-5.1L45.2,254.8z
				 M49.2,253.4l0.5-19.5l-18.4,6.5l0.4-16.5l20.4,6.6l12.6,17.3L49.2,253.4z M66.2,243.1l-7.6-10.4l7.9,2.6L66.2,243.1z
				 M66.7,231.1l-10.1-3.3l11-15.1L66.7,231.1z M67.9,204.8l-23.2,8.7l-2.9-4l15.5-19.4l11,3.3L67.9,204.8z M70.5,236.5l2.6,0.9
				l-2.9,4.4L70.5,236.5z M91.5,279.6l-8.6-12.5l8.6-12.5l8.6,12.5L91.5,279.6z M102.6,263.5l-11.1-16.1l-11.1,16.1L71.1,250
				l20.4-6.6l20.4,6.6L102.6,263.5z M109.9,237.4l2.6-0.9l0.2,5.2L109.9,237.4z M114.8,193.3l11-3.3l15.5,19.4l-2.9,4l-23.2-8.7
				L114.8,193.3z M116.3,231.1l-0.8-18.4l11,15.1L116.3,231.1z M116.4,235.2l7.9-2.6l-7.6,10.4L116.4,235.2z M118.3,247.9l12.6-17.3
				l20.4-6.6l0.4,16.5l-18.4-6.5l0.5,19.5L118.3,247.9z M137.8,254.8l-0.4-15.2l14.3,5.1l0.4,15.2L137.8,254.8z M155.2,218.5l0-21.4
				l12.6-17.3l10,13.1l-18.7,5.6l11.9,15.5L155.2,218.5z M165.8,200.5l14.6-4.3l9.3,12.1l-14.6,4.3L165.8,200.5z"/>
			<path class="st35" d="M742.2-9.1l28.6-35.5l-44-11.9l2.3-45.5l-42.6,16.3l-24.9-38.2l-24.9,38.2l-42.6-16.3l2.3,45.5l-44,11.9
				l28.6,35.5l-28.6,35.5l44,11.9l-2.3,45.5l42.6-16.3l24.9,38.2l24.9-38.2l42.6,16.3l-2.3-45.5l44-11.9L742.2-9.1z M759.9-41
				l-9.3,12.1L736-33.2l9.3-12.1L759.9-41z M725.4-51.2l15.8,4.7L729.3-31l18.7,5.5l-10,13.1l-12.6-17.3V-51.2z M725.4-23l7.6,10.4
				l-7.6-2.1V-23z M725.4-10.5l5,1.4l-5,1.4V-10.5z M725.4-3.5l7.6-2.1l-7.6,10.4V-3.5z M708-87.5l14.3-5.1L722-77.4l-14.3,5.1
				L708-87.5z M704-86.1l-0.5,19.5l18.4-6.5l-0.4,16.5l-20.4-6.6l-12.6-17.3L704-86.1z M710,32.8l7.4,2.8l-12.3,4L710,32.8z
				 M699.8,40l-11-15.1l17.2,6.5L699.8,40z M690,2.2l-9,2.7l0.3,12.9l-3.5-1.3l0.1,0.2l-8.9-3.1l-7.3,10.6l-2-3.1l0,0.2l-5.3-7.8
				l-12.2,4.3l0.2-3.7l-0.1,0.2l0.2-9.4l-9-2.7l0.2-0.1l-3.6-1l7.8-10.2l-5.7-7.5l0.2,0.1l-2.3-2.9l12.4-3.7l-0.2-9.4l0.1,0.2
				l-0.2-3.7l12.2,4.3l5.3-7.8l0,0.2l2-3.1l7.3,10.6l12.2-4.3l-0.2,3.7l0.1-0.2l-0.2,9.4l9,2.7l-0.2,0.1l3.6,1l-7.8,10.2l7.8,10.2
				l-3.6,1L690,2.2z M663.7,53V34.4v0l10.1,15.3L663.7,53L663.7,53L663.7,53z M676.1,53.2l4.3,6.6l-12.3-4L676.1,53.2z M664.1,27.7
				l6.5-9.4l10.8,3.8l1.1,24.8l-4.7,1.5L664.1,27.7z M647.3,53.2l7.9,2.6l-12.3,4L647.3,53.2z M645.6,48.5l-4.7-1.5l1.1-24.8
				l10.8-3.8l6.5,9.4L645.6,48.5z M649.6,49.7l10.1-15.3V53L649.6,49.7z M618.4,39.6l-12.3-4l7.4-2.8L618.4,39.6z M617.3,31.4
				l17.2-6.5l-11,15.1L617.3,31.4z M606.1,31.3l3.3-4.1l1.6,2.2L606.1,31.3z M602,30V17.1l4.9,6.8L602,30z M609.5,20.6l-6.3-8.6
				L621,6.3L609.5,20.6z M602,8.2V-2.4l17.7,4.9L602,8.2z M602-6.6l0-5l23.9-6.6l7,9.1l-7,9.1L602-6.6z M613.4-51l-7.4-2.8l12.3-4
				L613.4-51z M623.6-58.1l11,15.1l-17.2-6.5L623.6-58.1z M609.4-45.4l-3.3-4.1l4.9,1.8L609.4-45.4z M621-24.4l-17.7-5.8l6.3-8.6
				L621-24.4z M606.9-42l-4.9,6.8v-12.9L606.9-42z M619.8-20.6L602-15.7v-10.6L619.8-20.6z M647.3-71.3l-4.3-6.6l12.3,4L647.3-71.3z
				 M659.7-71.2v18.6l-10.1-15.3L659.7-71.2z M659.3-45.9l-6.5,9.4L642-40.3l-1.1-24.8l4.7-1.5L659.3-45.9z M676.1-71.3l-7.9-2.6
				l12.3-4L676.1-71.3z M677.8-66.6l4.7,1.5l-1.1,24.8l-10.8,3.8l-6.5-9.4L677.8-66.6z M673.8-67.9l-10.1,15.3l0-18.6L673.8-67.9z
				 M690.5-9.1l7-9.1l23.9,6.6v5L697.5,0L690.5-9.1z M705.1-57.7l12.3,4L710-51L705.1-57.7z M706.1-49.5l-17.2,6.5l11-15.1
				L706.1-49.5z M721.4-35.3l-4.9-6.8l4.9-6.1V-35.3z M721.4-26.4v10.6l-17.7-4.9L721.4-26.4z M717.3-49.5l-3.3,4.1l-1.6-2.2
				L717.3-49.5z M713.9-38.8l6.3,8.6l-17.7,5.8L713.9-38.8z M721.4-2.4V8.2l-17.7-5.8L721.4-2.4z M720.1,12l-6.3,8.6L702.4,6.3
				L720.1,12z M714,27.2l3.3,4.1l-4.9-1.8L714,27.2z M716.5,23.9l4.9-6.8V30L716.5,23.9z M687-75.8l7.6,10.4l-7.9-2.6L687-75.8z
				 M686.5-63.8l10.1,3.3l-11,15.1L686.5-63.8z M685.3-37.4l23.2-8.7l2.9,4L696-22.7L685-26L685.3-37.4z M682.7-69.2l-2.6-0.9
				l2.9-4.4L682.7-69.2z M661.7-112.3l8.6,12.5l-8.6,12.5l-8.6-12.5L661.7-112.3z M650.7-96.2l11.1,16.1l11.1-16.1l9.3,13.6
				L661.7-76l-20.4-6.6L650.7-96.2z M643.4-70.1l-2.6,0.9l-0.2-5.2L643.4-70.1z M638.4-26l-11,3.3L612-42.1l2.9-4l23.2,8.7L638.4-26
				z M637-63.8l0.8,18.4l-11-15.1L637-63.8z M636.8-67.9l-7.9,2.6l7.6-10.4L636.8-67.9z M635-80.6l-12.6,17.3L602-56.6l-0.4-16.5
				l18.4,6.5l-0.5-19.5L635-80.6z M563.6-41l14.6-4.3l9.3,12.1l-14.6,4.3L563.6-41z M563.6,22.8l9.3-12.1l14.6,4.3l-9.3,12.1
				L563.6,22.8z M598,33.1l-15.8-4.7l11.9-15.5l-18.7-5.5l10-13.1L598,11.6V33.1z M598,4.8l-7.6-10.4l7.6,2.1V4.8z M598-7.7l-5-1.4
				l5-1.4V-7.7z M598-14.6l-7.6,2.1L598-23V-14.6z M598-29.8l-12.6,17.3l-10-13.1l18.7-5.6l-11.9-15.5l15.8-4.7V-29.8z M615.4-87.5
				l0.4,15.2l-14.3-5.1L601-92.6L615.4-87.5z M615.4,69.3L601,74.4l0.4-15.2l14.3-5.1L615.4,69.3z M619.4,67.9l0.5-19.5l-18.4,6.5
				l0.4-16.5l20.4,6.6L635,62.4L619.4,67.9z M636.4,57.6l-7.6-10.4l7.9,2.6L636.4,57.6z M637,45.6l-10.1-3.3l11-15.1L637,45.6z
				 M638.1,19.3L614.9,28l-2.9-4l15.5-19.4l11,3.3L638.1,19.3z M640.7,51.1l2.6,0.9l-2.9,4.4L640.7,51.1z M661.7,94.1l-8.6-12.5
				l8.6-12.5l8.6,12.5L661.7,94.1z M672.8,78.1L661.7,62l-11.1,16.1l-9.3-13.6l20.4-6.6l20.4,6.6L672.8,78.1z M680.1,51.9l2.6-0.9
				l0.2,5.2L680.1,51.9z M685,7.9l11-3.3L711.4,24l-2.9,4l-23.2-8.7L685,7.9z M686.5,45.6l-0.8-18.4l11,15.1L686.5,45.6z
				 M686.6,49.8l7.9-2.6L687,57.6L686.6,49.8z M688.5,62.4l12.6-17.3l20.4-6.6l0.4,16.5l-18.4-6.5l0.5,19.5L688.5,62.4z M708,69.3
				l-0.4-15.2l14.3,5.1l0.4,15.2L708,69.3z M725.4,33.1l0-21.4L738-5.7l10,13.1l-18.7,5.6l11.9,15.5L725.4,33.1z M736,15.1l14.6-4.3
				l9.3,12.1l-14.6,4.3L736,15.1z"/>
			<path class="st35" d="M469.9,461.3l28.6-35.5l-44-11.9l2.3-45.5l-42.6,16.3l-24.9-38.2l-24.9,38.2l-42.6-16.3l2.3,45.5l-44,11.9
				l28.6,35.5l-28.6,35.5l44,11.9l-2.3,45.5l42.6-16.3l24.9,38.2l24.9-38.2l42.6,16.3l-2.3-45.5l44-11.9L469.9,461.3z M487.5,429.4
				l-9.3,12.1l-14.6-4.3l9.3-12.1L487.5,429.4z M453,419.1l15.8,4.7L457,439.3l18.7,5.5l-10,13.1L453,440.6V419.1z M453,447.4
				l7.6,10.4l-7.6-2.1V447.4z M453,459.9l5,1.4l-5,1.4V459.9z M453,466.8l7.6-2.1l-7.6,10.4V466.8z M435.7,382.8l14.3-5.1l-0.4,15.2
				l-14.3,5.1L435.7,382.8z M431.6,384.3l-0.5,19.5l18.4-6.5l-0.4,16.5l-20.4-6.6l-12.6-17.3L431.6,384.3z M437.6,503.2l7.4,2.8
				l-12.3,4L437.6,503.2z M427.5,510.3l-11-15.1l17.2,6.5L427.5,510.3z M417.6,472.5l-9,2.7l0.3,12.9l-3.5-1.3l0.1,0.2l-8.9-3.1
				l-7.3,10.6l-2-3.1l0,0.2l-5.3-7.8l-12.2,4.3l0.2-3.7l-0.1,0.2l0.2-9.4l-9-2.7l0.2-0.1l-3.6-1l7.8-10.2l-5.7-7.5l0.2,0.1l-2.3-2.9
				l12.4-3.7l-0.2-9.4l0.1,0.2l-0.2-3.7l12.2,4.3l5.3-7.8l0,0.2l2-3.1l7.3,10.6l12.2-4.3l-0.2,3.7l0.1-0.2l-0.2,9.4l9,2.7l-0.2,0.1
				l3.6,1l-7.8,10.2l7.8,10.2l-3.6,1L417.6,472.5z M391.4,523.4v-18.6v0l10.1,15.3L391.4,523.4L391.4,523.4L391.4,523.4z
				 M403.8,523.5l4.3,6.6l-12.3-4L403.8,523.5z M391.8,498.1l6.5-9.4l10.8,3.8l1.1,24.8l-4.7,1.5L391.8,498.1z M374.9,523.5l7.9,2.6
				l-12.3,4L374.9,523.5z M373.3,518.8l-4.7-1.5l1.1-24.8l10.8-3.8l6.5,9.4L373.3,518.8z M377.2,520.1l10.1-15.3v18.6L377.2,520.1z
				 M346,509.9l-12.3-4l7.4-2.8L346,509.9z M345,501.7l17.2-6.5l-11,15.1L345,501.7z M333.8,501.6l3.3-4.1l1.6,2.2L333.8,501.6z
				 M329.7,500.4v-12.9l4.9,6.8L329.7,500.4z M337.2,491l-6.3-8.6l17.7-5.8L337.2,491z M329.7,478.5v-10.6l17.7,4.9L329.7,478.5z
				 M329.7,463.8l0-5l23.9-6.6l7,9.1l-7,9.1L329.7,463.8z M341.1,419.4l-7.4-2.8l12.3-4L341.1,419.4z M351.2,412.2l11,15.1
				l-17.2-6.5L351.2,412.2z M337,425l-3.3-4.1l4.9,1.8L337,425z M348.6,445.9l-17.7-5.8l6.3-8.6L348.6,445.9z M334.6,428.3l-4.9,6.8
				v-12.9L334.6,428.3z M347.4,449.7l-17.7,4.9V444L347.4,449.7z M374.9,399l-4.3-6.6l12.3,4L374.9,399z M387.4,399.2v18.6
				l-10.1-15.3L387.4,399.2z M386.9,424.4l-6.5,9.4l-10.8-3.8l-1.1-24.8l4.7-1.5L386.9,424.4z M403.8,399l-7.9-2.6l12.3-4L403.8,399
				z M405.4,403.7l4.7,1.5l-1.1,24.8l-10.8,3.8l-6.5-9.4L405.4,403.7z M401.5,402.5l-10.1,15.3l0-18.6L401.5,402.5z M418.2,461.3
				l7-9.1l23.9,6.6v5l-23.9,6.6L418.2,461.3z M432.7,412.6l12.3,4l-7.4,2.8L432.7,412.6z M433.7,420.8l-17.2,6.5l11-15.1
				L433.7,420.8z M449,435.1l-4.9-6.8l4.9-6.1V435.1z M449,444v10.6l-17.7-4.9L449,444z M444.9,420.9l-3.3,4.1l-1.6-2.2L444.9,420.9
				z M441.5,431.6l6.3,8.6l-17.7,5.8L441.5,431.6z M449,467.9v10.6l-17.7-5.8L449,467.9z M447.8,482.4l-6.3,8.6l-11.5-14.4
				L447.8,482.4z M441.7,497.6l3.3,4.1l-4.9-1.8L441.7,497.6z M444.1,494.2l4.9-6.8v12.9L444.1,494.2z M414.7,394.6l7.6,10.4
				l-7.9-2.6L414.7,394.6z M414.1,406.6l10.1,3.3l-11,15.1L414.1,406.6z M413,432.9l23.2-8.7l2.9,4l-15.5,19.4l-11-3.3L413,432.9z
				 M410.4,401.1l-2.6-0.9l2.9-4.4L410.4,401.1z M389.4,358.1l8.6,12.5l-8.6,12.5l-8.6-12.5L389.4,358.1z M378.3,374.1l11.1,16.1
				l11.1-16.1l9.3,13.6l-20.4,6.6l-20.4-6.6L378.3,374.1z M371,400.3l-2.6,0.9l-0.2-5.2L371,400.3z M366.1,444.3l-11,3.3l-15.5-19.4
				l2.9-4l23.2,8.7L366.1,444.3z M364.6,406.6l0.8,18.4l-11-15.1L364.6,406.6z M364.4,402.4l-7.9,2.6l7.6-10.4L364.4,402.4z
				 M362.6,389.8L350,407.1l-20.4,6.6l-0.4-16.5l18.4,6.5l-0.5-19.5L362.6,389.8z M291.2,429.4l14.6-4.3l9.3,12.1l-14.6,4.3
				L291.2,429.4z M291.2,493.2l9.3-12.1l14.6,4.3l-9.3,12.1L291.2,493.2z M325.7,503.4l-15.8-4.7l11.9-15.5l-18.7-5.5l10-13.1
				l12.6,17.3V503.4z M325.7,475.1l-7.6-10.4l7.6,2.1V475.1z M325.7,462.6l-5-1.4l5-1.4V462.6z M325.7,455.7l-7.6,2.1l7.6-10.4
				V455.7z M325.7,440.6l-12.6,17.3l-10-13.1l18.7-5.6l-11.9-15.5l15.8-4.7V440.6z M343,382.8l0.4,15.2l-14.3-5.1l-0.4-15.2
				L343,382.8z M343,539.7l-14.3,5.1l0.4-15.2l14.3-5.1L343,539.7z M347.1,538.3l0.5-19.5l-18.4,6.5l0.4-16.5l20.4,6.6l12.6,17.3
				L347.1,538.3z M364.1,528l-7.6-10.4l7.9,2.6L364.1,528z M364.6,516l-10.1-3.3l11-15.1L364.6,516z M365.8,489.6l-23.2,8.7l-2.9-4
				l15.5-19.4l11,3.3L365.8,489.6z M368.4,521.4l2.6,0.9l-2.9,4.4L368.4,521.4z M389.4,564.5l-8.6-12.5l8.6-12.5l8.6,12.5
				L389.4,564.5z M400.4,548.4l-11.1-16.1l-11.1,16.1l-9.3-13.6l20.4-6.6l20.4,6.6L400.4,548.4z M407.7,522.2l2.6-0.9l0.2,5.2
				L407.7,522.2z M412.7,478.2l11-3.3l15.5,19.4l-2.9,4l-23.2-8.7L412.7,478.2z M414.1,516l-0.8-18.4l11,15.1L414.1,516z
				 M414.3,520.1l7.9-2.6l-7.6,10.4L414.3,520.1z M416.1,532.8l12.6-17.3l20.4-6.6l0.4,16.5l-18.4-6.5l0.5,19.5L416.1,532.8z
				 M435.7,539.7l-0.4-15.2l14.3,5.1l0.4,15.2L435.7,539.7z M453,503.4l0-21.4l12.6-17.3l10,13.1l-18.7,5.6l11.9,15.5L453,503.4z
				 M463.7,485.4l14.6-4.3l9.3,12.1l-14.6,4.3L463.7,485.4z"/>
			<g class="st36">
				<path class="st37" d="M755.4,127.8v-13.5h-13.5l-9.5-9.5l-9.5,9.5h-13.5v13.5l-9.5,9.5l9.5,9.5v13.5h13.5l9.5,9.5l9.5-9.5h13.5
					v-13.5l9.5-9.5L755.4,127.8z M750.6,144.8v10.7h-10.7l-7.5,7.5l-7.5-7.5h-10.7v-10.7l-7.5-7.5l7.5-7.5v-10.7h10.7l7.5-7.5
					l7.5,7.5h10.7v10.7l7.5,7.5L750.6,144.8z"/>
				<path class="st37" d="M747.3,131.1v-8.8h-8.8l-6.2-6.2l-6.2,6.2h-8.8v8.8l-6.2,6.2l6.2,6.2v8.8h8.8l6.2,6.2l6.2-6.2h8.8v-8.8
					l6.2-6.2L747.3,131.1z M744.2,142.8v6.9h-6.9l-4.9,4.9l-4.9-4.9h-6.9v-6.9l-4.9-4.9l4.9-4.9V126h6.9l4.9-4.9l4.9,4.9h6.9v6.9
					l4.9,4.9L744.2,142.8z"/>
				<polygon class="st37" points="737.5,132.7 734.5,132.7 732.4,130.5 730.2,132.7 727.2,132.7 727.2,135.7 725,137.8 727.2,140 
					727.2,143 730.2,143 732.4,145.2 734.5,143 737.5,143 737.5,140 739.7,137.8 737.5,135.7 				"/>
			</g>
			<g class="st36">
				<path class="st37" d="M568,497v-13.5h-13.5L545,474l-9.5,9.5h-13.5V497l-9.5,9.5l9.5,9.5v13.5h13.5l9.5,9.5l9.5-9.5H568v-13.5
					l9.5-9.5L568,497z M563.2,514.1v10.7h-10.7l-7.5,7.5l-7.5-7.5h-10.7v-10.7l-7.5-7.5l7.5-7.5v-10.7h10.7l7.5-7.5l7.5,7.5h10.7
					V499l7.5,7.5L563.2,514.1z"/>
				<path class="st37" d="M559.9,500.4v-8.8h-8.8l-6.2-6.2l-6.2,6.2H530v8.8l-6.2,6.2l6.2,6.2v8.8h8.8l6.2,6.2l6.2-6.2h8.8v-8.8
					l6.2-6.2L559.9,500.4z M556.8,512v6.9h-6.9l-4.9,4.9l-4.9-4.9h-6.9V512l-4.9-4.9l4.9-4.9v-6.9h6.9l4.9-4.9l4.9,4.9h6.9v6.9
					l4.9,4.9L556.8,512z"/>
				<polygon class="st37" points="550.1,501.9 547.1,501.9 545,499.8 542.8,501.9 539.8,501.9 539.8,504.9 537.6,507.1 539.8,509.2 
					539.8,512.3 542.8,512.3 545,514.4 547.1,512.3 550.1,512.3 550.1,509.2 552.3,507.1 550.1,504.9 				"/>
			</g>
			<g class="st36">
				<path class="st37" d="M63.8,31.2V17.7H50.3l-9.5-9.5l-9.5,9.5H17.8v13.5l-9.5,9.5l9.5,9.5v13.5h13.5l9.5,9.5l9.5-9.5h13.5V50.3
					l9.5-9.5L63.8,31.2z M59,48.3V59H48.3l-7.5,7.5L33.2,59H22.6V48.3L15,40.7l7.5-7.5V22.5h10.7l7.5-7.5l7.5,7.5H59v10.7l7.5,7.5
					L59,48.3z"/>
				<path class="st37" d="M55.7,34.6v-8.8H47l-6.2-6.2l-6.2,6.2h-8.8v8.8l-6.2,6.2l6.2,6.2v8.8h8.8l6.2,6.2l6.2-6.2h8.8v-8.8
					l6.2-6.2L55.7,34.6z M52.6,46.2v6.9h-6.9l-4.9,4.9l-4.9-4.9h-6.9v-6.9L24,41.3l4.9-4.9v-6.9h6.9l4.9-4.9l4.9,4.9h6.9v6.9
					l4.9,4.9L52.6,46.2z"/>
				<polygon class="st37" points="46,36.1 42.9,36.1 40.8,34 38.6,36.1 35.6,36.1 35.6,39.1 33.5,41.3 35.6,43.4 35.6,46.5 
					38.6,46.5 40.8,48.6 42.9,46.5 46,46.5 46,43.4 48.1,41.3 46,39.1 				"/>
			</g>
		</g>
	</g>
</g>
</svg>
