<?xml version="1.0" encoding="UTF-8" standalone="no"?>
<!-- Created with Inkscape (http://www.inkscape.org/) -->

<svg
   version="1.1"
   id="svg2"
   xml:space="preserve"
   width="1000"
   height="666.66669"
   viewBox="0 0 1000 666.66669"
   xmlns="http://www.w3.org/2000/svg"
   xmlns:svg="http://www.w3.org/2000/svg"><defs
     id="defs6"><clipPath
       clipPathUnits="userSpaceOnUse"
       id="clipPath18"><path
         d="M 0,500 H 750 V 0 H 0 Z"
         id="path16" /></clipPath><clipPath
       clipPathUnits="userSpaceOnUse"
       id="clipPath96"><path
         d="M 114.479,75.167 H 618.281 V 412.69 H 114.479 Z"
         id="path94" /></clipPath><clipPath
       clipPathUnits="userSpaceOnUse"
       id="clipPath468"><path
         d="M 0,500 H 750 V 0 H 0 Z"
         id="path466" /></clipPath><clipPath
       clipPathUnits="userSpaceOnUse"
       id="clipPath506"><path
         d="M 0,500 H 750 V 0 H 0 Z"
         id="path504" /></clipPath></defs><g
     id="g8"
     transform="matrix(1.3333333,0,0,-1.3333333,0,666.66667)"><g
       id="g12"><g
         id="g14"
         clip-path="url(#clipPath18)"><g
           id="g20"
           transform="translate(147.7144,67.9502)"><path
             d="m 0,0 c -13.353,15.712 -5.562,40.315 7.016,56.655 12.578,16.339 29.665,30.201 35.836,49.877 7.277,23.207 -2.624,48.133 -14.191,69.529 -11.568,21.394 -25.362,42.966 -26.416,67.266 -1.297,29.875 17.05,57.016 37.551,78.787 26.515,28.157 62.337,52.872 100.755,48.412 27.543,-3.197 51.157,-20.883 71.253,-39.988 20.095,-19.105 38.562,-40.554 62.51,-54.53 17.284,-10.087 36.934,-15.889 56.861,-17.737 25.585,-2.372 51.596,1.636 76.963,-2.459 25.366,-4.094 51.736,-19.487 57.138,-44.608 8.014,-37.267 -32.718,-69.08 -33.515,-107.191 -0.363,-17.409 7.713,-33.694 13.336,-50.173 5.624,-16.481 8.522,-35.876 -1.146,-50.359"
             style="fill:none;stroke:#8ee4fd;stroke-width:2.482;stroke-linecap:round;stroke-linejoin:round;stroke-miterlimit:10;stroke-dasharray:8.686;stroke-dashoffset:0;stroke-opacity:1"
             id="path22" /></g><g
           id="g24"
           transform="translate(581.748,351.127)"><path
             d="m 0,0 c 0,-5.483 -4.444,-9.927 -9.927,-9.927 -5.482,0 -9.927,4.444 -9.927,9.927 0,5.482 4.445,9.927 9.927,9.927 C -4.444,9.927 0,5.482 0,0"
             style="fill:#8ee4fd;fill-opacity:1;fill-rule:nonzero;stroke:none"
             id="path26" /></g><g
           id="g28"
           transform="translate(149.9185,370.5674)"><path
             d="m 0,0 c 0,-4.34 -3.519,-7.859 -7.859,-7.859 -4.34,0 -7.859,3.519 -7.859,7.859 0,4.34 3.519,7.859 7.859,7.859 C -3.519,7.859 0,4.34 0,0"
             style="fill:#8ee4fd;fill-opacity:1;fill-rule:nonzero;stroke:none"
             id="path30" /></g><g
           id="g32"
           transform="translate(129.2368,226.21)"><path
             d="m 0,0 c 0,-3.654 -2.963,-6.617 -6.618,-6.617 -3.655,0 -6.618,2.963 -6.618,6.617 0,3.655 2.963,6.618 6.618,6.618 C -2.963,6.618 0,3.655 0,0"
             style="fill:#8ee4fd;fill-opacity:1;fill-rule:nonzero;stroke:none"
             id="path34" /></g><g
           id="g36"
           transform="translate(589.1934,363.9492)"><path
             d="m 0,0 c 0,-6.168 -5,-11.168 -11.168,-11.168 -6.168,0 -11.168,5 -11.168,11.168 0,6.168 5,11.168 11.168,11.168 C -5,11.168 0,6.168 0,0 Z"
             style="fill:none;stroke:#8ee4fd;stroke-width:1.241;stroke-linecap:butt;stroke-linejoin:miter;stroke-miterlimit:10;stroke-dasharray:none;stroke-opacity:1"
             id="path38" /></g><g
           id="g40"
           transform="translate(152.4004,380.0806)"><path
             d="m 0,0 c 0,-4.112 -3.333,-7.445 -7.445,-7.445 -4.112,0 -7.446,3.333 -7.446,7.445 0,4.112 3.334,7.446 7.446,7.446 C -3.333,7.446 0,4.112 0,0 Z"
             style="fill:none;stroke:#8ee4fd;stroke-width:1.241;stroke-linecap:butt;stroke-linejoin:miter;stroke-miterlimit:10;stroke-dasharray:none;stroke-opacity:1"
             id="path42" /></g><g
           id="g44"
           transform="translate(635.5205,219.5928)"><path
             d="m 0,0 c 0,-5.94 -4.815,-10.755 -10.755,-10.755 -5.939,0 -10.754,4.815 -10.754,10.755 0,5.939 4.815,10.754 10.754,10.754 C -4.815,10.754 0,5.939 0,0 Z"
             style="fill:none;stroke:#8ee4fd;stroke-width:1.241;stroke-linecap:butt;stroke-linejoin:miter;stroke-miterlimit:10;stroke-dasharray:none;stroke-opacity:1"
             id="path46" /></g><g
           id="g48"
           transform="translate(182.1816,335.0571)"><path
             d="m 0,0 c -10.754,0 -19.502,-8.749 -19.502,-19.502 0,-10.754 8.748,-19.502 19.502,-19.502 10.754,0 19.502,8.748 19.502,19.502 C 19.502,-8.749 10.754,0 0,0 m 0,-40.7 c -11.688,0 -21.198,9.509 -21.198,21.198 0,11.689 9.51,21.198 21.198,21.198 11.689,0 21.198,-9.509 21.198,-21.198 C 21.198,-31.191 11.689,-40.7 0,-40.7"
             style="fill:#8ee4fd;fill-opacity:1;fill-rule:nonzero;stroke:none"
             id="path50" /></g><g
           id="g52"
           transform="translate(175.3711,295.6279)"><path
             d="M 0,0 C -9.995,17.276 -0.451,39.001 -0.04,39.917 L 1.507,39.223 C 1.41,39.006 -8.087,17.366 1.467,0.85 Z"
             style="fill:#8ee4fd;fill-opacity:1;fill-rule:nonzero;stroke:none"
             id="path54" /></g><g
           id="g56"
           transform="translate(189.1177,295.6279)"><path
             d="M 0,0 -1.468,0.85 C 8.087,17.366 -1.41,39.006 -1.507,39.223 L 0.04,39.917 C 0.451,39.001 9.995,17.276 0,0"
             style="fill:#8ee4fd;fill-opacity:1;fill-rule:nonzero;stroke:none"
             id="path58" /></g><path
           d="M 201.542,320.925 H 162.82 v 1.696 h 38.722 z"
           style="fill:#8ee4fd;fill-opacity:1;fill-rule:nonzero;stroke:none"
           id="path60" /><path
           d="M 201.542,307.5 H 162.82 v 1.696 h 38.722 z"
           style="fill:#8ee4fd;fill-opacity:1;fill-rule:nonzero;stroke:none"
           id="path62" /><path
           d="m 183.03,295.205 h -1.696 v 40.701 h 1.696 z"
           style="fill:#8ee4fd;fill-opacity:1;fill-rule:nonzero;stroke:none"
           id="path64" /><g
           id="g66"
           transform="translate(618.7285,258.0269)"><path
             d="m 0,0 h -36.813 c -2.513,0 -4.55,2.037 -4.55,4.55 v 36.813 c 0,2.513 2.037,4.55 4.55,4.55 H 0 c 2.513,0 4.55,-2.037 4.55,-4.55 V 4.55 C 4.55,2.037 2.513,0 0,0"
             style="fill:#8ee4fd;fill-opacity:1;fill-rule:nonzero;stroke:none"
             id="path68" /></g><g
           id="g70"
           transform="translate(604.1514,274.2129)"><path
             d="M 0,0 C 0.972,0.95 1.829,1.835 2.738,2.665 3.748,3.586 4.552,3.589 5.545,2.645 6.738,1.512 7.893,0.337 9.033,-0.849 9.844,-1.691 9.853,-2.621 9.074,-3.481 8.33,-4.304 7.556,-5.108 6.724,-5.839 5.428,-6.976 3.782,-6.872 2.378,-6.42 c -9.293,2.986 -15.872,8.96 -19.246,18.199 -1.234,3.376 0.208,6.653 3.32,8.266 0.78,0.405 1.542,0.279 2.158,-0.323 1.235,-1.207 2.458,-2.428 3.635,-3.692 0.752,-0.808 0.703,-1.814 -0.077,-2.655 C -8.559,12.59 -9.321,11.837 -10.1,11.104 -10.562,10.669 -10.642,10.3 -10.279,9.726 -7.697,5.637 -4.238,2.492 0,0"
             style="fill:#ffffff;fill-opacity:1;fill-rule:nonzero;stroke:none"
             id="path72" /></g><g
           id="g74"
           transform="translate(444.5254,390.4004)"><path
             d="m 0,0 h -52.292 c -1.094,0 -1.98,0.887 -1.98,1.981 v 32.438 c 0,1.094 0.886,1.98 1.98,1.98 H 0 c 1.094,0 1.98,-0.886 1.98,-1.98 V 1.981 C 1.98,0.887 1.094,0 0,0"
             style="fill:#8ee4fd;fill-opacity:1;fill-rule:nonzero;stroke:none"
             id="path76" /></g><g
           id="g78"
           transform="translate(418.3496,402.0078)"><path
             d="m 0,0 c -0.104,0 -0.208,0.035 -0.295,0.105 l -27.114,22.181 c -0.198,0.163 -0.229,0.456 -0.066,0.655 0.164,0.199 0.459,0.226 0.656,0.065 L -0.003,1.068 27.033,23.47 c 0.197,0.164 0.489,0.137 0.655,-0.062 0.165,-0.198 0.136,-0.491 -0.061,-0.655 L 0.297,0.107 C 0.211,0.036 0.105,0 0,0"
             style="fill:#ffffff;fill-opacity:1;fill-rule:nonzero;stroke:none"
             id="path80" /></g><g
           id="g82"
           transform="translate(391.0801,391.6152)"><path
             d="M 0,0 C -0.112,0 -0.226,0.041 -0.313,0.123 -0.504,0.296 -0.516,0.59 -0.343,0.78 L 16.72,19.393 c 0.176,0.19 0.469,0.201 0.656,0.029 0.19,-0.173 0.203,-0.468 0.029,-0.658 L 0.343,0.151 C 0.251,0.051 0.126,0 0,0"
             style="fill:#ffffff;fill-opacity:1;fill-rule:nonzero;stroke:none"
             id="path84" /></g><g
           id="g86"
           transform="translate(445.5244,391.6152)"><path
             d="m 0,0 c -0.126,0 -0.251,0.051 -0.343,0.151 l -17.062,18.613 c -0.173,0.19 -0.161,0.485 0.029,0.658 0.189,0.172 0.482,0.161 0.656,-0.029 L 0.343,0.78 C 0.517,0.59 0.504,0.296 0.313,0.123 0.226,0.041 0.112,0 0,0"
             style="fill:#ffffff;fill-opacity:1;fill-rule:nonzero;stroke:none"
             id="path88" /></g></g></g><g
       id="g90"><g
         id="g92"
         clip-path="url(#clipPath96)"><g
           id="g98"
           transform="translate(443.9805,146.4697)"><path
             d="m 0,0 c 0,0 -16.93,-35.662 -16.103,-74.543 h 153.871 c 0,0 -1.655,44.672 -20.681,76.107 z"
             style="fill:#436a91;fill-opacity:1;fill-rule:nonzero;stroke:none"
             id="path100" /></g><g
           id="g102"
           transform="translate(485.373,135.0049)"><path
             d="M 0,0 H 79.21"
             style="fill:none;stroke:#0b334c;stroke-width:0.931;stroke-linecap:round;stroke-linejoin:round;stroke-miterlimit:10;stroke-dasharray:none;stroke-opacity:1"
             id="path104" /></g><g
           id="g106"
           transform="translate(551.1396,146.1729)"><path
             d="M 0,0 V -11.168"
             style="fill:none;stroke:#0b334c;stroke-width:0.931;stroke-linecap:round;stroke-linejoin:round;stroke-miterlimit:10;stroke-dasharray:none;stroke-opacity:1"
             id="path108" /></g><g
           id="g110"
           transform="translate(532.5264,146.1729)"><path
             d="M 0,0 V -11.168"
             style="fill:none;stroke:#0b334c;stroke-width:0.931;stroke-linecap:round;stroke-linejoin:round;stroke-miterlimit:10;stroke-dasharray:none;stroke-opacity:1"
             id="path112" /></g><g
           id="g114"
           transform="translate(513.9131,146.1729)"><path
             d="M 0,0 V -11.168"
             style="fill:none;stroke:#0b334c;stroke-width:0.931;stroke-linecap:round;stroke-linejoin:round;stroke-miterlimit:10;stroke-dasharray:none;stroke-opacity:1"
             id="path116" /></g><g
           id="g118"
           transform="translate(495.2998,146.1729)"><path
             d="M 0,0 V -11.168"
             style="fill:none;stroke:#0b334c;stroke-width:0.931;stroke-linecap:round;stroke-linejoin:round;stroke-miterlimit:10;stroke-dasharray:none;stroke-opacity:1"
             id="path120" /></g><g
           id="g122"
           transform="translate(557.1377,134.5918)"><path
             d="M 0,0 C 0,0 13.856,-41.363 11.995,-63.079"
             style="fill:none;stroke:#0b334c;stroke-width:0.931;stroke-linecap:round;stroke-linejoin:round;stroke-miterlimit:10;stroke-dasharray:none;stroke-opacity:1"
             id="path124" /></g><g
           id="g126"
           transform="translate(514.2187,294.8975)"><path
             d="M 0,0 V 20.589 H -29.726 V 0 c 0,-4.551 -3.689,-8.24 -8.24,-8.24 26.194,-38.85 46.501,0 46.501,0 H 8.24 C 3.689,-8.24 0,-4.551 0,0"
             style="fill:#cc6f49;fill-opacity:1;fill-rule:nonzero;stroke:none"
             id="path128" /></g><g
           id="g130"
           transform="translate(514.2305,312.3701)"><path
             d="m 0,0 v -5.849 c -2.629,-1.917 -5.333,-3.441 -7.692,-4.572 -4.4,-2.138 -9.537,-2.138 -13.959,-0.024 -2.483,1.18 -5.334,2.777 -8.086,4.866 v 5.85 c 2.752,-2.09 5.603,-3.687 8.086,-4.891 4.422,-2.114 9.559,-2.089 13.959,0.024 C -5.333,-3.465 -2.629,-1.941 0,0"
             style="fill:#0b334c;fill-opacity:1;fill-rule:nonzero;stroke:none"
             id="path132" /></g><g
           id="g134"
           transform="translate(550.9326,274.3984)"><path
             d="m 0,0 c -3.309,13.236 -24.403,12.822 -28.747,13.236 -0.905,0.086 -1.6,0.646 -2.143,1.495 0.036,3.861 -0.102,11.621 -1.793,11.621 -2.25,0 -16.5,-4.5 -16.5,-4.5 l -1.5,-5.75 -1,5.25 c 0,0 -15.25,6.25 -17.25,5.75 -1.549,-0.388 -1.448,-9.182 -1.324,-13.12 -2.004,-1.445 -4.423,-1.723 -4.423,-1.723 -12.015,0.056 -19.834,-0.677 -26.866,-8.743 -7.031,-8.066 -17.137,-150.414 -17.137,-150.414 2.652,-3.125 25.717,-4.27 57,-3.75 2.162,0.036 8.829,18.956 11,19 2.502,0.05 11.762,-17.81 14.25,-17.75 32.342,0.767 57.75,2 57.75,2 C 21.317,-147.398 3.31,-13.236 0,0"
             style="fill:#fcb13a;fill-opacity:1;fill-rule:nonzero;stroke:none"
             id="path136" /></g><g
           id="g138"
           transform="translate(500,283.75)"><path
             d="M 0,0 V -139.5"
             style="fill:none;stroke:#0b334c;stroke-width:0.931;stroke-linecap:round;stroke-linejoin:round;stroke-miterlimit:10;stroke-dasharray:none;stroke-opacity:1"
             id="path140" /></g><g
           id="g142"
           transform="translate(495.8164,196.8203)"><path
             d="m 0,0 c -3.962,-0.295 -7.914,-0.573 -11.82,-0.826 -1.157,1.359 -2.482,2.845 -3.77,4.129 -3.456,3.446 -5.117,5.984 -5.764,8.07 -0.648,2.086 -5.173,-1.85 -2.71,-6.473 2.463,-4.622 2.876,-6.555 2.876,-6.555 0,0 -10.353,2.892 -11.601,-2.63 0,0 0.022,-1.783 1.502,-2.231 0,0 -3.086,-1.28 -2.909,-2.984 0.176,-1.704 2.289,-3.15 2.289,-3.15 0,0 -2.622,-1.12 -2.523,-2.903 0.101,-1.782 2.52,-2.915 2.52,-2.915 0,0 -1.071,-1.177 -0.437,-2.255 0.634,-1.077 2.433,-2.217 4.679,-1.957 2.245,0.262 5.896,-0.08 6.566,2.023 0,0 8.484,-0.665 11.79,0.571 3.11,-0.282 6.212,-0.531 9.312,-0.761 z"
             style="fill:#cc6f49;fill-opacity:1;fill-rule:nonzero;stroke:none"
             id="path144" /></g><g
           id="g146"
           transform="translate(518.9717,283.4536)"><path
             d="m 0,0 c 2.477,2.213 5.687,3.417 9.005,3.589 5.43,0.281 14.701,0.04 19.958,-4.165 6.091,-4.873 43.355,-44.309 62.226,-69.579 9.58,-12.827 3.553,-31.421 -11.795,-35.97 -2.724,-0.807 -5.77,-1.427 -9.172,-1.788 -26.368,-2.792 -97.72,-2.171 -97.72,-2.171 0,0 -2.172,24.197 -0.62,24.507 1.551,0.31 63.285,7.755 63.285,7.755 l -35.979,43.884 c -5.217,6.363 -7.455,14.785 -5.597,22.802 C -5.496,-7.198 -3.6,-3.215 0,0"
             style="fill:#fcb13a;fill-opacity:1;fill-rule:nonzero;stroke:none"
             id="path148" /></g><g
           id="g150"
           transform="translate(523.8398,243.583)"><path
             d="m 0,0 30.195,-37.848 14.478,-0.62"
             style="fill:none;stroke:#0b334c;stroke-width:0.931;stroke-linecap:round;stroke-linejoin:round;stroke-miterlimit:10;stroke-dasharray:none;stroke-opacity:1"
             id="path152" /></g><g
           id="g154"
           transform="translate(490.75,198.083)"><path
             d="m 0,0 63.285,7.652 10.548,4.757"
             style="fill:none;stroke:#0b334c;stroke-width:0.931;stroke-linecap:round;stroke-linejoin:round;stroke-miterlimit:10;stroke-dasharray:none;stroke-opacity:1"
             id="path156" /></g><g
           id="g158"
           transform="translate(491.1631,176.1611)"><path
             d="m 0,0 v -2.896 c 0,0 66.595,0.415 70.524,0.828"
             style="fill:none;stroke:#0b334c;stroke-width:0.931;stroke-linecap:round;stroke-linejoin:round;stroke-miterlimit:10;stroke-dasharray:none;stroke-opacity:1"
             id="path160" /></g><g
           id="g162"
           transform="translate(474.6182,285.7729)"><path
             d="m 0,0 c 0,0 -19.027,4.136 -28.127,-8.272 -9.1,-12.409 -47.337,-98.606 -48.991,-147.001 -1.654,-48.394 10.11,-126.822 10.523,-128.063 0.414,-1.242 23.991,-3.31 27.3,0 3.31,3.308 -6.204,128.225 22.75,184.892 C 12.409,-41.777 20.268,-8.686 0,0"
             style="fill:#fcb13a;fill-opacity:1;fill-rule:nonzero;stroke:none"
             id="path164" /></g><g
           id="g166"
           transform="translate(462.416,246.6855)"><path
             d="M 0,0 C 0,-0.621 -11.788,-75.488 -11.788,-75.488"
             style="fill:none;stroke:#0b334c;stroke-width:0.931;stroke-linecap:round;stroke-linejoin:round;stroke-miterlimit:10;stroke-dasharray:none;stroke-opacity:1"
             id="path168" /></g><g
           id="g170"
           transform="translate(534.7393,352.9985)"><path
             d="m 0,0 c -2.073,0.848 -4.292,0.777 -6.208,-0.02 0.032,0.7 0.063,1.399 0.092,2.097 0.662,16.518 -12.619,30.242 -29.151,30.225 -16.529,-0.018 -29.781,-13.767 -29.087,-30.281 0.03,-0.68 0.061,-1.361 0.094,-2.042 -1.917,0.798 -4.137,0.869 -6.212,0.021 -4.162,-1.702 -6.156,-6.455 -4.454,-10.617 1.682,-4.112 8.128,-8.936 12.296,-7.41 0.685,-4.509 1.585,-8.362 2.77,-10.989 3.705,-8.221 11.797,-13.392 17.71,-16.221 4.416,-2.114 9.548,-2.105 13.96,0.018 5.896,2.837 13.95,8.015 17.642,16.255 1.173,2.616 2.062,6.446 2.736,10.927 4.169,-1.491 10.588,3.319 12.266,7.42 C 6.155,-6.455 4.161,-1.702 0,0"
             style="fill:#cc6f49;fill-opacity:1;fill-rule:nonzero;stroke:none"
             id="path172" /></g><g
           id="g174"
           transform="translate(499.7227,346.4893)"><path
             d="m 0,0 c 0.618,-1.258 0.738,-2.691 0.686,-4.033 -0.065,-1.35 -0.31,-2.64 -0.571,-3.864 -0.247,-1.236 -0.611,-2.428 -0.565,-3.313 -0.025,-0.898 0.753,-1.93 1.546,-3.078 -0.691,0.13 -1.328,0.367 -1.963,0.751 -0.605,0.396 -1.217,1.009 -1.513,1.827 -0.307,0.8 -0.325,1.613 -0.282,2.327 0.051,0.716 0.165,1.36 0.3,2.017 0.28,1.3 0.683,2.511 1.094,3.698 C -0.838,-2.476 -0.442,-1.321 0,0"
             style="fill:#0b334c;fill-opacity:1;fill-rule:nonzero;stroke:none"
             id="path176" /></g><g
           id="g178"
           transform="translate(491.9355,352.7998)"><path
             d="M 0,0 C -0.696,0.021 -1.486,0.094 -2.203,0.102 -2.933,0.107 -3.646,0.098 -4.338,-0.022 -5.035,-0.126 -5.68,-0.374 -6.304,-0.708 -6.952,-1.021 -7.486,-1.536 -8.07,-2.08 l -0.056,-0.051 c -0.216,-0.202 -0.555,-0.189 -0.756,0.027 -0.147,0.158 -0.18,0.382 -0.102,0.569 0.344,0.831 0.81,1.692 1.548,2.333 0.713,0.648 1.588,1.176 2.52,1.444 0.928,0.283 1.892,0.412 2.827,0.342 C -1.142,2.507 -0.27,2.325 0.629,1.858 1.112,1.606 1.301,1.01 1.049,0.526 0.868,0.18 0.511,-0.015 0.144,-0.005 Z"
             style="fill:#0b334c;fill-opacity:1;fill-rule:nonzero;stroke:none"
             id="path180" /></g><g
           id="g182"
           transform="translate(506.4424,354.6577)"><path
             d="M 0,0 C 0.897,0.467 1.77,0.649 2.717,0.726 3.652,0.796 4.617,0.667 5.544,0.384 6.477,0.116 7.352,-0.412 8.064,-1.06 8.802,-1.701 9.269,-2.562 9.613,-3.393 9.727,-3.666 9.597,-3.979 9.323,-4.092 9.124,-4.174 8.903,-4.127 8.755,-3.99 L 8.699,-3.938 C 8.115,-3.394 7.58,-2.879 6.933,-2.566 6.309,-2.231 5.664,-1.984 4.966,-1.88 4.275,-1.76 3.562,-1.751 2.832,-1.756 2.115,-1.764 1.325,-1.837 0.628,-1.858 L 0.485,-1.862 c -0.545,-0.017 -1,0.411 -1.016,0.956 C -0.543,-0.515 -0.325,-0.17 0,0"
             style="fill:#0b334c;fill-opacity:1;fill-rule:nonzero;stroke:none"
             id="path184" /></g><g
           id="g186"
           transform="translate(512.6113,342.6982)"><path
             d="m 0,0 c 0,-2.319 -1.17,-4.199 -2.611,-4.199 -1.443,0 -2.612,1.88 -2.612,4.199 0,2.319 1.169,4.199 2.612,4.199 C -1.17,4.199 0,2.319 0,0"
             style="fill:#0b334c;fill-opacity:1;fill-rule:nonzero;stroke:none"
             id="path188" /></g><g
           id="g190"
           transform="translate(491.6182,342.6982)"><path
             d="m 0,0 c 0,-2.319 -1.169,-4.199 -2.611,-4.199 -1.443,0 -2.612,1.88 -2.612,4.199 0,2.319 1.169,4.199 2.612,4.199 C -1.169,4.199 0,2.319 0,0"
             style="fill:#0b334c;fill-opacity:1;fill-rule:nonzero;stroke:none"
             id="path192" /></g><g
           id="g194"
           transform="translate(505.1396,326.8486)"><path
             d="M 0,0 C 0.628,0.387 1.258,0.641 1.882,0.91 2.514,1.172 3.106,1.415 3.768,1.733 3.439,1.052 2.77,0.625 2.118,0.344 1.449,0.076 0.737,-0.083 0,0"
             style="fill:#0b334c;fill-opacity:1;fill-rule:nonzero;stroke:none"
             id="path196" /></g><g
           id="g198"
           transform="translate(498.876,329.1553)"><path
             d="m 0,0 c 1.133,-0.131 2.23,-0.19 3.3,-0.157 1.066,0.049 2.105,0.201 3.046,0.573 0.958,0.333 1.787,0.935 2.474,1.708 0.379,0.362 0.647,0.822 0.965,1.265 0.306,0.452 0.516,0.962 0.839,1.449 C 10.564,4.279 10.502,3.695 10.334,3.139 10.126,2.597 9.948,2.022 9.581,1.54 9.294,1.002 8.819,0.604 8.385,0.173 8.135,-0.004 7.874,-0.168 7.617,-0.337 7.356,-0.5 7.064,-0.6 6.788,-0.73 5.64,-1.156 4.415,-1.263 3.255,-1.111 2.097,-0.96 0.973,-0.614 0,0"
             style="fill:#0b334c;fill-opacity:1;fill-rule:nonzero;stroke:none"
             id="path200" /></g><g
           id="g202"
           transform="translate(502.9375,321.6802)"><path
             d="m 0,0 c -1.104,1.168 -2.784,1.616 -4.281,1.029 -0.97,-0.38 -2.032,-1.141 -2.821,-2.633 -1.348,-2.554 1.131,-7.183 2.654,-9.614 0.534,-0.852 1.75,-0.887 2.35,-0.081 1.054,1.415 2.489,3.791 3.235,6.975 0.356,1.52 -0.03,3.138 -1.094,4.279 C 0.028,-0.03 0.015,-0.015 0,0"
             style="fill:#0b334c;fill-opacity:1;fill-rule:nonzero;stroke:none"
             id="path204" /></g><g
           id="g206"
           transform="translate(528.875,375.875)"><path
             d="m 0,0 c -0.143,4.209 -3.49,7.613 -7.687,7.967 -4.07,0.335 -8.14,-0.372 -12.21,-0.633 -4.071,-0.248 -13.213,9.976 -16.353,11.291 -3.325,1.402 -7.16,0.794 -10.374,-0.906 -4.666,-2.494 -9.316,-7.908 -8.175,-13.455 0,0 -0.085,0.013 -0.241,0.03 -4.76,0.51 -8.87,-3.346 -8.75,-8.131 0.045,-1.775 0.135,-3.549 0.279,-5.321 0.258,-3.138 0.662,-8.586 1.351,-11.992 0.326,-1.61 6.158,-6.529 7.2,-7.857 0.744,-0.968 2.184,-0.893 2.755,0.224 0.931,1.824 0.757,4.479 1.191,6.887 0.521,2.878 2.85,10.677 6.362,12.538 2.605,1.378 5.671,-1.129 8.152,-2.767 2.47,-1.638 3.33,-2.684 6.048,-3.751 4.181,-1.625 8.972,-0.77 12.669,1.861 3.611,2.569 8.451,0.944 9.841,-3.511 0.049,-0.174 0.098,-0.335 0.148,-0.509 0.559,-1.899 0.025,-5.807 -0.185,-8.947 -0.113,-1.563 1.364,-2.655 2.655,-1.973 0,0 0.012,0.007 0.036,0.019 3.029,1.602 5.185,4.473 5.877,7.83 C 2.221,-13.187 0.281,-8.289 0,0"
             style="fill:#0b334c;fill-opacity:1;fill-rule:nonzero;stroke:none"
             id="path208" /></g><g
           id="g210"
           transform="translate(512.8916,390.0264)"><path
             d="m 0,0 c -1.646,2.428 -6.001,7.01 -15.87,8.09 -4.698,0.515 -9.426,-0.63 -13.41,-3.174 -9.24,-5.901 -26.22,-19.901 -27.414,-43.634 -0.214,-4.254 1.32,-8.407 4.124,-11.614 3.166,-3.62 7.976,-8.692 13.647,-13.257 0,0 -11.753,33.726 20.125,53.568 46.717,-9.672 30.406,-54.839 30.406,-54.839 0,0 16.011,7.838 16.333,21.5 C 28.431,-22.646 11.128,0.127 0,0"
             style="fill:#fcb13a;fill-opacity:1;fill-rule:nonzero;stroke:none"
             id="path212" /></g><g
           id="g214"
           transform="translate(494.1055,380)"><path
             d="m 0,0 c 0,0 18.954,4.287 19.395,9.625 0.333,4.042 -4.167,3.458 -6,1.625 C 11.562,9.417 0,0 0,0"
             style="fill:#fdc56d;fill-opacity:1;fill-rule:nonzero;stroke:none"
             id="path216" /></g><g
           id="g218"
           transform="translate(469.875,339.375)"><path
             d="M 0,0 C 0,0 -4.125,17.25 9.875,31.125"
             style="fill:none;stroke:#0b334c;stroke-width:0.931;stroke-linecap:round;stroke-linejoin:round;stroke-miterlimit:10;stroke-dasharray:none;stroke-opacity:1"
             id="path220" /></g><g
           id="g222"
           transform="translate(512.667,384.5)"><path
             d="M 0,0 C 0,0 14.75,-6.25 19.125,-21"
             style="fill:none;stroke:#0b334c;stroke-width:0.931;stroke-linecap:round;stroke-linejoin:round;stroke-miterlimit:10;stroke-dasharray:none;stroke-opacity:1"
             id="path224" /></g><g
           id="g226"
           transform="translate(231.4038,182.7793)"><path
             d="m 0,0 c 0,0 -33.918,-43.018 -38.881,-103.407 h 161.316 c 0,0 -5.791,69.903 -40.95,102.58 z"
             style="fill:#00a2dd;fill-opacity:1;fill-rule:nonzero;stroke:none"
             id="path228" /></g><g
           id="g230"
           transform="translate(242.7783,179.8838)"><path
             d="M 0,0 C 0,-0.62 -3.929,-53.979 -38.054,-51.704"
             style="fill:none;stroke:#0b334c;stroke-width:0.931;stroke-linecap:round;stroke-linejoin:round;stroke-miterlimit:10;stroke-dasharray:none;stroke-opacity:1"
             id="path232" /></g><g
           id="g234"
           transform="translate(196.4521,81.0264)"><path
             d="M 0,0 11.375,47.153"
             style="fill:none;stroke:#0b334c;stroke-width:0.931;stroke-linecap:round;stroke-linejoin:round;stroke-miterlimit:10;stroke-dasharray:none;stroke-opacity:1"
             id="path236" /></g><g
           id="g238"
           transform="translate(364.0093,189.0293)"><path
             d="m 0,0 c -0.31,3.723 -0.683,7.445 -1.154,11.155 -1.477,11.305 -3.301,22.436 -5.832,33.319 -1.142,5.471 -2.544,10.844 -3.871,16.243 -1.453,5.36 -2.892,10.721 -4.493,16.007 -6.194,20.917 -13.479,41.159 -22.17,61.238 l 0.004,0.003 -1.099,2.634 c -0.534,1.279 -1.212,2.493 -2.022,3.618 l -5.004,6.957 c 0,0 -7.61,18.096 -8.953,18.038 -1.343,-0.058 -2.587,-9.633 -0.133,-16.152 0,0 -3.513,-2.532 -5.028,-5.806 -0.87,-1.879 -1.593,-4.812 -2.05,-6.967 -0.327,-1.54 0.479,-3.097 1.933,-3.701 2.167,-0.901 5.027,-2.323 5.359,-3.662 0.541,-2.188 1.484,-5.95 1.484,-5.95 l 0.015,0.011 c 1.978,-7.904 5.678,-25.185 5.735,-25.351 0.342,-0.99 0.349,-2.023 0.104,-2.999 0.04,-0.429 0.081,-0.859 0.117,-1.287 0.296,-3.463 -3.08,-6.065 -6.204,-6.204 -0.679,-0.031 -1.315,0.061 -1.902,0.25 -1.25,-0.54 -2.635,-0.689 -3.928,-0.253 0.424,-3.412 0.678,-6.841 0.791,-10.285 3.101,-22.494 4.51,-45.202 5.962,-67.88 4.035,-8.556 8.311,-17.025 12.979,-25.335 0.646,-1.122 1.296,-2.244 1.951,-3.363 3.093,-5.281 8.68,-8.06 14.281,-7.874 0.723,-0.1 1.461,-0.15 2.219,-0.118 8.74,0.375 16.003,5.818 19.208,13.323 l 0.488,0.393 C -1.277,-9.878 -1.337,-9.756 -1.4,-9.636 -0.258,-6.66 0.275,-3.397 0,0"
             style="fill:#ed8d5d;fill-opacity:1;fill-rule:nonzero;stroke:none"
             id="path240" /></g><g
           id="g242"
           transform="translate(330.0547,203.2539)"><path
             d="M 0,0 -2.068,23.163 -2.689,5.067"
             style="fill:none;stroke:#0b334c;stroke-width:0.931;stroke-linecap:round;stroke-linejoin:round;stroke-miterlimit:10;stroke-dasharray:none;stroke-opacity:1"
             id="path244" /></g><g
           id="g246"
           transform="translate(327.9624,226.3994)"><path
             d="m 0,0 -17.09,-25.42 -3.218,7.226 -9.779,21.949 -2.932,65.981 c 11.403,-0.583 16.68,-2.365 21.59,-4.025 1.877,-8.7 4.467,-20.808 6.021,-29.521 0.185,-0.968 0.357,-1.948 0.53,-2.917 C -2.966,22.352 -1.291,11.418 -0.024,0.533 -0.012,0.187 0,0 0,0"
             style="fill:#1f5b99;fill-opacity:1;fill-rule:nonzero;stroke:none"
             id="path248" /></g><g
           id="g250"
           transform="translate(307.7183,208.6309)"><path
             d="M 0,0 -13.029,38.055 -0.62,-5.17 Z"
             style="fill:#0b334c;fill-opacity:1;fill-rule:nonzero;stroke:none"
             id="path252" /></g><g
           id="g254"
           transform="translate(295.25,295.2402)"><path
             d="m 0,0 c -9.08,-13.47 -19.06,-18.41 -27.02,-18.41 -3.85,0 -7.24,1.16 -9.81,3.08 -6.4,4.78 -8.19,15.33 -8.19,15.33 l 1.91,0.01 c 4.25,0 7.69,3.44 7.69,7.69 v 9.76 l 0.01,6.51 v 5.38 l 3.75,0.25 23.99,1.61 V 24.22 L -7.68,7.69 C -7.68,3.44 -4.24,0 0,0"
             style="fill:#ed8d5d;fill-opacity:1;fill-rule:nonzero;stroke:none"
             id="path256" /></g><g
           id="g258"
           transform="translate(259.8252,319.2378)"><path
             d="m 0,0 -0.001,-5.457 c 2.453,-1.79 4.975,-3.211 7.176,-4.267 4.104,-1.996 8.897,-1.997 13.025,-0.026 2.316,1.1 4.977,2.59 7.545,4.539 l 0.002,5.458 C 25.178,-1.702 22.518,-3.192 20.201,-4.315 16.073,-6.287 11.28,-6.263 7.176,-4.289 4.975,-3.234 2.453,-1.812 0,0"
             style="fill:#0b334c;fill-opacity:1;fill-rule:nonzero;stroke:none"
             id="path260" /></g><g
           id="g262"
           transform="translate(307.3008,202.0088)"><path
             d="m 0,0 c 1.861,-5.162 9.518,-21.294 9.518,-21.294 h -88.314 c 0,0 11.589,21.096 11.379,25.849 -0.211,4.752 -19.644,64.116 -17.162,71.971 2.481,7.855 6.279,13.476 12.446,15.114 6.167,1.638 15.834,1.601 15.834,1.601 0,0 7.904,-17.547 22.596,-16.095 14.68,1.452 21.294,16.963 21.294,16.963 0,0 13.861,0.645 21.728,-4.07 0.075,-0.372 0.161,-0.745 0.236,-1.117 2.06,-9.43 3.983,-18.874 5.683,-28.329 C 13.079,54.401 -1.837,5.112 0,0"
             style="fill:#1f5b99;fill-opacity:1;fill-rule:nonzero;stroke:none"
             id="path264" /></g><g
           id="g266"
           transform="translate(270.4917,277.9141)"><path
             d="M 0,0 V -26.059"
             style="fill:none;stroke:#0b334c;stroke-width:0.931;stroke-linecap:round;stroke-linejoin:round;stroke-miterlimit:10;stroke-dasharray:none;stroke-opacity:1"
             id="path268" /></g><g
           id="g270"
           transform="translate(276.2827,271.0894)"><path
             d="m 0,0 c 0,-1.028 -0.833,-1.861 -1.861,-1.861 -1.029,0 -1.862,0.833 -1.862,1.861 0,1.028 0.833,1.861 1.862,1.861 C -0.833,1.861 0,1.028 0,0 Z"
             style="fill:none;stroke:#0b334c;stroke-width:0.931;stroke-linecap:round;stroke-linejoin:round;stroke-miterlimit:10;stroke-dasharray:none;stroke-opacity:1"
             id="path272" /></g><g
           id="g274"
           transform="translate(275.9722,261.2397)"><path
             d="m 0,0 c 0,-1.028 -0.833,-1.861 -1.861,-1.861 -1.028,0 -1.862,0.833 -1.862,1.861 0,1.028 0.834,1.861 1.862,1.861 C -0.833,1.861 0,1.028 0,0 Z"
             style="fill:none;stroke:#0b334c;stroke-width:0.931;stroke-linecap:round;stroke-linejoin:round;stroke-miterlimit:10;stroke-dasharray:none;stroke-opacity:1"
             id="path276" /></g><g
           id="g278"
           transform="translate(275.6621,251.3901)"><path
             d="m 0,0 c 0,-1.028 -0.833,-1.861 -1.861,-1.861 -1.028,0 -1.862,0.833 -1.862,1.861 0,1.028 0.834,1.861 1.862,1.861 C -0.833,1.861 0,1.028 0,0 Z"
             style="fill:none;stroke:#0b334c;stroke-width:0.931;stroke-linecap:round;stroke-linejoin:round;stroke-miterlimit:10;stroke-dasharray:none;stroke-opacity:1"
             id="path280" /></g><g
           id="g282"
           transform="translate(265.7349,222.0742)"><path
             d="M 0,0 C 0,0 13.236,7.652 17.993,15.511 Z"
             style="fill:#0b334c;fill-opacity:1;fill-rule:nonzero;stroke:none"
             id="path284" /></g><g
           id="g286"
           transform="translate(250.4497,290.8301)"><path
             d="M 0,0 C -1.38,0.03 -2.48,1.17 -2.45,2.55 -2.42,3.93 -1.28,5.03 0.1,5 1.48,4.98 2.58,3.83 2.55,2.45 2.52,1.09 1.41,0 0.05,0 Z m 42.09,0.91 c -0.03,1.38 1.06,2.53 2.44,2.56 1.38,0.03 2.53,-1.06 2.56,-2.44 0.03,-1.38 -1.06,-2.53 -2.44,-2.56 h -0.06 c -1.36,0 -2.47,1.08 -2.5,2.44 M -2.44,-2.55 c -0.02,1.38 1.08,2.52 2.46,2.54 C 1.4,0.01 2.54,-1.09 2.56,-2.47 2.58,-3.85 1.48,-4.99 0.1,-5.01 H 0.06 c -1.36,0 -2.48,1.09 -2.5,2.46 m 44.6,-1.5 c 0,1.38 1.11,2.51 2.49,2.52 1.38,0.01 2.51,-1.11 2.51,-2.49 0.01,-1.38 -1.1,-2.5 -2.48,-2.51 h -0.02 c -1.37,0 -2.49,1.11 -2.5,2.48 M -2.31,-7.61 c -0.05,1.38 1.03,2.54 2.41,2.59 1.38,0.04 2.54,-1.04 2.59,-2.42 0.05,-1.37 -1.03,-2.53 -2.41,-2.58 H 0.19 c -1.34,0 -2.45,1.06 -2.5,2.41 m 46.93,-3.92 c -1.38,0.01 -2.48,1.14 -2.47,2.52 0.02,1.38 1.15,2.49 2.53,2.47 1.38,-0.01 2.49,-1.14 2.47,-2.52 -0.02,-1.37 -1.13,-2.48 -2.5,-2.48 -0.01,0 -0.02,0.01 -0.03,0.01 m -46.7,-1.14 c -0.08,1.38 0.98,2.56 2.36,2.64 1.38,0.07 2.55,-0.99 2.63,-2.37 0.08,-1.37 -0.98,-2.55 -2.36,-2.63 H 0.41 c -1.32,0 -2.42,1.03 -2.49,2.36 m 46.56,-3.87 c -1.38,0.04 -2.47,1.19 -2.43,2.57 0.04,1.38 1.19,2.47 2.58,2.43 1.37,-0.04 2.46,-1.19 2.42,-2.57 -0.04,-1.36 -1.15,-2.43 -2.5,-2.43 z m -46.24,-1.18 v 0 c -0.1,1.38 0.93,2.58 2.31,2.68 1.38,0.1 2.58,-0.93 2.68,-2.31 0.1,-1.37 -0.93,-2.57 -2.31,-2.68 H 0.74 c -1.3,0 -2.4,1 -2.5,2.31 m 46,-3.82 c -1.37,0.06 -2.44,1.23 -2.37,2.61 0.06,1.38 1.23,2.45 2.61,2.38 1.38,-0.07 2.45,-1.24 2.38,-2.62 -0.06,-1.33 -1.17,-2.38 -2.5,-2.38 -0.04,0 -0.08,0 -0.12,0.01 m -45.56,-1.23 v 0 c -0.14,1.38 0.87,2.6 2.24,2.73 1.38,0.14 2.6,-0.87 2.73,-2.24 v -0.01 c 0.14,-1.37 -0.87,-2.59 -2.24,-2.72 -0.09,-0.01 -0.17,-0.02 -0.25,-0.02 -1.27,0 -2.36,0.97 -2.48,2.26 m 45.22,-3.77 c -1.38,0.09 -2.42,1.29 -2.32,2.67 0.09,1.37 1.29,2.41 2.67,2.32 1.37,-0.1 2.41,-1.29 2.32,-2.67 -0.09,-1.32 -1.19,-2.33 -2.5,-2.33 -0.05,0 -0.11,0.01 -0.17,0.01 m -44.67,-1.27 v 0 c -0.17,1.37 0.81,2.62 2.18,2.78 1.37,0.17 2.62,-0.81 2.78,-2.18 v 0.01 c 0.17,-1.38 -0.81,-2.62 -2.18,-2.79 -0.1,-0.01 -0.2,-0.02 -0.3,-0.02 -1.25,0 -2.33,0.93 -2.48,2.2 m 44.21,-3.72 c -1.37,0.13 -2.38,1.35 -2.26,2.72 0.13,1.38 1.35,2.39 2.72,2.26 1.38,-0.13 2.39,-1.34 2.26,-2.72 -0.12,-1.29 -1.21,-2.27 -2.48,-2.27 -0.08,0 -0.16,0.01 -0.24,0.01 m -43.53,-1.32 v 0.01 c -0.2,1.36 0.74,2.63 2.1,2.84 1.37,0.2 2.64,-0.73 2.85,-2.1 0.2,-1.36 -0.74,-2.64 -2.1,-2.84 -0.13,-0.02 -0.26,-0.03 -0.38,-0.03 -1.22,0 -2.28,0.89 -2.47,2.12 m 42.94,-3.65 c -1.38,0.17 -2.35,1.41 -2.19,2.78 0.17,1.37 1.41,2.35 2.79,2.19 1.37,-0.17 2.34,-1.42 2.18,-2.79 -0.16,-1.27 -1.23,-2.2 -2.48,-2.2 -0.1,0 -0.2,0.01 -0.3,0.02 m -42.1,-1.37 c -0.25,1.36 0.65,2.66 2.01,2.91 1.35,0.26 2.66,-0.64 2.91,-2 0.25,-1.36 -0.65,-2.66 -2.01,-2.91 -0.15,-0.03 -0.3,-0.04 -0.45,-0.04 -1.19,0 -2.24,0.84 -2.46,2.04 m 41.34,-3.58 c -1.37,0.21 -2.31,1.49 -2.1,2.85 v 0.01 c 0.22,1.36 1.49,2.3 2.86,2.08 1.36,-0.21 2.3,-1.48 2.09,-2.85 -0.19,-1.23 -1.26,-2.12 -2.47,-2.12 -0.13,0 -0.26,0.01 -0.38,0.03 M 1.78,-42.87 c -0.31,1.34 0.53,2.68 1.88,2.99 1.35,0.3 2.69,-0.54 2.99,-1.89 0.31,-1.35 -0.54,-2.68 -1.88,-2.99 -0.19,-0.04 -0.38,-0.06 -0.56,-0.06 -1.14,0 -2.17,0.79 -2.43,1.95 m 39.34,-3.49 c -1.35,0.26 -2.23,1.58 -1.97,2.93 0.27,1.36 1.58,2.24 2.94,1.97 1.35,-0.26 2.23,-1.57 1.97,-2.93 -0.23,-1.19 -1.28,-2.02 -2.45,-2.02 -0.16,0 -0.32,0.02 -0.49,0.05 M 3.03,-47.85 v 0 c -0.37,1.33 0.4,2.71 1.73,3.08 1.33,0.371 2.71,-0.4 3.08,-1.74 0.38,-1.32 -0.4,-2.7 -1.73,-3.08 -0.23,-0.059 -0.45,-0.09 -0.67,-0.09 -1.1,0 -2.1,0.72 -2.41,1.83 m 36.88,-3.37 c -1.34,0.34 -2.15,1.7 -1.82,3.04 0.34,1.34 1.7,2.15 3.04,1.81 1.34,-0.34 2.15,-1.69 1.81,-3.029 -0.28,-1.141 -1.3,-1.891 -2.42,-1.891 -0.2,0 -0.41,0.02 -0.61,0.07 M 4.58,-52.78 c -0.46,1.301 0.22,2.73 1.53,3.18 1.3,0.46 2.73,-0.22 3.18,-1.53 0.46,-1.3 -0.22,-2.73 -1.53,-3.18 -0.27,-0.1 -0.55,-0.15 -0.83,-0.15 -1.03,0 -1.99,0.65 -2.35,1.68 m 33.78,-3.199 c -1.31,0.429 -2.03,1.839 -1.6,3.149 0.43,1.32 1.84,2.03 3.16,1.601 1.31,-0.431 2.03,-1.841 1.6,-3.151 -0.35,-1.059 -1.33,-1.73 -2.38,-1.73 -0.26,0 -0.52,0.04 -0.78,0.131 M 22.45,-72.08 c -1.38,0.15 -2.36,1.391 -2.21,2.76 0,0.03 0.01,0.06 0.01,0.091 -0.01,-0.021 -0.02,-0.041 -0.04,-0.071 -0.66,-1.21 -2.19,-1.639 -3.39,-0.97 -1.21,0.67 -1.65,2.19 -0.98,3.4 0.02,0.03 0.04,0.06 0.06,0.1 -0.01,-0.02 -0.03,-0.03 -0.04,-0.05 -1.01,-0.94 -2.59,-0.9 -3.54,0.11 -0.95,1 -0.9,2.59 0.11,3.53 0.02,0.02 0.04,0.04 0.06,0.06 -0.01,-0.01 -0.03,-0.02 -0.04,-0.029 -1.17,-0.721 -2.71,-0.361 -3.44,0.809 -0.73,1.17 -0.37,2.71 0.8,3.441 0.04,0.019 0.08,0.049 0.11,0.069 -0.03,-0.02 -0.06,-0.04 -0.09,-0.05 -1.26,-0.57 -2.74,-0.019 -3.32,1.24 -0.57,1.26 -0.01,2.741 1.24,3.31 1.26,0.57 2.74,0.02 3.32,-1.24 0.54,-1.19 0.06,-2.59 -1.06,-3.22 1.14,0.58 2.55,0.2 3.24,-0.91 0.66,-1.06 0.43,-2.41 -0.47,-3.199 0.99,0.649 2.34,0.509 3.18,-0.381 0.79,-0.84 0.89,-2.09 0.31,-3.03 0.77,0.76 1.98,0.96 2.97,0.411 0.94,-0.521 1.41,-1.551 1.26,-2.551 0.46,0.89 1.44,1.46 2.5,1.34 1.05,-0.119 1.87,-0.869 2.14,-1.82 0.06,0.97 0.7,1.86 1.68,2.201 1,0.339 2.07,0.009 2.72,-0.75 -0.39,0.939 -0.17,2.069 0.63,2.799 v -0.009 c 0.87,0.799 2.15,0.859 3.08,0.229 -0.82,0.82 -0.98,2.11 -0.33,3.12 0.69,1.08 2.07,1.45 3.19,0.901 -1.09,0.629 -1.56,1.989 -1.03,3.169 0.56,1.27 2.03,1.84 3.3,1.28 1.26,-0.56 1.83,-2.04 1.27,-3.3 -0.56,-1.26 -2.04,-1.83 -3.3,-1.27 -0.03,0.01 -0.06,0.02 -0.09,0.04 0.04,-0.02 0.08,-0.05 0.11,-0.07 1.16,-0.75 1.5,-2.29 0.75,-3.46 -0.75,-1.16 -2.29,-1.49 -3.45,-0.74 -0.02,0.01 -0.04,0.02 -0.05,0.03 0.02,-0.03 0.05,-0.06 0.08,-0.09 0.93,-1.02 0.86,-2.6 -0.16,-3.53 -1.02,-0.93 -2.6,-0.86 -3.53,0.16 -0.03,0.031 -0.05,0.05 -0.07,0.071 0.02,-0.04 0.04,-0.091 0.06,-0.141 0.44,-1.31 -0.25,-2.73 -1.56,-3.17 -1.31,-0.45 -2.73,0.25 -3.17,1.55 -0.02,0.05 -0.04,0.1 -0.05,0.16 0,-0.04 -0.01,-0.08 -0.01,-0.13 -0.14,-1.269 -1.22,-2.22 -2.48,-2.22 -0.09,0 -0.19,0.01 -0.28,0.02"
             style="fill:#fcb13a;fill-opacity:1;fill-rule:nonzero;stroke:none"
             id="path288" /></g><g
           id="g290"
           transform="translate(237.3911,150.291)"><path
             d="m 0,0 -0.147,0.242 c -5.657,8.798 -11.404,17.941 -16.779,27.1 -5.437,9.168 -10.727,18.38 -15.762,27.701 -2.578,4.77 -5.106,9.556 -7.548,14.356 0.647,0.538 1.295,1.075 1.943,1.599 1.575,1.284 3.167,2.552 4.761,3.817 -1.584,1.774 -3.163,3.552 -4.757,5.317 -6.748,7.475 -13.557,15.202 -19.289,23.594 -1.677,-1.47 -3.351,-2.95 -5.01,-4.449 -2.566,-2.345 -5.111,-4.715 -7.632,-7.118 -6.249,-5.955 -7.527,-15.509 -3.022,-22.872 0.026,-0.042 0.051,-0.084 0.077,-0.126 2.816,-4.821 5.849,-9.485 8.809,-14.189 0.916,-1.389 1.833,-2.778 2.749,-4.155 2.152,-3.236 4.315,-6.446 6.55,-9.617 12.522,-17.942 25.846,-34.893 40.499,-51.254 0.182,-0.203 0.366,-0.419 0.548,-0.622 2.844,-3.169 7.645,-3.906 11.343,-1.524 4.025,2.583 5.25,7.877 2.814,11.958 C 0.106,-0.157 0.054,-0.085 0,0"
             style="fill:#ed8d5d;fill-opacity:1;fill-rule:nonzero;stroke:none"
             id="path292" /></g><g
           id="g294"
           transform="translate(235.4751,150.9541)"><path
             d="m 0,0 c 0,0 15.524,-6.565 15.246,-9.072 -0.28,-2.508 -8.538,-2.113 -8.538,-2.113 0,0 10.862,-14.988 9.502,-16.806 -1.36,-1.819 -10.944,9.702 -10.944,9.702 0,0 5.897,-10.946 4.291,-12.913 -1.606,-1.966 -9.528,11.834 -9.528,11.834 0,0 3.301,-12.226 0.712,-13.111 -2.589,-0.883 -5.8,14.07 -5.8,14.07 0,0 0.392,-9.013 -1.558,-9.29 -1.95,-0.279 -6.698,19.713 -6.698,19.713 z"
             style="fill:#ed8d5d;fill-opacity:1;fill-rule:nonzero;stroke:none"
             id="path296" /></g><g
           id="g298"
           transform="translate(191.2817,225.1768)"><path
             d="m 0,0 5.584,-5.584 -1.655,5.17"
             style="fill:none;stroke:#0b334c;stroke-width:0.931;stroke-linecap:round;stroke-linejoin:round;stroke-miterlimit:10;stroke-dasharray:none;stroke-opacity:1"
             id="path300" /></g><g
           id="g302"
           transform="translate(229.9561,242.7559)"><path
             d="M 0,0 14.063,9.72 1.241,-4.964 Z"
             style="fill:#0b334c;fill-opacity:1;fill-rule:nonzero;stroke:none"
             id="path304" /></g><g
           id="g306"
           transform="translate(174.1157,251.5454)"><path
             d="M 0,0 27.3,-30.091 74.454,5.273 63.286,42.5 c 0,0 -11.478,-3.102 -17.993,-8.686 C 38.778,28.23 0,0 0,0"
             style="fill:#1f5b99;fill-opacity:1;fill-rule:nonzero;stroke:none"
             id="path308" /></g><g
           id="g310"
           transform="translate(310.6001,347.23)"><path
             d="m 0,0 c -1.56,-3.84 -7.58,-8.34 -11.47,-6.91 -0.64,-4.21 -1.48,-7.8 -2.59,-10.26 -2,-4.45 -5.39,-7.94 -8.96,-10.6 -2.58,-1.93 -5.24,-3.42 -7.56,-4.53 -4.12,-1.97 -8.91,-1.96 -13.03,0.02 -0.58,0.28 -1.18,0.58 -1.79,0.92 -1.72,0.9 -3.56,2.01 -5.36,3.34 -3.69,2.69 -7.24,6.29 -9.31,10.91 -1.09,2.44 -1.92,6.02 -2.55,10.2 -2.72,-0.97 -6.47,0.93 -9.01,3.47 -1.09,1.1 -1.96,2.31 -2.43,3.46 -1.33,3.25 -0.24,6.88 2.43,8.91 0.06,0.05 0.13,0.1 0.2,0.15 0.16,0.11 0.32,0.21 0.48,0.31 0.17,0.1 0.34,0.2 0.51,0.28 0.18,0.09 0.36,0.17 0.54,0.25 0.24,0.1 0.47,0.18 0.71,0.25 1.29,0.39 2.63,0.41 3.88,0.1 0.41,-0.08 0.81,-0.21 1.2,-0.37 -0.03,0.65 -0.06,1.31 -0.08,1.96 -0.06,1.58 0.01,3.13 0.22,4.64 1.73,13.26 13.14,23.57 26.98,23.55 15.03,-0.02 27.15,-12.21 27.15,-27.1 0,-0.38 0,-0.77 -0.02,-1.16 -0.02,-0.63 -0.05,-1.27 -0.08,-1.9 1.08,0.44 2.25,0.64 3.44,0.56 0.13,-0.01 0.27,-0.02 0.41,-0.04 0.36,-0.04 0.73,-0.12 1.1,-0.22 0.28,-0.07 0.56,-0.17 0.84,-0.28 C -0.27,8.32 1.59,3.88 0,0"
             style="fill:#ed8d5d;fill-opacity:1;fill-rule:nonzero;stroke:none"
             id="path312" /></g><g
           id="g314"
           transform="translate(282.1694,336.4468)"><path
             d="m 0,0 c 0,-3.562 2.886,-6.45 6.448,-6.451 3.562,-0.001 6.45,2.887 6.451,6.448 C 12.9,3.559 10.013,6.447 6.451,6.448 2.889,6.449 0.001,3.562 0,0"
             style="fill:#e6794e;fill-opacity:1;fill-rule:nonzero;stroke:none"
             id="path316" /></g><g
           id="g318"
           transform="translate(252.0723,336.4536)"><path
             d="m 0,0 c -0.001,-3.562 2.886,-6.45 6.448,-6.451 3.562,-0.001 6.45,2.886 6.451,6.448 0,3.562 -2.886,6.45 -6.448,6.451 C 2.889,6.449 0,3.562 0,0"
             style="fill:#e6794e;fill-opacity:1;fill-rule:nonzero;stroke:none"
             id="path320" /></g><g
           id="g322"
           transform="translate(273.3687,351.0698)"><path
             d="m 0,0 c 0.409,-1.233 0.787,-2.31 1.182,-3.423 0.383,-1.108 0.759,-2.238 1.021,-3.451 0.126,-0.612 0.232,-1.213 0.279,-1.882 0.04,-0.666 0.022,-1.424 -0.264,-2.17 -0.281,-0.759 -0.835,-1.345 -1.412,-1.705 -0.592,-0.358 -1.187,-0.578 -1.831,-0.7 0.742,1.069 1.462,2.036 1.443,2.872 0.043,0.825 -0.297,1.937 -0.527,3.09 -0.243,1.142 -0.472,2.346 -0.531,3.606 C -0.694,-2.512 -0.574,-1.174 0,0"
             style="fill:#0b334c;fill-opacity:1;fill-rule:nonzero;stroke:none"
             id="path324" /></g><g
           id="g326"
           transform="translate(280.0493,358.6895)"><path
             d="M 0,0 C 0.838,0.436 1.652,0.605 2.536,0.677 3.409,0.742 4.309,0.622 5.173,0.357 6.043,0.107 6.859,-0.386 7.524,-0.991 8.213,-1.589 8.648,-2.393 8.969,-3.167 9.075,-3.422 8.954,-3.714 8.699,-3.82 8.513,-3.897 8.307,-3.853 8.168,-3.725 L 8.116,-3.676 C 7.571,-3.168 7.073,-2.688 6.468,-2.396 5.886,-2.083 5.285,-1.853 4.634,-1.755 3.989,-1.643 3.323,-1.634 2.643,-1.639 1.974,-1.646 1.236,-1.714 0.586,-1.734 L 0.453,-1.738 C -0.055,-1.753 -0.48,-1.354 -0.496,-0.845 -0.506,-0.48 -0.303,-0.158 0,0"
             style="fill:#0b334c;fill-opacity:1;fill-rule:nonzero;stroke:none"
             id="path328" /></g><g
           id="g330"
           transform="translate(266.5146,356.959)"><path
             d="M 0,0 C -0.651,0.02 -1.388,0.088 -2.057,0.095 -2.737,0.101 -3.403,0.092 -4.048,-0.02 -4.699,-0.117 -5.3,-0.347 -5.883,-0.659 -6.487,-0.951 -6.986,-1.432 -7.531,-1.939 l -0.052,-0.048 c -0.202,-0.188 -0.518,-0.176 -0.706,0.026 -0.137,0.147 -0.167,0.356 -0.095,0.531 0.321,0.775 0.757,1.578 1.446,2.176 0.665,0.605 1.481,1.097 2.351,1.347 0.865,0.264 1.765,0.384 2.638,0.319 C -1.065,2.34 -0.251,2.169 0.586,1.733 1.038,1.499 1.213,0.942 0.978,0.491 0.81,0.167 0.476,-0.014 0.134,-0.004 Z"
             style="fill:#0b334c;fill-opacity:1;fill-rule:nonzero;stroke:none"
             id="path332" /></g><g
           id="g334"
           transform="translate(261.3428,347.5352)"><path
             d="m 0,0 c 0,-2.164 1.09,-3.917 2.436,-3.918 1.345,0 2.437,1.753 2.437,3.917 C 4.874,2.163 3.783,3.917 2.438,3.917 1.092,3.917 0,2.164 0,0"
             style="fill:#0b334c;fill-opacity:1;fill-rule:nonzero;stroke:none"
             id="path336" /></g><g
           id="g338"
           transform="translate(280.9297,347.5308)"><path
             d="m 0,0 c 0,-2.164 1.09,-3.918 2.436,-3.918 1.345,0 2.437,1.753 2.437,3.917 C 4.874,2.163 3.783,3.917 2.438,3.917 1.092,3.917 0,2.164 0,0"
             style="fill:#0b334c;fill-opacity:1;fill-rule:nonzero;stroke:none"
             id="path340" /></g><g
           id="g342"
           transform="translate(268.311,332.7451)"><path
             d="M 0,0 C -0.345,-0.046 -0.681,-0.012 -1.011,0.043 -1.344,0.093 -1.665,0.196 -1.977,0.321 -2.284,0.46 -2.591,0.61 -2.855,0.833 -3.122,1.048 -3.372,1.299 -3.516,1.618 -2.9,1.319 -2.347,1.093 -1.756,0.85 -1.468,0.719 -1.17,0.608 -0.881,0.462 -0.588,0.323 -0.293,0.184 0,0"
             style="fill:#0b334c;fill-opacity:1;fill-rule:nonzero;stroke:none"
             id="path344" /></g><g
           id="g346"
           transform="translate(274.1553,334.896)"><path
             d="m 0,0 c -0.908,-0.573 -1.957,-0.896 -3.038,-1.036 -1.082,-0.141 -2.225,-0.041 -3.295,0.356 -0.259,0.122 -0.532,0.215 -0.774,0.368 L -7.823,0.163 C -8.229,0.565 -8.671,0.937 -8.939,1.439 -9.584,2.365 -9.83,3.467 -9.912,4.517 -9.611,4.062 -9.415,3.586 -9.129,3.164 -8.833,2.75 -8.583,2.321 -8.229,1.983 -7.588,1.262 -6.814,0.701 -5.921,0.389 -5.044,0.042 -4.074,-0.1 -3.079,-0.146 -2.082,-0.177 -1.057,-0.122 0,0"
             style="fill:#0b334c;fill-opacity:1;fill-rule:nonzero;stroke:none"
             id="path348" /></g><g
           id="g350"
           transform="translate(266.7729,389.1851)"><path
             d="m 0,0 c -8.14,-1.241 -14.109,-5.1 -18.464,-9.704 -5.994,-6.341 -9.146,-14.692 -9.307,-23.292 0.509,0.385 1.08,0.708 1.7,0.956 1.512,0.621 3.098,0.712 4.578,0.37 1.802,-4.594 4.324,-9.491 4.324,-9.491 l 2.481,5.998 c 25.646,6.205 24.611,18.2 24.611,18.2 0,0 8.48,-17.786 16.545,-18.614 0,0 2.069,-5.997 2.896,-5.584 0.56,0.281 4.526,9.321 4.512,9.096 1.539,0.633 3.276,0.77 4.964,0.298 C 38.096,-13.563 23.912,3.648 0,0"
             style="fill:#0b334c;fill-opacity:1;fill-rule:nonzero;stroke:none"
             id="path352" /></g><g
           id="g354"
           transform="translate(261.4746,306.8594)"><path
             d="m 0,0 c 1.264,3.284 0.95,7.733 -1.635,12.351 -3.69,2.69 -7.24,6.29 -9.309,10.91 -1.091,2.44 -1.921,6.02 -2.551,10.199 -2.72,-0.969 -6.47,0.931 -9.01,3.471 0.48,-5.649 1.747,-11.888 4.492,-17.583 -1.234,-3.171 -3.934,-11.552 -0.942,-17.765 -1.414,-4.507 -2.777,-11.368 0.114,-15.61 -1.492,-3.883 -4.449,-13.239 -0.746,-18.455 -1.74,-4.908 -4.302,-14.763 1.263,-18.997 -3.718,-3.107 -5.168,-8.846 -2.407,-13.778 l 17.207,-2.031 c 0,0 2.31,10.184 -1.734,15.226 5.392,3.435 6.694,11.951 2.768,19.564 3.295,4.206 3.584,11.24 0.195,17.597 C 0.937,-11.503 1.857,-5.732 0,0"
             style="fill:#0b334c;fill-opacity:1;fill-rule:nonzero;stroke:none"
             id="path356" /></g><g
           id="g358"
           transform="translate(300.2227,325.2896)"><path
             d="m 0,0 v 0 c 1.852,-0.35 3.637,0.868 3.987,2.719 l 5.608,29.67 c 0.35,1.852 -0.867,3.637 -2.72,3.987 -1.852,0.35 -3.636,-0.868 -3.986,-2.719 L -2.719,3.987 C -3.069,2.135 -1.852,0.35 0,0"
             style="fill:#00a2dd;fill-opacity:1;fill-rule:nonzero;stroke:none"
             id="path360" /></g><g
           id="g362"
           transform="translate(385.459,212.8232)"><path
             d="M 0,0 V 35.771 H -28.116 V 0 c 0,-4.304 -3.489,-7.794 -7.794,-7.794 24.775,-36.745 43.982,0 43.982,0 H 7.794 C 3.489,-7.794 0,-4.304 0,0"
             style="fill:#ffa58a;fill-opacity:1;fill-rule:nonzero;stroke:none"
             id="path364" /></g><g
           id="g366"
           transform="translate(385.4697,229.3496)"><path
             d="m 0,0 v -5.532 c -2.486,-1.813 -5.044,-3.254 -7.275,-4.323 -4.162,-2.023 -9.02,-2.023 -13.204,-0.024 -2.348,1.116 -5.045,2.627 -7.648,4.603 v 5.532 c 2.603,-1.976 5.3,-3.486 7.648,-4.625 4.184,-2 9.042,-1.977 13.204,0.022 C -5.044,-3.277 -2.486,-1.836 0,0"
             style="fill:#0b334c;fill-opacity:1;fill-rule:nonzero;stroke:none"
             id="path368" /></g><g
           id="g370"
           transform="translate(348.8745,205.9424)"><path
             d="m 0,0 c 0,0 18.613,-11.995 43.431,0 0,0 22.233,0 26.266,-8.065 4.033,-8.067 13.029,-125.331 13.029,-125.331 H -32.366 c 0,0 1.241,111.371 6.514,120.987 C -20.578,-2.792 0,0 0,0"
             style="fill:#f64652;fill-opacity:1;fill-rule:nonzero;stroke:none"
             id="path372" /></g><g
           id="g374"
           transform="translate(495.8662,120.6563)"><path
             d="M 0,0 C -1.638,2.221 -3.288,4.417 -4.963,6.602 -5.587,7.4 -6.23,8.179 -6.86,8.972 h -50.224 c 0.948,-0.907 1.905,-1.805 2.845,-2.718 4.827,-4.666 9.567,-9.406 14.171,-14.233 -6.019,-0.931 -12.074,-1.775 -18.142,-2.543 -10.646,-1.353 -21.368,-2.446 -32.127,-3.376 -10.721,-0.98 -21.641,-1.638 -32.238,-2.184 l -0.285,-0.013 c -0.1,0 -0.199,-0.011 -0.286,-0.024 h -0.002 c -4.043,2.355 -13.047,7.354 -14.513,6.035 -1.901,-1.711 3.302,-8.282 3.302,-8.282 0,0 -18.764,0.097 -19.459,-2.098 -0.695,-2.194 14.458,-3.286 14.458,-3.286 0,0 -12.502,-1.606 -13.174,-4.092 -0.671,-2.484 15.377,-0.86 15.377,-0.86 0,0 -12.022,-4.501 -11.221,-7.156 0.8,-2.657 15.017,3.531 15.017,3.531 0,0 -7.657,-5 -6.734,-6.772 0.709,-1.361 12.253,2.987 17.561,5.072 22.119,-2.406 43.954,-3.386 66.136,-3.101 5.609,0.05 11.217,0.261 16.838,0.472 5.622,0.335 11.255,0.595 16.902,1.13 2.022,0.148 4.032,0.322 6.055,0.52 0.599,0.057 1.198,0.114 1.796,0.175 11.024,1.104 19.411,10.404 19.411,21.483 0,4.569 -1.434,9.032 -4.138,12.715 C 0.312,-0.422 0.156,-0.211 0,0"
             style="fill:#ffa58a;fill-opacity:1;fill-rule:nonzero;stroke:none"
             id="path376" /></g><g
           id="g378"
           transform="translate(458.2803,106.8779)"><path
             d="M 0,0 -2.896,5.998 1.861,3.516"
             style="fill:none;stroke:#0b334c;stroke-width:0.931;stroke-linecap:round;stroke-linejoin:round;stroke-miterlimit:10;stroke-dasharray:none;stroke-opacity:1"
             id="path380" /></g><g
           id="g382"
           transform="translate(450.7832,117.8389)"><path
             d="m 0,0 46.964,0.015 c 0,0 2.176,-4.059 2.292,-6.263 z"
             style="fill:#0b334c;fill-opacity:1;fill-rule:nonzero;stroke:none"
             id="path384" /></g><g
           id="g386"
           transform="translate(394.4531,205.9424)"><path
             d="m 0,0 c 0,0 13.753,4.033 41.053,-19.854 27.3,-23.887 63.905,-68.25 63.905,-68.25 H 52.531 c 0,0 -35.055,35.987 -55.841,49.636 0,0 -21.301,20.475 3.31,38.468"
             style="fill:#f64652;fill-opacity:1;fill-rule:nonzero;stroke:none"
             id="path388" /></g><g
           id="g390"
           transform="translate(446.6982,121.3555)"><path
             d="M 0,0 H 47.36"
             style="fill:none;stroke:#0b334c;stroke-width:0.931;stroke-linecap:round;stroke-linejoin:round;stroke-miterlimit:10;stroke-dasharray:none;stroke-opacity:1"
             id="path392" /></g><g
           id="g394"
           transform="translate(382.957,102.29)"><path
             d="M 0,0 C 0,0 5.203,6.571 3.303,8.282 1.837,9.602 -7.167,4.603 -11.21,2.247 h -0.003 c -0.087,0.013 -0.186,0.024 -0.285,0.024 l -0.286,0.013 c -10.597,0.546 -21.517,1.204 -32.238,2.184 -10.758,0.93 -21.48,2.023 -32.126,3.376 -6.068,0.768 -12.124,1.612 -18.143,2.543 4.604,4.827 9.345,9.567 14.171,14.233 0.94,0.913 1.897,1.812 2.846,2.718 h -50.224 c -0.63,-0.793 -1.273,-1.571 -1.897,-2.37 -1.675,-2.185 -3.326,-4.381 -4.964,-6.602 l -0.466,-0.633 c -2.703,-3.683 -4.137,-8.146 -4.137,-12.714 0,-11.08 8.386,-20.379 19.41,-21.484 0.599,-0.06 1.198,-0.118 1.797,-0.175 2.022,-0.198 4.032,-0.372 6.055,-0.52 5.646,-0.534 11.28,-0.795 16.901,-1.13 5.621,-0.211 11.23,-0.422 16.839,-0.472 22.182,-0.285 44.016,0.696 66.135,3.101 5.308,-2.085 16.852,-6.433 17.561,-5.071 0.923,1.771 -6.733,6.771 -6.733,6.771 0,0 14.216,-6.187 15.017,-3.531 0.8,2.655 -11.222,7.156 -11.222,7.156 0,0 16.048,-1.624 15.377,0.86 -0.671,2.486 -13.173,4.092 -13.173,4.092 0,0 15.152,1.092 14.458,3.286 C 18.765,0.098 0,0 0,0"
             style="fill:#ffa58a;fill-opacity:1;fill-rule:nonzero;stroke:none"
             id="path396" /></g><g
           id="g398"
           transform="translate(274.0078,109.5664)"><path
             d="M 0,0 14.891,3.103 6.825,-2.378"
             style="fill:none;stroke:#0b334c;stroke-width:0.931;stroke-linecap:round;stroke-linejoin:round;stroke-miterlimit:10;stroke-dasharray:none;stroke-opacity:1"
             id="path400" /></g><g
           id="g402"
           transform="translate(293.5518,117.8389)"><path
             d="m 0,0 h -47.051 c 0,0 -1.551,-3.929 -1.654,-4.757 C -48.809,-5.584 0,0 0,0"
             style="fill:#0b334c;fill-opacity:1;fill-rule:nonzero;stroke:none"
             id="path404" /></g><g
           id="g406"
           transform="translate(348.8745,205.9424)"><path
             d="m 0,0 c 0,0 -13.753,4.033 -41.053,-19.854 -27.299,-23.887 -63.905,-68.25 -63.905,-68.25 h 52.427 c 0,0 35.055,35.987 55.84,49.636 0,0 21.302,20.475 -3.309,38.468"
             style="fill:#f64652;fill-opacity:1;fill-rule:nonzero;stroke:none"
             id="path408" /></g><g
           id="g410"
           transform="translate(345.9795,202.6338)"><path
             d="M 0,0 C 0,0 20.268,-17.786 48.809,0"
             style="fill:none;stroke:#0b334c;stroke-width:0.931;stroke-linecap:round;stroke-linejoin:round;stroke-miterlimit:10;stroke-dasharray:none;stroke-opacity:1"
             id="path412" /></g><g
           id="g414"
           transform="translate(251.6714,123.6299)"><path
             d="M 0,0 H 45.293"
             style="fill:none;stroke:#0b334c;stroke-width:0.931;stroke-linecap:round;stroke-linejoin:round;stroke-miterlimit:10;stroke-dasharray:none;stroke-opacity:1"
             id="path416" /></g><g
           id="g418"
           transform="translate(404.8672,267.7788)"><path
             d="m 0,0 c -1.96,0.801 -4.059,0.735 -5.871,-0.019 0.031,0.661 0.06,1.323 0.087,1.983 0.626,15.623 -11.936,28.604 -27.572,28.588 -15.634,-0.016 -28.168,-13.021 -27.511,-28.641 0.027,-0.643 0.056,-1.287 0.088,-1.932 -1.813,0.756 -3.914,0.823 -5.875,0.021 -3.937,-1.61 -5.823,-6.106 -4.214,-10.042 1.591,-3.889 7.688,-8.453 11.631,-7.009 0.648,-4.266 1.499,-7.909 2.619,-10.394 3.505,-7.776 11.159,-12.667 16.751,-15.343 4.177,-1.999 9.031,-1.991 13.204,0.017 5.577,2.684 13.194,7.582 16.687,15.375 1.11,2.475 1.951,6.097 2.588,10.336 3.944,-1.411 10.015,3.138 11.601,7.018 C 5.823,-6.106 3.937,-1.61 0,0"
             style="fill:#ffa58a;fill-opacity:1;fill-rule:nonzero;stroke:none"
             id="path420" /></g><g
           id="g422"
           transform="translate(371.748,261.6216)"><path
             d="M 0,0 C 0.581,-1.189 0.703,-2.546 0.648,-3.814 0.587,-5.092 0.355,-6.312 0.109,-7.47 c -0.234,-1.168 -0.579,-2.296 -0.535,-3.133 -0.019,-0.847 0.71,-1.827 1.462,-2.911 -0.653,0.123 -1.256,0.347 -1.856,0.711 -0.585,0.365 -1.146,0.958 -1.431,1.727 -0.29,0.757 -0.308,1.526 -0.268,2.201 0.048,0.678 0.157,1.287 0.284,1.908 0.265,1.229 0.647,2.374 1.036,3.498 C -0.798,-2.341 -0.415,-1.25 0,0"
             style="fill:#0b334c;fill-opacity:1;fill-rule:nonzero;stroke:none"
             id="path424" /></g><g
           id="g426"
           transform="translate(364.3828,267.5903)"><path
             d="M 0,0 C -0.66,0.02 -1.407,0.088 -2.085,0.096 -2.774,0.102 -3.45,0.093 -4.104,-0.021 -4.763,-0.12 -5.373,-0.354 -5.963,-0.669 -6.576,-0.966 -7.082,-1.453 -7.634,-1.967 l -0.052,-0.049 c -0.205,-0.191 -0.525,-0.179 -0.715,0.026 -0.14,0.149 -0.171,0.361 -0.098,0.538 0.326,0.786 0.768,1.6 1.466,2.207 0.674,0.613 1.501,1.112 2.383,1.366 0.877,0.267 1.789,0.389 2.674,0.323 C -1.08,2.372 -0.255,2.199 0.594,1.757 1.052,1.519 1.229,0.956 0.991,0.498 0.821,0.17 0.482,-0.014 0.136,-0.004 Z"
             style="fill:#0b334c;fill-opacity:1;fill-rule:nonzero;stroke:none"
             id="path428" /></g><g
           id="g430"
           transform="translate(378.1035,269.3477)"><path
             d="M 0,0 C 0.85,0.442 1.674,0.614 2.569,0.687 3.455,0.753 4.367,0.631 5.244,0.364 6.126,0.11 6.953,-0.389 7.627,-1.002 8.325,-1.609 8.767,-2.423 9.093,-3.209 9.199,-3.467 9.077,-3.763 8.818,-3.87 8.63,-3.948 8.421,-3.904 8.28,-3.773 l -0.052,0.048 c -0.552,0.515 -1.058,1.002 -1.671,1.298 -0.59,0.316 -1.2,0.55 -1.86,0.649 C 4.044,-1.665 3.368,-1.656 2.679,-1.661 2.001,-1.669 1.253,-1.737 0.594,-1.757 L 0.459,-1.762 c -0.515,-0.015 -0.945,0.39 -0.961,0.905 C -0.514,-0.487 -0.308,-0.161 0,0"
             style="fill:#0b334c;fill-opacity:1;fill-rule:nonzero;stroke:none"
             id="path432" /></g><g
           id="g434"
           transform="translate(383.9385,258.0356)"><path
             d="m 0,0 c 0,-2.193 -1.106,-3.971 -2.471,-3.971 -1.363,0 -2.469,1.778 -2.469,3.971 0,2.193 1.106,3.972 2.469,3.972 C -1.106,3.972 0,2.193 0,0"
             style="fill:#0b334c;fill-opacity:1;fill-rule:nonzero;stroke:none"
             id="path436" /></g><g
           id="g438"
           transform="translate(364.082,258.0356)"><path
             d="m 0,0 c 0,-2.193 -1.106,-3.971 -2.47,-3.971 -1.364,0 -2.47,1.778 -2.47,3.971 0,2.193 1.106,3.972 2.47,3.972 C -1.106,3.972 0,2.193 0,0"
             style="fill:#0b334c;fill-opacity:1;fill-rule:nonzero;stroke:none"
             id="path440" /></g><g
           id="g442"
           transform="translate(376.8711,243.0449)"><path
             d="M 0,0 C 0.297,0.187 0.596,0.327 0.893,0.468 1.186,0.616 1.488,0.729 1.779,0.86 L 2.665,1.227 C 2.96,1.353 3.246,1.487 3.563,1.64 3.418,1.316 3.164,1.062 2.895,0.843 2.626,0.618 2.315,0.466 2.004,0.325 1.687,0.198 1.362,0.094 1.025,0.043 0.689,-0.013 0.35,-0.048 0,0"
             style="fill:#0b334c;fill-opacity:1;fill-rule:nonzero;stroke:none"
             id="path444" /></g><g
           id="g446"
           transform="translate(370.9468,245.2266)"><path
             d="m 0,0 c 1.072,-0.124 2.11,-0.18 3.122,-0.148 1.008,0.045 1.991,0.189 2.88,0.541 0.906,0.315 1.691,0.884 2.34,1.616 0.36,0.342 0.613,0.777 0.913,1.196 0.29,0.428 0.489,0.91 0.794,1.371 C 9.965,3.512 9.716,2.395 9.062,1.456 8.791,0.947 8.342,0.571 7.93,0.163 L 7.205,-0.318 C 6.958,-0.474 6.682,-0.567 6.42,-0.691 5.334,-1.094 4.176,-1.194 3.079,-1.052 1.984,-0.908 0.92,-0.581 0,0"
             style="fill:#0b334c;fill-opacity:1;fill-rule:nonzero;stroke:none"
             id="path448" /></g><g
           id="g450"
           transform="translate(405.665,297.3242)"><path
             d="m 0,0 c -2.107,7.227 -23.208,8.148 -41.17,2.468 0,0 1.162,14.69 -15.872,-9.806 0,0 -9.278,-5.427 -9.243,-12.045 0.026,-4.752 5.724,-13.738 8.937,-18.428 0.792,-1.157 2.588,-0.778 2.843,0.602 0.935,5.036 2.448,14.101 2.277,19.143 0,0 25.942,-8.379 38.288,-5.556 0.044,-4.184 0.298,-13.406 1.653,-13.878 1.756,-0.611 10.617,9.777 11.128,12.675 0.292,1.663 -0.944,5.737 -2.314,8.513 C 0.616,-11.118 1.472,-5.05 0,0"
             style="fill:#0b334c;fill-opacity:1;fill-rule:nonzero;stroke:none"
             id="path452" /></g><g
           id="g454"
           transform="translate(443.54,83.3008)"><path
             d="m 0,0 h -139.958 v 84.854 c 0,1.68 1.362,3.042 3.042,3.042 H -3.042 C -1.362,87.896 0,86.534 0,84.854 Z"
             style="fill:#8ee4fd;fill-opacity:1;fill-rule:nonzero;stroke:none"
             id="path456" /></g><g
           id="g458"
           transform="translate(383.3652,127.249)"><path
             d="m 0,0 c 0,-5.414 -4.39,-9.804 -9.804,-9.804 -5.415,0 -9.804,4.39 -9.804,9.804 0,5.415 4.389,9.804 9.804,9.804 C -4.39,9.804 0,5.415 0,0"
             style="fill:#1f5b99;fill-opacity:1;fill-rule:nonzero;stroke:none"
             id="path460" /></g></g></g><g
       id="g462"><g
         id="g464"
         clip-path="url(#clipPath468)"><path
           d="m 608.859,61 h -478.34 v 22.335 h 478.34 z"
           style="fill:#0b334c;fill-opacity:1;fill-rule:nonzero;stroke:none"
           id="path470" /><g
           id="g472"
           transform="translate(186.9404,186.4434)"><path
             d="m 0,0 c -2.672,0.669 1.775,5.924 4.574,8.91 -3.72,8.398 -8.797,14.402 -12.122,17.75 -1.798,1.811 -4.801,1.589 -6.285,-0.487 -7.3,-10.213 -9.568,-22.515 -9.231,-34.619 3.135,-1.192 9.512,-3.915 9.275,-6.283 -0.215,-2.151 -5.597,-0.463 -8.952,0.807 2.211,-24.753 13.966,-47.187 13.966,-47.187 19.682,26.732 20.43,48.366 15.671,63.813 C 4.727,1.09 1.977,-0.494 0,0"
             style="fill:#3adfe0;fill-opacity:1;fill-rule:nonzero;stroke:none"
             id="path474" /></g><g
           id="g476"
           transform="translate(175.3452,116.5586)"><path
             d="M 0,0 C -0.267,0.901 20.997,62.051 40.427,62.364 59.856,62.678 72.392,38.233 68.005,34.159 63.617,30.085 37.92,36.04 41.367,32.279 44.814,28.519 51.708,20.37 47.321,18.804 42.934,17.236 29.458,20.057 26.011,16.609 22.564,13.162 2.507,-8.461 0,0"
             style="fill:#2cd0d1;fill-opacity:1;fill-rule:nonzero;stroke:none"
             id="path478" /></g><g
           id="g480"
           transform="translate(182.2397,124.0801)"><path
             d="m 0,0 c 0,0 -20.997,56.723 -47.321,61.11 -26.325,4.387 -18.49,-34.786 -7.521,-32.905 10.968,1.88 24.444,7.521 22.877,1.566 -1.567,-5.954 -16.923,-16.609 -6.895,-20.056 10.028,-3.447 21.624,0.94 25.071,-4.074 C -10.342,0.627 -5.328,-4.701 0,0"
             style="fill:#2cd0d1;fill-opacity:1;fill-rule:nonzero;stroke:none"
             id="path482" /></g><g
           id="g484"
           transform="translate(194.5908,159.2412)"><path
             d="m 0,0 c -3.93,-5.171 -14.684,-29.368 -14.684,-29.368 0,0 -7.445,17.58 -12.616,25.645"
             style="fill:none;stroke:#0b334c;stroke-width:0.931;stroke-linecap:round;stroke-linejoin:round;stroke-miterlimit:10;stroke-dasharray:none;stroke-opacity:1"
             id="path486" /></g><g
           id="g488"
           transform="translate(179.9067,135.6641)"><path
             d="M 0,0 -2.896,72.799"
             style="fill:none;stroke:#0b334c;stroke-width:0.931;stroke-linecap:round;stroke-linejoin:round;stroke-miterlimit:10;stroke-dasharray:none;stroke-opacity:1"
             id="path490" /></g><g
           id="g492"
           transform="translate(196.9687,83.3398)"><path
             d="m 0,0 h -33.846 l -6.267,45.754 H 6.268 Z"
             style="fill:#fcb13a;fill-opacity:1;fill-rule:nonzero;stroke:none"
             id="path494" /></g><g
           id="g496"
           transform="translate(160.2593,123.2549)"><path
             d="M 0,0 H 39.708"
             style="fill:none;stroke:#0b334c;stroke-width:0.931;stroke-linecap:round;stroke-linejoin:round;stroke-miterlimit:10;stroke-dasharray:none;stroke-opacity:1"
             id="path498" /></g></g></g></g></svg>
