<svg xmlns="http://www.w3.org/2000/svg" viewBox="0 0 101.2 7.7"><defs><style>.cls-1{fill:#3b3b3b;}</style></defs><g id="Layer_2" data-name="Layer 2"><g id="Layer_1-2" data-name="Layer 1"><path class="cls-1" d="M56.7,7.7a1.4,1.4,0,0,1-.9-.3,2.1,2.1,0,0,1-.6-1,1.1,1.1,0,0,1,1-1.3.8.8,0,0,1,.7.1.9.9,0,0,1,.3.6c0,.2,0,.3-.1.3l-.3-.2c0-.1,0-.3-.2-.3s-.2-.2-.3-.1a.7.7,0,0,0-.7.8,1.2,1.2,0,0,0,.4.8l.8.2a2,2,0,0,0,1.1-.6,1.8,1.8,0,0,0,.3-1.2,2,2,0,0,0-1.9-1.9c-1.8-.3-4.5,1.1-5.5,3.6-.1.1-.2.2-.3.1s-.1-.1-.1-.2c1.2-2.8,4-4.2,6-3.9a2.5,2.5,0,0,1,2.2,2.3,1.8,1.8,0,0,1-.4,1.4,2.2,2.2,0,0,1-1.3.8Z"/><path class="cls-1" d="M44.5,7.7h-.2a2,2,0,0,1-1.7-2.2,2.4,2.4,0,0,1,2.2-2.3c1.9-.3,4.8,1.1,6,3.9,0,.1,0,.2-.1.2a.2.2,0,0,1-.3-.1c-1.1-2.5-3.7-3.9-5.5-3.6A2,2,0,0,0,43,5.5a1.6,1.6,0,0,0,1.3,1.8l.8-.2a1.4,1.4,0,0,0,.5-.8.8.8,0,0,0-.7-.8c-.1-.1-.3,0-.4.1s-.2.2-.2.3a.2.2,0,0,1-.2.2c-.1,0-.2-.1-.2-.3l.4-.6a.8.8,0,0,1,.7-.1c.6,0,1,.6,1,1.3a2.1,2.1,0,0,1-.6,1A1.6,1.6,0,0,1,44.5,7.7Z"/><path class="cls-1" d="M45.3,4.5h-.5a2.5,2.5,0,0,1-2.2-2.3A1.5,1.5,0,0,1,43,.8,1.7,1.7,0,0,1,44.3,0a2,2,0,0,1,1.1.3,2.1,2.1,0,0,1,.6,1,1.3,1.3,0,0,1-1,1.3.8.8,0,0,1-.7-.2.9.9,0,0,1-.4-.6.2.2,0,0,1,.4,0l.2.3h.4a.8.8,0,0,0,.7-.8,1.4,1.4,0,0,0-.5-.8,1.1,1.1,0,0,0-.8-.2,1.7,1.7,0,0,0-1,.6A1.3,1.3,0,0,0,43,2.2a2,2,0,0,0,1.9,1.9c1.8.3,4.4-1.2,5.5-3.7,0-.1.2-.1.3-.1a.4.4,0,0,1,.1.3A6.5,6.5,0,0,1,45.3,4.5Z"/><path class="cls-1" d="M55.9,4.5A6.5,6.5,0,0,1,50.4.6a.4.4,0,0,1,.1-.3h.3c1,2.5,3.7,4,5.5,3.7a2,2,0,0,0,1.9-1.9A1.6,1.6,0,0,0,56.8.4a1.3,1.3,0,0,0-.8.2,1.2,1.2,0,0,0-.4.8.7.7,0,0,0,.7.8h.3c.2-.1.2-.2.2-.3l.3-.2c.1,0,.2.1.1.2a.6.6,0,0,1-.3.6.8.8,0,0,1-.7.2,1.2,1.2,0,0,1-1-1.3,2.1,2.1,0,0,1,.6-1A2,2,0,0,1,56.9,0a1.8,1.8,0,0,1,1.3.8,1.8,1.8,0,0,1,.4,1.4,2.6,2.6,0,0,1-2.2,2.3Z"/><path class="cls-1" d="M100.2,4.1H57.7a.2.2,0,0,1,0-.4h42.5a.2.2,0,1,1,0,.4Z"/><path class="cls-1" d="M43.3,4.1H1C.8,4.1.8,4,.8,3.9s0-.2.2-.2H43.3a.2.2,0,1,1,0,.4Z"/><path class="cls-1" d="M101.2,3.9a1,1,0,0,1-1,1,1.1,1.1,0,0,1-1-1,1,1,0,0,1,1-1A.9.9,0,0,1,101.2,3.9Z"/><path class="cls-1" d="M2,3.9a1.1,1.1,0,0,1-1,1,1,1,0,0,1-1-1,.9.9,0,0,1,1-1A1,1,0,0,1,2,3.9Z"/></g></g></svg>
