<svg xmlns="http://www.w3.org/2000/svg" viewBox="0 0 413.4 439"><defs><style>.cls-1{fill:#e0e0e0;}.cls-2{fill:#f5f5f5;}.cls-3{fill:#ebebeb;}.cls-4{fill:#fafafa;}.cls-5{fill:#fff;}.cls-6{fill:#455a64;}.cls-7{fill:#263238;}.cls-8{fill:#f6ca6d;}.cls-9{fill:#ffbf9d;}.cls-10{fill:#ff9a6c;}.cls-11{fill:#148287;}.cls-12{opacity:0.3;}</style></defs><g id="Layer_2" data-name="Layer 2"><g id="Characters"><path class="cls-1" d="M395.4,192v-3.5c0-2.2,0-5.4-.1-9.4H346.7c.1-.1-.2.3.3-.2h0V192l-.3-.3h-.2V179.3h0c.5-.5.1-.1.2-.3h48.8v.2c0,4.1,0,7.3-.1,9.5V192Z"/><path class="cls-2" d="M216.1,394.7l-11,4.8.7-65.3c.4-7.8-3.2-11.1-5.2-13.4-17.7-20.1-44.1-5.5-44.3,14.9l-.7,58.3H144.9l1-61c.1-6.9,5.5-18.8,10.9-23.1,29.8-23.6,60.2.8,60,26.6Z"/><path class="cls-1" d="M216.1,394.7v-4.5c0-3,.1-7.4.1-13s.1-12.5.2-20.5c0-4,.1-8.2.1-12.8s.4-9.3-.5-14.2a34.7,34.7,0,0,0-6.1-14.3l-1.3-1.7-1.3-1.5a29.4,29.4,0,0,0-3.1-3l-1.6-1.3c-.6-.4-1.1-.9-1.8-1.3a34.4,34.4,0,0,0-3.8-2.2,36.3,36.3,0,0,0-8.4-3l-2.2-.4h-2.3l-2.3-.2h-2.4a35.8,35.8,0,0,0-18.1,6,43,43,0,0,0-7.4,6.8,35,35,0,0,0-7.9,18.8c-.3,3.5-.2,7.1-.3,10.7-.2,14.5-.3,29.5-.5,44.8,0,2.1,0,4.1-.1,6.1l-.2-.2h10.7l-.3.2c.2-11.6.3-22.9.4-33.9.1-5.5.2-11,.2-16.3.1-2.7.1-5.3.1-8a28.9,28.9,0,0,1,1.3-7.7,25,25,0,0,1,8.9-12.2l1.5-1.1,1.6-.9a20.7,20.7,0,0,1,3.4-1.5,20.1,20.1,0,0,1,3.5-1l1.8-.3h1.8a23.7,23.7,0,0,1,7,.6,23.5,23.5,0,0,1,6.4,2.4,25.7,25.7,0,0,1,9.4,9.1,26.4,26.4,0,0,1,2.6,5.7,31.3,31.3,0,0,1,1,6v5.9c-.1,1.9-.1,3.8-.1,5.6-.1,7.4-.2,14.1-.3,20.2-.1,12.2-.3,21.8-.3,28.1h-.1l8.1.2h-8.2c.1-6.3.1-15.9.3-28.1,0-6.1.1-12.8.2-20.2v-8.5c0-.5.1-1,.1-1.5a7.6,7.6,0,0,1-.1-1.5,24.1,24.1,0,0,0-3.5-11.5,24.9,24.9,0,0,0-9.3-8.9,24.1,24.1,0,0,0-6.3-2.4,22.8,22.8,0,0,0-6.9-.6h-.9l-.9.2-1.7.2-3.5,1c-1.1.4-2.2,1-3.3,1.5l-1.6.9-1.5,1.1a24.7,24.7,0,0,0-8.6,11.9,28.2,28.2,0,0,0-1.3,7.6c0,2.7-.1,5.3-.1,8-.1,5.3-.1,10.8-.2,16.3-.1,11-.2,22.3-.4,33.9v.3H144.6v-.3c.1-2,.1-4.1.1-6.1.2-15.3.4-30.3.5-44.8.1-3.6,0-7.2.3-10.8a39.4,39.4,0,0,1,2.7-10.2,35.9,35.9,0,0,1,5.4-8.8,35.8,35.8,0,0,1,25.8-12.9h2.4l2.7.2h1.4l2.3.4,1,.2a34.8,34.8,0,0,1,8,3,30,30,0,0,1,3.9,2.2,9.6,9.6,0,0,1,1.7,1.3,10.9,10.9,0,0,1,1.7,1.3,28.3,28.3,0,0,1,3,3,10.7,10.7,0,0,1,1.4,1.6,18.3,18.3,0,0,1,1.3,1.6,34.7,34.7,0,0,1,6.1,14.5c1,5,.5,9.9.5,14.4s-.1,8.8-.1,12.8c-.2,8-.2,14.9-.3,20.5s-.2,10-.2,12.9-.1,2.6-.1,3.4Z"/><path class="cls-1" d="M132.2,356.4h97a3.7,3.7,0,0,1,3.7,3.7v74.9a3.4,3.4,0,0,1-3.4,3.4H132.2a0,0,0,0,1,0,0V356.4A0,0,0,0,1,132.2,356.4Z" transform="translate(4.5 -2) rotate(0.7)"/><path class="cls-3" d="M131.7,356.3H217a4.1,4.1,0,0,1,4.1,4.1v73a5,5,0,0,1-5,5H131.8a4.2,4.2,0,0,1-4.2-4.2V360.4A4.1,4.1,0,0,1,131.7,356.3Z" transform="matrix(1, 0.01, -0.01, 1, 4.52, -1.95)"/><path class="cls-1" d="M187.4,390.3a11.5,11.5,0,1,0-14.7,10.8L165,416.8l19.8.6-5.9-16.3A11.5,11.5,0,0,0,187.4,390.3Z"/><path class="cls-4" d="M220.7,431.2c-.1,0,0-14.3.3-31.9s.6-31.9.7-31.9,0,14.3-.2,31.9S220.9,431.2,220.7,431.2Z"/><path class="cls-5" d="M199.9,359.1c0,.1-12.6.3-28.1.3s-28.1-.1-28.1-.2,12.6-.3,28.1-.3S199.9,358.9,199.9,359.1Z"/><path class="cls-5" d="M164,396.2l-.4-.8a8.7,8.7,0,0,1-.9-2.1,13.6,13.6,0,0,1,.2-7.7,13.3,13.3,0,0,1,4.5-6.2,9.4,9.4,0,0,1,2-1.2l.8-.3c.1.1-1.1.6-2.6,1.8a13.2,13.2,0,0,0-4.2,6.1,12.7,12.7,0,0,0-.3,7.4C163.5,395.1,164.1,396.1,164,396.2Z"/><path class="cls-5" d="M168.5,401.6c-.1.2-.7-.1-1.5-.6s-1.3-.9-1.2-1.1.7.2,1.5.7S168.6,401.5,168.5,401.6Z"/><path class="cls-5" d="M178.1,303.3l-2,.2a44.3,44.3,0,0,0-5.1,1.1,32,32,0,0,0-14.5,9.2,31.2,31.2,0,0,0-7.3,15.6,29.5,29.5,0,0,0-.5,5.2v2a1.8,1.8,0,0,0-.1-.5c0-.3-.1-.8-.1-1.5a27.2,27.2,0,0,1,.3-5.3,30.4,30.4,0,0,1,22.1-25,28.6,28.6,0,0,1,5.2-1h2Z"/><path class="cls-5" d="M148.2,345.4c-.2,0-.2-1.3-.2-3a9,9,0,0,1,.3-2.9,11.7,11.7,0,0,1,.2,3A9,9,0,0,1,148.2,345.4Z"/><rect class="cls-2" x="161.2" y="66.9" width="48.7" height="12.87"/><path class="cls-1" d="M189.2,93.3V89.9c0-2.2-.1-5.4-.1-9.5v.2H140.6c.1-.1-.3.2.2-.3h0V93.3l-.2-.2h-.3v-13h0c.5-.5.2-.1.3-.2h48.8c0,4.1-.1,7.3-.1,9.6v3.3Z"/><rect class="cls-2" x="336.1" y="289.1" width="48.7" height="12.87"/><path class="cls-1" d="M364.2,315.6v-3.5c0-2.2,0-5.4-.1-9.4H315.5c.1-.1-.2.3.3-.2h0v12.7l-.3-.3h-.2V302.9h0c.5-.5.1-.1.2-.3h48.8v.2c0,4.1,0,7.3-.1,9.5v3.4Z"/><path class="cls-1" d="M65.8,46.7v-.9c0-.6-.1-1.4-.1-2.5s0-5.4-.1-9.5l.2.2H17.1c.2-.1-.2.2.3-.3h0V46.7l-.3-.2h-.2V33.9h0l.2-.2H65.9v9.6c-.1,1.1-.1,1.9-.1,2.5v.8Z"/><path class="cls-1" d="M355.9,28.2v-.9c0-.6-.1-1.4-.1-2.5s0-5.4-.1-9.4H307.3l.2-.2h0V28.2l-.3-.2H307V15.6h0l.3-.3h48.8v.2c-.1,4-.1,7.3-.1,9.5s-.1,1.9-.1,2.5v.8Z"/><path class="cls-1" d="M362.5,15.4v-1a17.8,17.8,0,0,1-.1-2.5c0-2.3,0-5.5-.1-9.4l.2.2H333.3l.2-.2h0V15.4l-.2-.3H333V2.7h0l.3-.3h29.4v.2c-.1,4-.1,7.2-.1,9.5s-.1,1.9-.1,2.5Z"/><path class="cls-1" d="M48.9,335.1v-.9c0-.6-.1-1.4-.1-2.5s0-5.4-.1-9.4H.3l.2-.2h0v12.6l-.3-.2H0V322.5H0l.3-.3H49.1v.2c-.1,4-.1,7.3-.1,9.5s-.1,1.9-.1,2.5v.8Z"/><path class="cls-1" d="M55.5,322.3v-1a17.8,17.8,0,0,1-.1-2.5c0-2.3,0-5.5-.1-9.4l.2.2H26.3l.2-.2h0v12.7l-.2-.3H26V309.6h0l.3-.3H55.7v.2c-.1,4-.1,7.2-.1,9.5s-.1,1.9-.1,2.5Z"/><path class="cls-1" d="M202.1,229.3v-.9c0-.6-.1-1.4-.1-2.5s0-5.4-.1-9.5l.2.2H153.4l.3-.3h0v12.7l-.3-.2h-.2V216.6h0l.2-.2h48.8V226a24.5,24.5,0,0,0-.1,2.5v.8Z"/><path class="cls-1" d="M208.7,216.4v-3.5c0-2.2,0-5.4-.1-9.3h-29c-.3.2.3-.3.2-.2h0v12.6l-.2-.2h-.3V203.8h0l.3-.3h29.4v.2c-.1,3.9-.1,7.1-.1,9.4s-.1,1.9-.1,2.6Z"/><path class="cls-6" d="M22,383.7,4,408.1l30.2,22.5c2-3-9.3-20.4-9.3-20.4L37,395Z"/><path class="cls-5" d="M16.5,401.9a1.5,1.5,0,0,0-1.9.8,1.5,1.5,0,0,0,.7,1.9,2,2,0,0,0,2.1-.9,1.7,1.7,0,0,0-1-1.9"/><path class="cls-7" d="M3.9,408.2l2-2.7,28.2,22.8s.9,1.6.1,2.4Z"/><path class="cls-7" d="M25.5,410.4a12.3,12.3,0,0,0-2-.4c-1.1-.1-1.9.2-2,.1s.7-.9,2.1-.8S25.6,410.3,25.5,410.4Z"/><path class="cls-7" d="M27.7,414c-.1.2-.9,0-1.9.2s-1.6.8-1.7.7.4-1,1.6-1.3S27.8,413.9,27.7,414Z"/><path class="cls-7" d="M26.7,419.2c-.2-.1.1-1,1.1-1.5a2.2,2.2,0,0,1,1.9-.2c0,.2-.8.3-1.6.8S26.8,419.3,26.7,419.2Z"/><path class="cls-7" d="M27.9,406.6c-.2.1-.7-.6-1.6-1.2s-1.7-.8-1.7-.9,1-.3,2.1.4S28,406.5,27.9,406.6Z"/><path class="cls-7" d="M95.1,281.6c.6,3,1.4,29.1,2,42.8s-.9,20.5-2.4,23.5-60.8,46.8-65.3,57.2L14.4,393s22-39.5,31.4-46.6,27.4-13.8,27.4-13.8l-5.1-75.2L92.7,256Z"/><path class="cls-6" d="M40.1,407.8l-.3,30.4,37.7.5c-.1-3.6-19.5-11.1-19.5-11.1l.9-19.5Z"/><path class="cls-5" d="M46.3,425.8a1.6,1.6,0,0,0-1.1,1.7,1.4,1.4,0,0,0,1.7,1.1,1.6,1.6,0,0,0,1.2-1.8,1.6,1.6,0,0,0-1.9-1"/><path class="cls-7" d="M39.8,438.2V435l36.3,1.9s1.6.7,1.4,1.9Z"/><path class="cls-7" d="M58.6,427.4c0,.2-1,.2-1.9.8s-1.4,1.4-1.5,1.3.1-1.1,1.2-1.8S58.6,427.2,58.6,427.4Z"/><path class="cls-7" d="M62.5,429.1a15.4,15.4,0,0,0-1.4,1.2c-.7.8-.8,1.6-1,1.6s-.3-1.1.5-2S62.5,428.9,62.5,429.1Z"/><path class="cls-7" d="M64.7,433.8c-.2.1-.4-.9.1-1.9s1.3-1.3,1.4-1.2-.5.7-.9,1.5S64.9,433.8,64.7,433.8Z"/><path class="cls-7" d="M58.3,422.9c-.1.2-.9-.1-2,0s-1.8.4-1.9.2.7-.8,1.9-.9S58.4,422.8,58.3,422.9Z"/><path class="cls-7" d="M97.8,252.9c0,1.8,2.9,46.6-11.7,79,0,0-5.1,10.1-6,14.6s-19.9,77.9-19.9,77.9l-21.9-.8s-3.5-36.8.1-58.1,10-18.8,10-32.6-3.3-42.3-3.3-42.3-4.8-7.8-6.4-22.9c-1.3-12.3,4.5-25.4,4.5-25.4l5.7-10.1,48.3-2.6Z"/><path class="cls-6" d="M97.8,252.9v-1.5c0-1,0-2.5-.1-4.5-.1-3.9-.2-9.7-.4-17.3h-.1L48.9,232h-.2L43,242.2h0a65.3,65.3,0,0,0-3.5,11.1,54.3,54.3,0,0,0-1.2,12.2,81.6,81.6,0,0,0,2,12.7,53.9,53.9,0,0,0,4.6,12.5h0c.8,7.5,1.6,15.2,2.2,23.2.4,4,.6,8,.8,12.1.1,2,.2,4.1.2,6.2s0,2,0,3.1-.2,2-.4,3.1a20.2,20.2,0,0,1-2.1,5.8c-1,1.9-2,3.7-3,5.7a57.7,57.7,0,0,0-3.9,12.4c-1.7,8.6-2.1,17.5-2.2,26.5,0,11.9.6,23.6,1.6,34.9v.2h.2l21.9.7h.2v-.2c6.3-24.7,12.2-47.7,17.5-68.3.6-2.6,1.2-5.2,1.9-7.7s.5-2.5.9-3.7.8-2.4,1.3-3.6,1.9-4.5,2.9-6.7a13,13,0,0,0,.8-1.7,8,8,0,0,0,.8-1.6l1.3-3.3A126.8,126.8,0,0,0,94.8,303a215.3,215.3,0,0,0,3.3-36.8c.1-8.6-.3-13.3-.3-13.3v.9a17.8,17.8,0,0,1,.1,2.6c.1,2.2.1,5.5.1,9.8a229.8,229.8,0,0,1-3.5,36.7,127.4,127.4,0,0,1-7,24.9c-.4,1-.8,2.1-1.3,3.2s-.5,1.1-.7,1.7a8,8,0,0,0-.8,1.6,69.9,69.9,0,0,0-3,6.8,30.1,30.1,0,0,0-1.3,3.6c-.4,1.2-.7,2.5-1,3.7s-1.2,5.1-1.9,7.6L60,424.3l.2-.2-21.9-.8.3.3c-1-11.3-1.6-23-1.5-34.9,0-8.9.4-17.9,2.1-26.4A56.9,56.9,0,0,1,43.1,350c.9-1.9,2-3.7,3-5.6a22.1,22.1,0,0,0,2.1-6.1c.2-1,.3-2.1.4-3.1s.1-2.1,0-3.1,0-4.2-.1-6.2c-.2-4.1-.5-8.2-.9-12.2-.6-7.9-1.4-15.6-2.2-23.1h-.1a56.2,56.2,0,0,1-4.6-12.4,71.2,71.2,0,0,1-1.9-12.6A43.7,43.7,0,0,1,40,253.4a54.3,54.3,0,0,1,3.4-11h-.1L49,232.3h-.1l48.3-2.6v-.2c.2,7.6.4,13.4.5,17.3.1,2,.1,3.5.2,4.5Z"/><path class="cls-8" d="M82.1,161.2s-13-2.3-11.8,14.4c.8,10,3.7,27.2,5.4,38.1.5,3.8,1.8,10.6,6.8,14.6l35.9,24.8,11.3-13.5L97.6,209l-5-30.2Z"/><path class="cls-7" d="M83.7,100.9a16.4,16.4,0,0,1,6.1,13.9c-.2,2.6-.9,5.5.7,7.4s4.9,1.9,6.5,3.9.3,5.8.9,8.7a6,6,0,0,0,6.3,4.4,22.7,22.7,0,0,1-11.4,5l-3.2-4.1c1.2,1.4.9,3.7-.3,5.2a10.5,10.5,0,0,1-4.8,2.8,29.1,29.1,0,0,1-25.6-4.2"/><path class="cls-7" d="M35.6,123.5c.7-2,1.7-3.8,2.2-5.8.9-4.4-1.2-9.2.9-13.1s4.7-4.2,7.7-5.1,6.2-1.7,8.5-3.9,2.6-3.9,4.2-5.5,5.8-3.1,9.1-3.3a19.6,19.6,0,0,1,9.9,1.6A11.1,11.1,0,0,1,84.2,96a25.3,25.3,0,0,0,.6,4.9c.5,1.7,1.9,3.1,2.7,4.7A8.6,8.6,0,0,1,85.3,116L62.2,145.9c-4.9,1.9-16.7-.3-20.5-3.9S34,128.4,35.6,123.5Z"/><path class="cls-9" d="M84.7,112.2c-.9-6.8-6.1-14.8-12.8-13.6l-20.9,7c-2,.4-.6,3.7-.4,5.8l4.6,47c-.1,0-2.8,2-3.9,1.6s-.4.2-.3.5c2.5,3.6,14.3,19.5,26.5,14.6,2.7-1.1-.3-9.6,0-12.8l-.3-8.1c-.3-4.2-.4-5.9-.4-5.8s8.6-2.1,9.5-13.7C86.8,129,85.8,119.7,84.7,112.2Z"/><path class="cls-7" d="M83.3,122.7a1.4,1.4,0,0,1-1.3,1.5,1.4,1.4,0,0,1-1.6-1.2,1.4,1.4,0,0,1,1.3-1.5A1.4,1.4,0,0,1,83.3,122.7Z"/><path class="cls-7" d="M69.1,123.5a1.5,1.5,0,0,1-1.3,1.6,1.4,1.4,0,0,1-1.6-1.2,1.5,1.5,0,0,1,1.3-1.6A1.5,1.5,0,0,1,69.1,123.5Z"/><path class="cls-7" d="M83.8,117.8c-.2.3-1.5-.6-3.2-.3s-2.8,1.4-3,1.2,0-.6.5-1.1a4.2,4.2,0,0,1,2.3-1.3,3.9,3.9,0,0,1,2.6.6C83.6,117.3,83.9,117.7,83.8,117.8Z"/><path class="cls-7" d="M68.5,119.1c-.2.2-1.5-.7-3.3-.6s-3.2,1.1-3.4.8.1-.5.7-1a4.5,4.5,0,0,1,2.6-1,4.6,4.6,0,0,1,2.7.8C68.4,118.6,68.6,119,68.5,119.1Z"/><path class="cls-7" d="M74.3,129.9a7.5,7.5,0,0,1,2.5-.7c.4-.1.8-.2.8-.4a1.6,1.6,0,0,0-.4-1.2c-.4-1-.9-1.9-1.4-3a59.4,59.4,0,0,1-3.3-7.8c.2,0,2,3.3,3.9,7.5l1.4,3a2.2,2.2,0,0,1,.3,1.6c0,.3-.3.5-.6.6l-.6.2Z"/><path class="cls-10" d="M76.8,148.4a29,29,0,0,1-15.6-2.9s4.5,7.7,15.8,5.7Z"/><path class="cls-10" d="M69.5,134.5a2,2,0,0,1,.8-1,2,2,0,0,1,1.3-.1,2.8,2.8,0,0,1,1.8.9,1.9,1.9,0,0,1,.5,1.9h0c-.2.6-1.2,1-1.9,1.1a3.3,3.3,0,0,1-1.9-.4c-.5-.3-1-.8-1-1.3A2.1,2.1,0,0,1,69.5,134.5Z"/><path class="cls-7" d="M69.8,132.2c.2,0,.4,1.7,1.9,2.8s3.4.8,3.4,1-.4.4-1.1.5a3.9,3.9,0,0,1-2.8-.8,4.1,4.1,0,0,1-1.6-2.3C69.5,132.7,69.7,132.2,69.8,132.2Z"/><path class="cls-7" d="M68.4,113c-.1.4-1.7.3-3.5.7s-3.3,1-3.6.6.1-.6.7-1.1a6.5,6.5,0,0,1,5.4-1C68.1,112.4,68.4,112.7,68.4,113Z"/><path class="cls-7" d="M82.8,112.1c-.2.4-1.5.1-3,.2s-2.7.4-3.1.1.1-.5.6-.9a4,4,0,0,1,2.4-.8,4.3,4.3,0,0,1,2.5.5Q83.1,111.8,82.8,112.1Z"/><path class="cls-7" d="M46.4,107.2c1.1-1.6,3-2.4,4.8-3.1A99.1,99.1,0,0,1,75.3,98c1,1.6.1,4-1.5,5.2s-3.5,1.7-5.4,2.4-3.7,1.8-4.5,3.6-.1,4.2-.8,6.2-6,4.5-7.2,8,.5,5.3.9,8a9.9,9.9,0,0,1-9.6,11.2c-.6-9.8-1.1-19.6-1.7-29.4C45.4,111.2,45.3,109,46.4,107.2Z"/><path class="cls-7" d="M26.7,132c1.5-1.4,3.5-2.6,4.1-4.6s-1.4-6.3.1-8.9,5.3-2.3,6.6-4.7-.1-3.6.2-5.3a4.7,4.7,0,0,1,4.5-3l13.4,19.4c1.2,6.5,2.5,10,1.1,13.8a27.4,27.4,0,0,0-2.1,6.3c-.3,2.2.3,4.7,2.1,6-8,.6-15.5-3.6-22.4-7.6l-7.4-4.3a5.4,5.4,0,0,1-2-1.7C23.9,135.6,25.1,133.4,26.7,132Z"/><path class="cls-6" d="M34.1,141.4l.8.2a7.9,7.9,0,0,0,2.5-.2,7.2,7.2,0,0,0,3.5-1.9,8.1,8.1,0,0,0,2.3-4.6,8.2,8.2,0,0,0-.3-3.1,14,14,0,0,0-1.5-3,10.5,10.5,0,0,1-1.5-3,4,4,0,0,1,.4-3.4c.7-1,2.1-1.3,3.3-1.8a3,3,0,0,0,1.7-1.2,3.2,3.2,0,0,0,.6-2.1,19.6,19.6,0,0,0-.9-4.2,4.5,4.5,0,0,1,0-2,2.6,2.6,0,0,1,1.1-1.6,7.4,7.4,0,0,1,4.1-1.1,8.5,8.5,0,0,0,4.1-1.2,8.3,8.3,0,0,0,2.8-3.1,10.7,10.7,0,0,0,1-3.8,19,19,0,0,1,.8-3.6,8.2,8.2,0,0,1,1.9-2.8,8.6,8.6,0,0,1,5.5-2.5,8.8,8.8,0,0,1,5,1,13.1,13.1,0,0,1,3.1,2.3,17.1,17.1,0,0,1,1.9,2.8v-.2c-.1-.2-.1-.4-.3-.6a8.3,8.3,0,0,0-1.4-2.1,10.1,10.1,0,0,0-3.1-2.4A9,9,0,0,0,66.3,91a10.1,10.1,0,0,0-5.8,2.6,8.1,8.1,0,0,0-1.9,2.9,16.6,16.6,0,0,0-.9,3.7,11.3,11.3,0,0,1-1,3.7,7.3,7.3,0,0,1-2.6,2.9,8.8,8.8,0,0,1-4,1.1,8.1,8.1,0,0,0-4.2,1.2,3,3,0,0,0-1.4,1.9,5.4,5.4,0,0,0,0,2.2,23.5,23.5,0,0,1,.9,4.1,2.7,2.7,0,0,1-.4,1.8,3.3,3.3,0,0,1-1.5,1.1l-1.9.7a3.8,3.8,0,0,0-1.6,1.2,4.3,4.3,0,0,0-.5,3.8,10.1,10.1,0,0,0,1.6,3.1,13.4,13.4,0,0,1,1.5,2.9,7.2,7.2,0,0,1,.2,2.9,7.6,7.6,0,0,1-2.1,4.6,7.3,7.3,0,0,1-3.3,1.8A7.6,7.6,0,0,1,34.1,141.4Z"/><path class="cls-7" d="M23.4,127.6a1.4,1.4,0,0,0-.3.7,2.7,2.7,0,0,0,.4,2,2.6,2.6,0,0,0,1,1.1,4.7,4.7,0,0,0,1.7.4,3.9,3.9,0,0,0,3.5-2.2,5,5,0,0,0,.6-2.4,6.6,6.6,0,0,0-.6-2.7c-.6-1.7-1.8-3.4-1.8-5.4a3.9,3.9,0,0,1,.9-2.8,4,4,0,0,1,2.9-.9,10.6,10.6,0,0,0,3.5-.3,3.3,3.3,0,0,0,1.4-1.2,4.3,4.3,0,0,0,.6-1.8,11,11,0,0,0-.3-3.6,6.9,6.9,0,0,1,.2-3.2,8.4,8.4,0,0,1,3.7-4.9,11.5,11.5,0,0,1,5.6-1.3,15.9,15.9,0,0,0,5-.8A10.5,10.5,0,0,0,55,96.1a14,14,0,0,0,2-2.6,7.5,7.5,0,0,0,.9-2.5,8.8,8.8,0,0,1-1.1,2.5,12.6,12.6,0,0,1-2,2.4A9.9,9.9,0,0,1,51.3,98a15.1,15.1,0,0,1-5,.7,12.1,12.1,0,0,0-5.7,1.3,8.8,8.8,0,0,0-3.9,5.1,8.2,8.2,0,0,0-.2,3.5,13.2,13.2,0,0,1,.2,3.4,2.9,2.9,0,0,1-1.7,2.6,11.5,11.5,0,0,1-3.3.4,4.7,4.7,0,0,0-3.2,1,4.5,4.5,0,0,0-1,3.1,7.3,7.3,0,0,0,.7,3l1.2,2.6a7,7,0,0,1,.5,2.5,4,4,0,0,1-.5,2.2,3.8,3.8,0,0,1-3.2,2.2,4.2,4.2,0,0,1-1.6-.4,9.4,9.4,0,0,1-1-1,3.6,3.6,0,0,1-.4-1.9C23.3,127.9,23.4,127.7,23.4,127.6Z"/><path class="cls-7" d="M107.6,132.4a2.4,2.4,0,0,1,0,2.1,2.6,2.6,0,0,1-1.7,1.7,2.8,2.8,0,0,1-2.9-.8,2.9,2.9,0,0,1-.7-1.7,7.5,7.5,0,0,1,.3-2c.5-1.4,1.3-2.8,1.2-4.6a6.5,6.5,0,0,0-2.4-4.6,8.5,8.5,0,0,0-2.5-1.3,9.7,9.7,0,0,0-2.9-.4,22.3,22.3,0,0,1-2.7-.3,3.7,3.7,0,0,1-2.2-1.4,4.5,4.5,0,0,1-.8-2.3,19.5,19.5,0,0,1,.2-2.5,15.3,15.3,0,0,0,.7-4.7,6.1,6.1,0,0,0-1.4-3.8,8.5,8.5,0,0,0-2.6-2.2l-2.1-1.5a7.3,7.3,0,0,1-1.3-1.7v.2a.8.8,0,0,0,.1.4,7.6,7.6,0,0,0,1,1.3l2.1,1.5a9.9,9.9,0,0,1,2.5,2.2,6.8,6.8,0,0,1,1.3,3.7,19.4,19.4,0,0,1-.8,4.5,7.4,7.4,0,0,0-.2,2.6,5,5,0,0,0,.8,2.6,4.1,4.1,0,0,0,2.4,1.5,9.6,9.6,0,0,0,2.9.3,11.7,11.7,0,0,1,2.7.4,9,9,0,0,1,2.4,1.2,6.4,6.4,0,0,1,2.3,4.3c.1,1.6-.7,3.1-1.1,4.5a3.9,3.9,0,0,0-.3,2.1,2.6,2.6,0,0,0,.8,1.9,3,3,0,0,0,5-1,3.2,3.2,0,0,0,0-1.7Z"/><path class="cls-8" d="M98.1,210.8V199.7c1.2-6.2.6-13.6-2.3-19.3a113.1,113.1,0,0,0-6.9-10.5l-11-14.3c-6.1,4.4-15.6,1.2-23.7-1.7,0,0-8.1,4.4-11.8,8.6s9.5,59.4,9.5,59.4c-6.1,12.2-13.9,23-15.1,34.1l63.6,2.5-2.7-29.2Z"/><path class="cls-7" d="M97.2,229.6a5.5,5.5,0,0,1-.1-1.2,33.3,33.3,0,0,0,.1-3.4c0-3,.1-6.9.2-11.2s.2-8.3.3-11.2c.1-1.4.1-2.5.2-3.3s.1-1.3.2-1.3v4.7c-.1,2.9-.1,6.8-.2,11.1s-.2,8.4-.4,11.2a26.8,26.8,0,0,1-.2,3.4A5.5,5.5,0,0,1,97.2,229.6Z"/><path class="cls-9" d="M126.2,239.7s6.2.3,10.1,2.7,10,6.2,12.5,10.8c1.2,2.2-2.1,2.6-3.8,1.4s-4.1-3.6-5.4-3.9l-1.2-.3s2.5,5.6,3.8,7.6,2.4,5.3-1.5,5.5c0,0-2.6,3.4-5.3.8,0,0-2,3.1-5.3-1.2,0,0-2,2.5-2.8,1.6s-3.4-2.5-4.2-5.5-4-10.5-4-10.5Z"/><path class="cls-9" d="M265,153.8l29.1-3s2.4-11.6,2.3-14.6-2.1-22.8-2.1-22.8l10.6-5s14.2,47.9,11.1,51.9-8.9,7.5-9.4,7.5-27.5,12-46.3,5.8S265,153.8,265,153.8Z"/><path class="cls-8" d="M240.2,179.6c4.2,4.2,11.4,7.6,23.4,4.6,23.7-5.9,41.5-10.9,48.6-14.8s4.3-20.7,4.9-21.5c1.8-2.3-.1-7.3-2.7-8.1-7.3-2.2-19.9-1.3-20.5-.7-3.8,4-.4,8.7-.4,8.7l-31.3,4.1a55.1,55.1,0,0,0-11.5.8"/><path class="cls-7" d="M250.7,152.7l.7-.2,2.2-.3a41.9,41.9,0,0,1,8.6-.4h0l31.3-4.2-.2.3a8.7,8.7,0,0,1-1.4-5.1,6.6,6.6,0,0,1,.9-2.7,8.7,8.7,0,0,1,.9-1.1.5.5,0,0,1,.4-.2h1a64.9,64.9,0,0,1,11.7-.3,42.8,42.8,0,0,1,6.1.9l1.5.3a4.2,4.2,0,0,1,1.4.9,6.1,6.1,0,0,1,1.8,2.7,6.1,6.1,0,0,1,.4,3.3,3.5,3.5,0,0,1-.6,1.6c-.1.1-.1.3-.1.6v.8c.1,2.1.2,4.3.1,6.5a26.7,26.7,0,0,1-1.5,9.3,8.1,8.1,0,0,1-2.6,3.8,19.9,19.9,0,0,1-1.9,1.2l-2.1.9c-2.7,1.2-5.5,2.1-8.2,3l-8,2.5c-10.4,3-19.9,5.4-27.9,7.4l-5.8,1.2a31.4,31.4,0,0,1-5.2.3,22.6,22.6,0,0,1-8.2-1.8,16.8,16.8,0,0,1-4.5-2.8l-1.3-1.3a7.2,7.2,0,0,0,1.4,1.2,17,17,0,0,0,4.5,2.7,22.7,22.7,0,0,0,8.1,1.7,31.4,31.4,0,0,0,5.2-.3l5.7-1.2c8-2.1,17.5-4.5,27.9-7.6,2.6-.7,5.3-1.6,8-2.5s5.4-1.8,8.1-3l2-.9a5.9,5.9,0,0,0,1.9-1.1,9.3,9.3,0,0,0,2.5-3.6,30.4,30.4,0,0,0,1.4-9.1c.1-2.2,0-4.3-.1-6.5v-1.2a.4.4,0,0,1,.1-.3v-.2h.1a3.4,3.4,0,0,0,.5-1.4,6.1,6.1,0,0,0-.4-3,5.4,5.4,0,0,0-1.6-2.5,4.2,4.2,0,0,0-1.2-.8l-1.5-.3a41.4,41.4,0,0,0-6-.9,74.2,74.2,0,0,0-11.6.2l-.7.2H294a7.6,7.6,0,0,0-.8,1.1,4.3,4.3,0,0,0-.8,2.4,7.6,7.6,0,0,0,1.3,4.9l.2.3h-.3l-31.4,4h0a53.2,53.2,0,0,0-8.5.2l-2.3.3Z"/><path class="cls-11" d="M272.3-40.4h26.2a0,0,0,0,1,0,0V235.8a12,12,0,0,1-12,12h-2.3a12,12,0,0,1-12-12V-40.4a0,0,0,0,1,0,0Z" transform="translate(333.6 403.5) rotate(-119.1)"/><path class="cls-11" d="M330.2,21.6h60.8a2.2,2.2,0,0,1,2.2,2.2V39.3a2.2,2.2,0,0,1-2.2,2.2H330.2a0,0,0,0,1,0,0v-20A0,0,0,0,1,330.2,21.6Z" transform="translate(510 362.9) rotate(-119.1)"/><rect class="cls-11" x="304.2" y="43.7" width="50.8" height="20" rx="3.2" transform="translate(443 367.9) rotate(-119.1)"/><rect class="cls-11" x="335.6" y="25.9" width="27.4" height="31.06" transform="translate(483.1 366.8) rotate(-119.1)"/><path class="cls-11" d="M390.9,30c.1.1-47.3,26.6-105.8,59.1s-105.9,58.9-106,58.8,47.3-26.6,105.8-59.2S390.9,29.8,390.9,30Z"/><path class="cls-11" d="M68.1,229.5c17.8,32,55.3,45,83.8,29.2s37.2-54.7,19.4-86.6S116,127,87.5,142.9,50.3,197.6,68.1,229.5Zm87.8-48.8c12.5,22.4,6.4,49.5-13.6,60.6s-46.3,2-58.8-20.4-6.3-49.5,13.6-60.7S143.4,158.3,155.9,180.7Z"/><rect class="cls-11" x="186.5" y="140.6" width="40.1" height="14.26" rx="6.5" transform="translate(177.9 400.1) rotate(-119.1)"/><rect class="cls-11" x="211.8" y="126.6" width="40.1" height="14.26" rx="6.5" transform="translate(227.8 401.3) rotate(-119.1)"/><path class="cls-11" d="M205.9,132.1c.1-.1,3.2,5.3,6.8,11.9s6.5,12.2,6.4,12.3-3.2-5.3-6.8-12S205.8,132.1,205.9,132.1Z"/><path class="cls-11" d="M194.3,140.4c.1-.1,3.1,5,6.7,11.4s6.3,11.6,6.2,11.7-3.1-5.1-6.7-11.4S194.2,140.4,194.3,140.4Z"/><path class="cls-11" d="M231.4,118.2c.1-.1,3.2,5.2,6.9,11.9s6.6,12.1,6.5,12.2-3.3-5.3-7-11.9S231.2,118.2,231.4,118.2Z"/><path class="cls-11" d="M219.1,125.5c.2,0,3.2,5.3,6.8,11.9s6.5,12.1,6.4,12.1-3.2-5.2-6.8-11.8S219,125.6,219.1,125.5Z"/><path class="cls-7" d="M291.7,89.5a4.9,4.9,0,0,0,5.1-3.7,4.8,4.8,0,0,0-3.1-5.5,4.9,4.9,0,0,0-4.3-8.3,6,6,0,0,0-3-4.9,5.7,5.7,0,0,0-5.8.1,6.6,6.6,0,0,0-8.2-.2,4.8,4.8,0,0,0-5,2.4,4.9,4.9,0,0,0,.8,5.6"/><path class="cls-9" d="M271.4,71.6h1a20.2,20.2,0,0,1,20,18.5c.7,9.7,1.4,20.5,1.3,25.6-.1,10.8-10.9,12.5-10.9,12.5l.9,12.9-26.1-.9-2.2-46.9C254.5,82.1,260.2,72.3,271.4,71.6Z"/><path class="cls-10" d="M282.9,128.1a26.3,26.3,0,0,1-14.1-4.1s3.5,8.1,14.2,7.2Z"/><path class="cls-7" d="M286.4,100.3a1.4,1.4,0,0,1-1.4,1.5,1.5,1.5,0,1,1-.1-2.9A1.3,1.3,0,0,1,286.4,100.3Z"/><path class="cls-7" d="M290,95.4c-.2.2-1.3-.7-3-.7s-2.9.9-3,.7.1-.5.6-.9a4,4,0,0,1,2.4-.7,3.8,3.8,0,0,1,2.4.8C289.9,94.9,290.1,95.3,290,95.4Z"/><path class="cls-7" d="M271.5,99.5a1.5,1.5,0,0,1-1.5,1.6,1.5,1.5,0,0,1-1.5-1.4,1.5,1.5,0,0,1,1.4-1.6A1.5,1.5,0,0,1,271.5,99.5Z"/><path class="cls-7" d="M273.8,95.7c-.2.2-1.4-.7-3-.7s-2.9.8-3.1.6.1-.4.7-.8a4,4,0,0,1,4.8,0C273.7,95.2,273.9,95.6,273.8,95.7Z"/><path class="cls-7" d="M279.7,107.9l2.7-.4c.4-.1.8-.2.9-.4a2.4,2.4,0,0,0-.3-1.3l-1.2-3.2c-1.7-4.6-3-8.4-2.8-8.4s1.7,3.6,3.5,8.1c.4,1.2.8,2.2,1.2,3.3a2.9,2.9,0,0,1,.2,1.6,1.2,1.2,0,0,1-.7.7h-3.5Z"/><path class="cls-7" d="M275.2,89.3c-.2.4-1.6,0-3.4-.1s-3.2.2-3.3-.2.2-.6.8-.9a5.4,5.4,0,0,1,2.7-.6,5.7,5.7,0,0,1,2.5.8C275.1,88.7,275.3,89.1,275.2,89.3Z"/><path class="cls-7" d="M290.1,88.6c-.3.4-1.7,0-3.3-.1s-3.1.3-3.4-.1.1-.6.7-.9a4.3,4.3,0,0,1,2.7-.6,4.8,4.8,0,0,1,2.7.7C290.1,88,290.3,88.4,290.1,88.6Z"/><path class="cls-7" d="M291.3,85.2s-2.8-6.7-6-8.3-5.7,2.4-9.4,1.3-7.5-2.9-11.3,0-2.3,5.4-2.6,10.2c-1.1,19.3-4.6,24.8-5.6,15.7-.1-1-2.9-1.8-3.3-6.1s-.7-12.1.5-16,3-5.5,6.3-8c5.3-3.9,12.6-4,17.5-3.4S291.8,76.8,291.3,85.2Z"/><path class="cls-9" d="M257.1,103.8a2.9,2.9,0,0,0-3.2-2.8c-2,.1-4.2,1.3-4.1,5.4.2,7.4,7.6,5.6,7.6,5.4S257.2,106.9,257.1,103.8Z"/><path class="cls-10" d="M255.7,109.1l-.3.2a1.6,1.6,0,0,1-1,.1,3.3,3.3,0,0,1-1.6-2.8,3.8,3.8,0,0,1,.4-1.9,1.5,1.5,0,0,1,.9-1,.7.7,0,0,1,.8.3c.1.2,0,.4.1.4s.1-.1,0-.4a.5.5,0,0,0-.3-.5l-.7-.2a2.2,2.2,0,0,0-1.3,1.2,4.6,4.6,0,0,0-.4,2.1,3.3,3.3,0,0,0,2,3.1,1.6,1.6,0,0,0,1.2-.2A.6.6,0,0,0,255.7,109.1Z"/><path class="cls-7" d="M257.3,89.5a6,6,0,0,0,3.1,1.5,2.4,2.4,0,0,0,2.6-1.7c.1-.5,0-1.1.4-1.5s1.1-.3,1.7-.3,4.7-2.1,5.2-4.2a1.9,1.9,0,0,0,2.6.6,8.7,8.7,0,0,0,1.7-1.6,3.5,3.5,0,0,1,2.6-1.3,7.5,7.5,0,0,0,1.6.4c.9-.1,1.4-1.2,1.6-2.2a3.3,3.3,0,0,1,1.1-2.6,3.9,3.9,0,0,1,2.6,0c.9.1,2-.1,2.3-1a1.7,1.7,0,0,0-.4-1.3,4.7,4.7,0,0,0-5.6-1.8,6.4,6.4,0,0,0-5.5-4.6,6.8,6.8,0,0,0-6.4,3.3,6.8,6.8,0,0,0-5.8-1.6,6.7,6.7,0,0,0-4.6,3.9,5.2,5.2,0,0,0-5,1.7,4.9,4.9,0,0,0-.4,5.2,4.6,4.6,0,0,0-2.5,3.6c0,1.5,1.4,3.1,2.9,2.7a2.7,2.7,0,0,0,1,3.4,2.8,2.8,0,0,0,3.6-.8"/><path class="cls-6" d="M280.9,74.6c.1,0,.1.1,0,.2v.4a8.2,8.2,0,0,1-.5,1.4,6.8,6.8,0,0,1-1.7,1.7,5.3,5.3,0,0,1-3,.9V79a2.3,2.3,0,0,1-.1,2,5.9,5.9,0,0,1-1.3,1.8l-.8.9a2.8,2.8,0,0,1-1.2.4,2.6,2.6,0,0,1-2.3-.8h.2A5.7,5.7,0,0,1,268,87a4.3,4.3,0,0,1-2.4.8,6.1,6.1,0,0,1-2.4-.6h.2a4.9,4.9,0,0,1-1.8,2.2,3,3,0,0,1-2.5.7,3.9,3.9,0,0,1-3.1-3.2h.1a3.8,3.8,0,0,1-2.5.4,5.1,5.1,0,0,1-1.8-.8,5.7,5.7,0,0,1-.8-.9l-.2-.4a6.6,6.6,0,0,0,1.1,1.2,3.8,3.8,0,0,0,1.7.7,3.5,3.5,0,0,0,2.4-.4h.1v.2a3.6,3.6,0,0,0,2.9,2.9,2.7,2.7,0,0,0,2.3-.6,6.2,6.2,0,0,0,1.7-2.2h.2a8.6,8.6,0,0,0,2.3.5,3.7,3.7,0,0,0,2.2-.8,5.3,5.3,0,0,0,2.2-3.6v-.3l.2.3a2.3,2.3,0,0,0,2.1.7,1.8,1.8,0,0,0,1-.4l.8-.7a6.3,6.3,0,0,0,1.2-1.8,2.3,2.3,0,0,0,.2-1.8v-.2h.2a5.2,5.2,0,0,0,2.9-.7,4.2,4.2,0,0,0,1.6-1.7A3.9,3.9,0,0,0,280.9,74.6Z"/><path class="cls-7" d="M279.7,113.4c0-.2-1.8.2-3.5-1s-1.9-3.2-2.2-3.1-.2.5-.1,1.3a4.8,4.8,0,0,0,1.8,2.6,3.8,3.8,0,0,0,2.9.8C279.3,113.9,279.7,113.6,279.7,113.4Z"/><path class="cls-6" d="M335.2,393.2l7.1,24.2s26.9.9,28.7,5.3l-46.4,15.4L312,400.9Z"/><path class="cls-1" d="M327.2,420.2a1.9,1.9,0,0,0-.5,2.6,1.9,1.9,0,0,0,2.5.6,2.1,2.1,0,0,0,.6-2.8,2,2,0,0,0-2.7-.3"/><path class="cls-7" d="M368.4,420.9s2.3.2,2.6,1.8l-46.4,15.4-1.1-3.8,44.9-13.4"/><path class="cls-5" d="M342.9,416.9c.1.3-1,.7-1.9,1.8s-1.1,2.3-1.3,2.3-.4-1.5.7-2.8S342.9,416.7,342.9,416.9Z"/><path class="cls-5" d="M348.5,417.3c.1.2-.7.9-1.2,2.2s-.3,2.3-.6,2.3-.8-1.1-.2-2.6S348.4,417.1,348.5,417.3Z"/><path class="cls-5" d="M353.2,422.2c-.2.1-.9-.9-.7-2.3s1-2.3,1.2-2.1-.3,1-.4,2.2S353.4,422.1,353.2,422.2Z"/><path class="cls-5" d="M340.7,411.6c0,.2-1.2.3-2.4.8s-2.1,1.2-2.3,1.1.5-1.3,2-1.9S340.8,411.4,340.7,411.6Z"/><path class="cls-6" d="M226.8,393.4l-10.1,23.1s20.1,18.1,18.7,22.5l-45.5-18,14.2-36.6Z"/><path class="cls-1" d="M203.4,409a2,2,0,0,0-2.1,1.6,1.9,1.9,0,0,0,1.6,2.1,1.9,1.9,0,0,0,2.2-1.7,1.9,1.9,0,0,0-1.9-2"/><path class="cls-7" d="M234.5,436s1.6,1.7.9,3l-45.5-18,1.5-3.6L234.5,436"/><path class="cls-5" d="M217.6,416.6c-.1.2-1.3-.1-2.7.2a25.2,25.2,0,0,0-2.5.8c-.2-.1.7-1.3,2.4-1.7S217.7,416.4,217.6,416.6Z"/><path class="cls-5" d="M221.5,420.5c0,.2-1.1.2-2.2.8s-1.8,1.6-2,1.5.2-1.4,1.6-2.2S221.6,420.2,221.5,420.5Z"/><path class="cls-5" d="M222,427.2c-.2,0-.1-1.2,1-2.2s2.2-1.1,2.3-.9-.9.7-1.8,1.5S222.2,427.3,222,427.2Z"/><path class="cls-5" d="M219.3,411.1c-.2.1-1.1-.6-2.4-1a22.5,22.5,0,0,1-2.5-.6c0-.2,1.3-.7,2.8-.2S219.4,410.9,219.3,411.1Z"/><path class="cls-7" d="M243.9,266.5l-16,64.7s-28.7,48.4-33.6,72.6l26.3,10.4s19.1-46.7,24.7-55.3a68.3,68.3,0,0,1,8.7-10.6,17.1,17.1,0,0,0,4.4-7.6l12-46.1Z"/><path class="cls-7" d="M237.1,256.2s2.2,17.3,18.9,25l35.1,57.2s2.7,18.6,8,34.3S315,418.5,315,418.5l28.9-10.8-18.4-62.9-3-21.8-28.7-73-24.6-14.8Z"/><path class="cls-6" d="M237.1,256.2l.5-.4,1.6-1,6.2-4.1,23.7-15.6h.1l24.7,14.7h.1l28.7,73h0c.9,6.9,2,14.3,3,21.8h0l15.8,53.9c.9,3.1,1.8,6.1,2.6,9.1v.2H344l-28.9,10.8h-.3v-.3c-5-14.5-9.8-28.5-14.4-41.7-1.1-3.3-2.2-6.6-3.2-9.9s-1.8-6.5-2.5-9.7c-1.6-6.5-2.8-12.8-3.7-18.9h0c-14.4-23.5-26.3-43-35.1-57.2h.1a31.4,31.4,0,0,1-11-8.4,33,33,0,0,1-5.4-8.6,34.3,34.3,0,0,1-2-6l-.4-1.6v-.5a1.8,1.8,0,0,0,.1.5,15.7,15.7,0,0,1,.3,1.6,44,44,0,0,0,2.1,5.9,36,36,0,0,0,5.4,8.6,33.5,33.5,0,0,0,11,8.3h.1l35.2,57.2h0c.9,6,2.2,12.3,3.7,18.7.8,3.3,1.6,6.5,2.6,9.8s2,6.5,3.2,9.8l14.4,41.7h-.3l28.9-10.8-.2.3c-.8-3-1.7-6-2.6-9l-15.8-53.9h0c-1-7.5-2-14.9-3-21.8h0c-10.8-27.7-20.6-52.5-28.6-72.9h.1l-24.6-14.8h.1l-23.6,15.3-6.3,4.1-1.7,1.1Z"/><path class="cls-8" d="M252.5,132.6s-8.4,6.5-12.5,13.7-5.4,21.6-5.6,41.5,2.6,23.6,1.6,30.6c-2.1,13.6-3.7,59.2-3.7,59.2s27-10.4,32.3-15l5.2-4.6,33.8,11.2-6.8-41.5-4.7-51.8-6-27.4-1-10.8-29-11.7Z"/><path class="cls-7" d="M284.1,137.1c.3.1-.9,2.5-2.9,6h-.3l-11-4.1c-4.8-1.7-9.1-3.3-12.2-4.6l-3.7-1.5-1.3-.7,1.4.5,3.7,1.4,12.2,4.4,11.1,4.3h-.3C283,139.4,284.3,137.2,284.1,137.1Z"/><path class="cls-9" d="M319,115.5l-4.2-6.4c-2-3-5.1-4.5-5.5-6.1s-3.2-8.8-3.7-10.5a22.1,22.1,0,0,1-.5-5.2s2.2-1,3.3,2.2,2.7,8.3,3.1,8.6,1.1-.1,1.1-.1a72.5,72.5,0,0,1-2.4-7.4c-.1-1.2.3-8.9.3-8.9s1.6-.5,2.7,1.5,1.1,7,1.1,7l1.6,5.6-.6-5.6.8-10.1a3.8,3.8,0,0,1,3.2,3c.7,2.7-.2,6.5.2,7.4s1,5.7,1,5.7.5-11.9,1.8-12.3,2.3.9,2.1,3.3-.2,7.5.5,9.8,7.4,10.9,6.8,14.8-.6,7-.6,7H319.5Z"/><path class="cls-9" d="M278.3,145.5c.6.3,28.4,7.1,28.4,7.1s6.2-10,7.1-12.9,5.7-22.2,5.7-22.2l11.7-1.1s-2.9,49.9-7.2,52.6a32,32,0,0,1-11.5,3.9c-.4-.2-29.9,1.9-45.5-10.4S278.3,145.5,278.3,145.5Z"/><g class="cls-12"><path d="M258.4,171.9a21.1,21.1,0,0,0,11.4,6.7c7.3,1.6,23,4.5,23,4.5l-.8-7.7-34-3.6"/></g><path class="cls-8" d="M246.1,161.4c2.5,5.3,8.1,11,20.4,12.3,24.4,2.5,42.8,3.8,50.8,2.6s11.2-18,12-18.6c2.5-1.5,2.3-6.9.2-8.5-6.1-4.5-18.3-8-19.1-7.6-4.9,2.4-3.3,8-3.3,8l-30.9-6.8a51.7,51.7,0,0,0-11-3.2"/><path class="cls-8" d="M265.2,139.6h.7l2.2.4a55.7,55.7,0,0,1,8.2,2.6h0l30.8,6.7-.2.3a8.1,8.1,0,0,1,.4-5.3,5.4,5.4,0,0,1,1.7-2.2,4.2,4.2,0,0,1,1.2-.8h1.6a59.3,59.3,0,0,1,11,3.7,41.4,41.4,0,0,1,5.5,2.9l1.3.9a2.9,2.9,0,0,1,1,1.2,8.9,8.9,0,0,1,.8,3.2,6.1,6.1,0,0,1-.8,3.2,3.5,3.5,0,0,1-1.1,1.3c-.1,0-.2.3-.3.5l-.3.8c-.6,2-1.3,4.1-2.1,6.2a28.5,28.5,0,0,1-4.5,8.2,9.4,9.4,0,0,1-3.8,2.7,8.5,8.5,0,0,1-2.2.4l-2.3.2a84.2,84.2,0,0,1-8.7,0c-2.9,0-5.6-.2-8.4-.3-10.8-.7-20.6-1.7-28.8-2.6l-5.8-.8a32.6,32.6,0,0,1-5-1.6,21.6,21.6,0,0,1-7.1-4.4,16.8,16.8,0,0,1-3.3-4.2,9.1,9.1,0,0,1-.8-1.6l.9,1.6a23.5,23.5,0,0,0,3.3,4,22.7,22.7,0,0,0,7.1,4.4,32.9,32.9,0,0,0,5,1.4,33.8,33.8,0,0,0,5.8.8c8.2.8,17.9,1.8,28.8,2.5,2.7.1,5.5.3,8.3.3a84.2,84.2,0,0,0,8.7,0l2.2-.2,2.2-.4a9.7,9.7,0,0,0,3.5-2.6,26,26,0,0,0,4.4-8,64.5,64.5,0,0,0,2.1-6.2l.3-.7.2-.4c0-.1,0-.2.1-.2v-.2h.1a5.2,5.2,0,0,0,1-1.1,6.2,6.2,0,0,0,.6-3,7.2,7.2,0,0,0-.6-2.9,5.3,5.3,0,0,0-.9-1.1l-1.3-.9a34.5,34.5,0,0,0-5.4-2.8,67.3,67.3,0,0,0-10.9-3.8h-1.3l-1.1.7a7.4,7.4,0,0,0-1.6,2,8.2,8.2,0,0,0-.4,5.1v.3h-.3l-30.9-6.9h0a62.7,62.7,0,0,0-8.1-2.7l-2.2-.4Z"/><path class="cls-7" d="M317.3,159.3a8.6,8.6,0,0,1-2-.9,19.4,19.4,0,0,1-4.2-3.1,24.5,24.5,0,0,1-3.3-4.1c-.7-1.2-1-2-.9-2a41.6,41.6,0,0,0,4.6,5.7C314.4,157.7,317.4,159.1,317.3,159.3Z"/><path class="cls-8" d="M99.8,241.6s6.2.4,10,2.8,10,6.1,12.6,10.7c1.1,2.2-2.2,2.6-3.9,1.4s-4.1-3.6-5.4-3.9l-1.2-.2s2.5,5.5,3.8,7.5,2.4,5.3-1.5,5.5c0,0-2.6,3.4-5.2.9,0,0-2.1,3.1-5.4-1.2,0,0-1.9,2.4-2.8,1.5s-3.4-2.4-4.2-5.5-4-10.5-4-10.5Z"/><path class="cls-8" d="M47,160.1a15.1,15.1,0,0,0-7.8,5.8c-2.4,3.7-3.1,10.1-2.4,14.8,1.4,9.9,6,26.7,8.5,37.5.9,3.7,2.7,10.4,8.1,13.9l37.9,22.7,10.1-15L66.8,211.6,60,173Z"/><path class="cls-7" d="M40.4,198c.1,0,.1.2.2.4l.3,1.2c.3,1.1.6,2.6,1.1,4.5,1,4,2.5,9.7,4.2,16.8a19.5,19.5,0,0,0,6.3,9.9,37.3,37.3,0,0,0,5.5,3.6l6.1,3.7,27.3,16.5H91l3.7-5.4,6.5-9.7v.4L67,211.8h-.1C64.7,202.2,63,194.4,62,189c-.5-2.7-.9-4.9-1.1-6.3a15.7,15.7,0,0,0-.3-1.6v-.6a1.8,1.8,0,0,0,.1.5c.1.4.2,1,.3,1.7s.7,3.5,1.2,6.2c1.1,5.4,2.8,13.2,5.1,22.7h-.1l34.4,28.1h.1v.2l-6.5,9.6c-1.2,1.9-2.5,3.7-3.6,5.5l-.2.2-.2-.2L63.9,238.5l-6.1-3.7a38.8,38.8,0,0,1-5.6-3.7A20.5,20.5,0,0,1,45.9,221c-1.7-7.1-3.1-12.9-4-16.8-.5-2-.9-3.5-1.1-4.6l-.3-1.2A1,1,0,0,0,40.4,198Z"/><path class="cls-7" d="M41.1,165.4l.7-.3a8.9,8.9,0,0,1,2.3-.5,13.4,13.4,0,0,1,7.3,1,15.5,15.5,0,0,1,5.6,5,17.8,17.8,0,0,1,1,2.1l.2.8a25.9,25.9,0,0,0-1.5-2.7,15.5,15.5,0,0,0-5.5-4.7,12.8,12.8,0,0,0-7.1-1.1Z"/></g></g></svg>
