<svg xmlns="http://www.w3.org/2000/svg" viewBox="0 0 203.8 203.8"><defs><style>.cls-1{fill:#0e133b;}.cls-2{fill:#168287;}</style></defs><g id="Layer_2" data-name="Layer 2"><g id="Layer_1-2" data-name="Layer 1"><rect class="cls-1" x="67.49" y="67.52" width="68.7" height="68.7" transform="translate(-42.2 101.84) rotate(-45)"/><polygon class="cls-1" points="33.9 169.9 33.9 135.7 29.5 131.4 29.5 174.2 72.3 174.2 68 169.9 33.9 169.9"/><polygon class="cls-1" points="33.9 33.9 68 33.9 72.3 29.5 29.5 29.5 29.5 72.3 33.9 68 33.9 33.9"/><polygon class="cls-1" points="174.2 131.4 169.9 135.7 169.9 169.9 135.7 169.9 131.4 174.2 174.2 174.2 174.2 131.4"/><polygon class="cls-1" points="169.9 33.9 169.9 68 174.2 72.3 174.2 29.5 131.4 29.5 135.7 33.9 169.9 33.9"/><polygon class="cls-1" points="101.9 198.5 77.6 174.2 72.3 174.2 101.9 203.8 131.4 174.2 126.1 174.2 101.9 198.5"/><polygon class="cls-1" points="198.5 101.9 174.2 126.1 174.2 131.4 203.8 101.9 174.2 72.3 174.2 77.6 198.5 101.9"/><polygon class="cls-1" points="101.9 5.2 126.1 29.5 131.4 29.5 101.9 0 72.3 29.5 77.6 29.5 101.9 5.2"/><polygon class="cls-1" points="5.2 101.9 29.5 77.6 29.5 72.3 0 101.9 29.5 131.4 29.5 126.1 5.2 101.9"/><polygon class="cls-2" points="34.5 74 58.4 64.1 60.2 59.8 30.2 72.2 42.6 102.2 44.4 97.9 34.5 74"/><polygon class="cls-2" points="129.8 34.5 139.7 58.4 144 60.2 131.5 30.2 101.5 42.6 105.8 44.4 129.8 34.5"/><polygon class="cls-2" points="102.2 161.1 97.9 159.3 74 169.3 64.1 145.3 59.8 143.6 72.2 173.6 102.2 161.1"/><polygon class="cls-2" points="169.3 129.8 145.3 139.7 143.6 144 173.6 131.5 161.1 101.5 159.3 105.9 169.3 129.8"/><polygon class="cls-2" points="34.2 129.9 44.2 105.9 42.6 102.2 30.5 131.5 59.8 143.6 58.2 139.9 34.2 129.9"/><polygon class="cls-2" points="129.9 169.5 105.9 159.6 102.2 161.1 131.5 173.2 143.6 144 139.9 145.5 129.9 169.5"/><polygon class="cls-2" points="169.5 73.8 159.6 97.9 161.1 101.5 173.2 72.3 144 60.2 145.5 63.9 169.5 73.8"/><polygon class="cls-2" points="73.8 34.2 97.9 44.2 101.5 42.6 72.3 30.5 60.2 59.8 63.9 58.2 73.8 34.2"/><polygon class="cls-1" points="46.9 102.1 60.7 88.3 60.6 84.8 43.4 102.1 60.8 119.4 60.8 115.9 46.9 102.1"/><polygon class="cls-1" points="101.6 46.9 115.5 60.7 119 60.6 101.6 43.4 84.4 60.8 87.9 60.8 101.6 46.9"/><polygon class="cls-1" points="119.4 143 115.8 143 102.1 156.8 88.3 143.1 84.8 143.1 102.1 160.3 119.4 143"/><polygon class="cls-1" points="156.8 101.6 143.1 115.5 143.1 119 160.3 101.6 143 84.4 143 87.9 156.8 101.6"/><polygon class="cls-1" points="63 141.1 62.9 121.5 60.8 119.4 60.9 143.2 84.8 143.1 82.6 141 63 141.1"/><polygon class="cls-1" points="141.1 140.7 121.5 140.8 119.4 143 143.2 142.9 143.1 119 141 121.1 141.1 140.7"/><polygon class="cls-1" points="140.7 62.7 140.8 82.3 143 84.4 142.8 60.5 119 60.6 121.1 62.8 140.7 62.7"/><polygon class="cls-1" points="62.7 63 82.3 62.9 84.4 60.8 60.5 60.9 60.6 84.8 62.8 82.6 62.7 63"/><rect class="cls-2" x="67.5" y="67.5" width="68.7" height="68.7"/></g></g></svg>